<?xml version="1.0" encoding="UTF-8" standalone="no"?>
<svg
   xmlns:dc="http://purl.org/dc/elements/1.1/"
   xmlns:cc="http://creativecommons.org/ns#"
   xmlns:rdf="http://www.w3.org/1999/02/22-rdf-syntax-ns#"
   xmlns:svg="http://www.w3.org/2000/svg"
   xmlns="http://www.w3.org/2000/svg"
   xmlns:xlink="http://www.w3.org/1999/xlink"
   xmlns:sodipodi="http://sodipodi.sourceforge.net/DTD/sodipodi-0.dtd"
   xmlns:inkscape="http://www.inkscape.org/namespaces/inkscape"
   width="640"
   height="640"
   viewBox="0 0 640.00004 639.99999"
   id="svg2"
   version="1.1"
   sodipodi:docname="bringrss.svg"
   inkscape:version="0.92.3 (2405546, 2018-03-11)"
   inkscape:export-filename="D:\Git\bringrss\frontends\bringrss_flask\static\favicon.png"
   inkscape:export-xdpi="4.8000002"
   inkscape:export-ydpi="4.8000002">
  <sodipodi:namedview
     pagecolor="#ffffff"
     bordercolor="#666666"
     borderopacity="1"
     objecttolerance="10"
     gridtolerance="10"
     guidetolerance="10"
     inkscape:pageopacity="0"
     inkscape:pageshadow="2"
     inkscape:window-width="1920"
     inkscape:window-height="1019"
     id="namedview32"
     showgrid="false"
     inkscape:zoom="1"
     inkscape:cx="264.06525"
     inkscape:cy="378.58395"
     inkscape:window-x="-8"
     inkscape:window-y="-8"
     inkscape:window-maximized="1"
     inkscape:current-layer="svg2" />
  <defs
     id="defs4">
    <linearGradient
       id="linearGradient4499">
      <stop
         style="stop-color:#f31010;stop-opacity:1"
         offset="0"
         id="stop4501" />
      <stop
         style="stop-color:#ef4646;stop-opacity:1"
         offset="1"
         id="stop4503" />
    </linearGradient>
    <linearGradient
       id="linearGradient4489">
      <stop
         style="stop-color:#1d8f0e;stop-opacity:1"
         offset="0"
         id="stop4491" />
      <stop
         style="stop-color:#2fee15;stop-opacity:1"
         offset="1"
         id="stop4493" />
    </linearGradient>
    <marker
       orient="auto"
       refY="0"
       refX="0"
       id="Tail"
       style="overflow:visible">
      <g
         id="g4180"
         transform="scale(-1.2,-1.2)"
         style="fill:#74440c;fill-opacity:1;stroke:#000000;stroke-opacity:1">
        <path
           id="path4182"
           d="M -3.8048674,-3.9585227 0.54352094,0"
           style="fill:#74440c;fill-opacity:1;fill-rule:evenodd;stroke:#000000;stroke-width:0.80000001;stroke-linecap:round;stroke-opacity:1" />
        <path
           id="path4184"
           d="M -1.2866832,-3.9585227 3.0617053,0"
           style="fill:#74440c;fill-opacity:1;fill-rule:evenodd;stroke:#000000;stroke-width:0.80000001;stroke-linecap:round;stroke-opacity:1" />
        <path
           id="path4186"
           d="M 1.3053582,-3.9585227 5.6537466,0"
           style="fill:#74440c;fill-opacity:1;fill-rule:evenodd;stroke:#000000;stroke-width:0.80000001;stroke-linecap:round;stroke-opacity:1" />
        <path
           id="path4188"
           d="M -3.8048674,4.1775838 0.54352094,0.21974226"
           style="fill:#74440c;fill-opacity:1;fill-rule:evenodd;stroke:#000000;stroke-width:0.80000001;stroke-linecap:round;stroke-opacity:1" />
        <path
           id="path4190"
           d="M -1.2866832,4.1775838 3.0617053,0.21974226"
           style="fill:#74440c;fill-opacity:1;fill-rule:evenodd;stroke:#000000;stroke-width:0.80000001;stroke-linecap:round;stroke-opacity:1" />
        <path
           id="path4192"
           d="M 1.3053582,4.1775838 5.6537466,0.21974226"
           style="fill:#74440c;fill-opacity:1;fill-rule:evenodd;stroke:#000000;stroke-width:0.80000001;stroke-linecap:round;stroke-opacity:1" />
      </g>
    </marker>
    <linearGradient
       xlink:href="#linearGradient4489"
       id="linearGradient4495"
       x1="280.82242"
       y1="1056.675"
       x2="36.084953"
       y2="669.78662"
       gradientUnits="userSpaceOnUse"
       gradientTransform="matrix(1.3511769,0,0,1.3511769,73.997383,-786.40284)" />
    <linearGradient
       xlink:href="#linearGradient4499"
       id="linearGradient4505"
       x1="336.3808"
       y1="1003.8561"
       x2="105.84174"
       y2="647.27222"
       gradientUnits="userSpaceOnUse"
       gradientTransform="matrix(1.3511769,0,0,1.3511769,73.996343,-786.40298)" />
    <linearGradient
       id="linearGradient4361">
      <stop
         id="stop4363"
         offset="0"
         style="stop-color:#4d4d4d;stop-opacity:1" />
      <stop
         id="stop4365"
         offset="1"
         style="stop-color:#000000;stop-opacity:0;" />
    </linearGradient>
    <linearGradient
       gradientTransform="matrix(0.8225722,0,0,1.3309496,35.485561,-282.08894)"
       gradientUnits="userSpaceOnUse"
       y2="699.85175"
       x2="204.01379"
       y1="1037.2178"
       x1="315.47162"
       id="linearGradient4367"
       xlink:href="#linearGradient4361" />
    <linearGradient
       xlink:href="#linearGradient4499"
       id="linearGradient4505-3"
       x1="336.3808"
       y1="1003.8561"
       x2="105.84174"
       y2="647.27222"
       gradientUnits="userSpaceOnUse"
       gradientTransform="matrix(1.3511769,0,0,1.3511769,73.996343,-786.40298)" />
    <linearGradient
       xlink:href="#linearGradient4489"
       id="linearGradient4495-0"
       x1="280.82242"
       y1="1056.675"
       x2="36.084953"
       y2="669.78662"
       gradientUnits="userSpaceOnUse"
       gradientTransform="matrix(1.3511769,0,0,1.3511769,73.997383,-786.40284)" />
    <linearGradient
       xlink:href="#linearGradient4499"
       id="linearGradient4505-3-9"
       x1="336.3808"
       y1="1003.8561"
       x2="105.84174"
       y2="647.27222"
       gradientUnits="userSpaceOnUse"
       gradientTransform="matrix(1.220263,0,0,1.220263,66.826923,-710.20939)" />
    <linearGradient
       xlink:href="#linearGradient4489"
       id="linearGradient4495-0-1"
       x1="280.82242"
       y1="1056.675"
       x2="36.084953"
       y2="669.78662"
       gradientUnits="userSpaceOnUse"
       gradientTransform="matrix(1.220263,0,0,1.220263,66.827863,-710.20926)" />
    <clipPath
       id="clipPath20"
       clipPathUnits="userSpaceOnUse">
      <path
         id="path18"
         d="M 0,0 V 2091 H 5010 V 0 Z" />
    </clipPath>
    <clipPath
       id="clipPath26"
       clipPathUnits="userSpaceOnUse">
      <path
         id="path24"
         d="m 4980.41,1639.73 c 0,0 -29.18,204.85 -118.71,295.06 -113.54,118.39 -240.84,118.99 -299.2,125.91 -417.85,30.07 -1044.65,30.07 -1044.65,30.07 h -1.31 c 0,0 -626.81,0 -1044.66,-30.07 -58.38,-6.92 -185.63,-7.52 -299.2,-125.91 -89.54,-90.21 -118.68,-295.06 -118.68,-295.06 0,0 -29.86,-240.55 -29.86,-481.12 V 933.082 c 0,-240.543 29.86,-481.094 29.86,-481.094 0,0 29.14,-204.84 118.68,-295.058 C 2286.25,38.5117 2435.49,42.2813 2501.93,29.8789 2740.82,7.05078 3517.19,0 3517.19,0 c 0,0 627.46,0.941406 1045.31,30.9883 58.36,6.9414 185.66,7.5234 299.2,125.9417 89.53,90.218 118.71,295.058 118.71,295.058 0,0 29.82,240.551 29.82,481.094 v 225.528 c 0,240.57 -29.82,481.12 -29.82,481.12 z" />
    </clipPath>
    <linearGradient
       id="linearGradient32"
       spreadMethod="pad"
       gradientTransform="matrix(-9.14e-5,-2090.78,-2090.78,9.14e-5,3329.69,2262.1986)"
       gradientUnits="userSpaceOnUse"
       y2="0"
       x2="1"
       y1="0"
       x1="0">
      <stop
         id="stop28"
         offset="0"
         style="stop-opacity:1;stop-color:#e42526" />
      <stop
         id="stop30"
         offset="1"
         style="stop-opacity:1;stop-color:#be1f26" />
    </linearGradient>
    <linearGradient
       gradientTransform="matrix(5.2705883,0,0,5.2705883,884.70594,-3336.6857)"
       gradientUnits="userSpaceOnUse"
       y2="738.38818"
       x2="-89.038963"
       y1="654.93365"
       x1="-134.07793"
       id="linearGradient4244"
       xlink:href="#linearGradient32" />
  </defs>
  <metadata
     id="metadata7">
    <rdf:RDF>
      <cc:Work
         rdf:about="">
        <dc:format>image/svg+xml</dc:format>
        <dc:type
           rdf:resource="http://purl.org/dc/dcmitype/StillImage" />
        <dc:title />
      </cc:Work>
    </rdf:RDF>
  </metadata>
  <g
     transform="matrix(0.21333334,0,0,-0.21333334,-1085.6318,959.51445)"
     id="g14"
     style="stroke-width:0.625">
    <g
       clip-path="url(#clipPath20)"
       id="g16"
       style="stroke-width:0.625">
      <g
         clip-path="url(#clipPath26)"
         id="g22"
         style="stroke-width:0.625" />
    </g>
  </g>
  <circle
     r="256"
     cy="320"
     cx="320"
     id="path4236"
     style="opacity:1;fill:#f78422;fill-opacity:1;fill-rule:nonzero;stroke:none;stroke-width:10.18181801;stroke-linecap:round;stroke-linejoin:miter;stroke-miterlimit:4;stroke-dasharray:none;stroke-dashoffset:0;stroke-opacity:1" />
  <path
     style="opacity:1;fill:#ffffff;fill-opacity:1;stroke:none;stroke-width:20.10000229;stroke-linecap:butt;stroke-linejoin:miter;stroke-miterlimit:4;stroke-dasharray:none;stroke-dashoffset:0;stroke-opacity:1;paint-order:stroke fill markers"
     d="m 333.75624,104.5904 c -4.65466,-0.0904 -9.30439,0.42788 -13.87922,1.52069 -4.30436,1.16505 -5.14443,1.27431 -9.34639,2.8893 -1.57961,0.60712 -3.20595,1.13815 -4.67902,1.97105 -20.7675,11.74217 -43.63118,22.22562 -62.42431,37.62342 -9.18204,8.54934 -17.44168,18.00211 -23.84557,28.84827 -4.18352,7.27929 -8.02389,14.7515 -11.22583,22.48669 -3.04742,-9.78409 -6.15158,-19.55115 -9.51405,-29.23234 -1.86745,-5.52903 -3.85706,-11.01994 -5.64603,-16.57356 l -52.68214,29.68073 c 2.9712,4.80064 4.94324,10.14854 7.07705,15.35505 3.92507,9.46477 7.54552,19.05361 11.07179,28.67281 5.03667,14.27126 9.19311,28.82198 13.35476,43.36498 5.06891,18.08146 9.14642,36.4206 13.30409,54.72728 4.22206,19.21047 8.69559,38.36636 13.43861,57.45475 2.84325,11.15962 5.98042,22.23636 9.23528,33.2797 -6.11873,4.2865 -11.58493,9.52119 -16.50144,15.09578 -1.43092,1.81572 -2.93158,3.57735 -4.29107,5.44717 -6.49867,8.9382 -11.39508,19.05358 -14.17556,29.74898 -0.3975,2.02899 -0.90156,4.03974 -1.19315,6.08665 -1.40268,9.84597 -0.2516,19.21098 4.05517,28.20683 2.25072,4.00244 3.03742,5.80149 5.97164,9.39124 4.94234,6.04652 11.35259,10.63116 18.45686,13.78953 4.95463,1.91317 7.00606,2.8856 12.22985,4.15655 9.50936,2.31363 19.34241,2.84207 29.07831,2.11143 6.54392,-0.74935 9.6861,-0.99314 16.20704,-2.21086 11.81028,-2.20546 23.3088,-5.85963 34.38707,-10.48299 27.6405,-12.50218 8.47387,-3.50795 63.90795,-35.39113 11.4094,-6.56218 22.16705,-14.23879 32.24054,-22.69921 2.49021,-2.17684 5.03158,-4.29552 7.47089,-6.52922 5.70152,-5.22096 11.0962,-10.77124 16.1622,-16.60671 1.80845,0.53893 3.61527,1.08551 5.42574,1.61817 21.48929,5.23051 43.71785,12.29435 62.56288,8.71468 20.85922,-4.09139 30.17086,-16.82731 46.99514,-35.56268 -17.4766,2.81643 -18.34405,4.45707 -28.70204,2.95365 -14.32862,-1.65017 -20.97321,-3.72531 -34.88828,-7.58782 -8.77173,-2.43351 -17.50865,-4.97922 -26.22798,-7.5859 4.33629,-8.93295 7.77715,-18.29315 9.98,-27.98651 1.18263,-6.36268 1.76171,-8.49944 2.24595,-14.93787 0.72535,-9.64436 -0.0109,-19.34712 -2.04319,-28.7956 -0.55693,-2.30659 -1.03607,-4.63328 -1.67276,-6.91914 -3.17475,-11.39782 -8.25329,-22.16633 -14.4407,-32.22302 -1.29658,-1.94167 -2.54282,-3.91809 -3.88946,-5.8254 -6.45071,-9.13635 -14.03636,-17.35924 -22.51399,-24.65076 -9.47684,-7.54374 -19.2748,-14.25951 -30.80177,-18.31652 -1.79216,-0.60188 -3.56495,-1.26616 -5.37698,-1.80533 -8.54487,-2.54253 -17.61065,-3.62127 -26.49899,-2.98874 -3.99717,0.291 -7.9449,0.70908 -11.86528,1.27699 2.91064,-2.58293 5.73081,-5.26677 8.42422,-8.09085 7.13123,-7.5116 13.87937,-15.40392 19.5818,-24.07368 5.92391,-9.21131 11.33862,-18.80589 14.77799,-29.25571 2.94387,-10.06158 4.7051,-19.56533 3.18761,-30.08627 -0.69225,-3.73399 -0.94704,-5.70632 -2.05878,-9.33468 -1.70931,-5.57857 -4.47139,-10.70936 -8.07138,-15.29268 -2.24885,-2.66898 -3.04209,-3.8278 -5.69478,-6.112 -4.15089,-3.57433 -9.12923,-5.86812 -14.29448,-7.5664 -1.33966,-0.30751 -2.6652,-0.67951 -4.01811,-0.92216 -2.78057,-0.49871 -5.5749,-0.7724 -8.3677,-0.82663 z m -44.88762,34.40657 c 0.56026,3e-5 1.16107,0.0114 1.80339,0.0352 3.15256,0.0824 4.38413,0.35689 7.48255,0.81298 4.56037,1.01837 9.04178,2.70923 12.80888,5.53686 2.38623,1.79114 3.02841,2.69815 5.04948,4.89936 5.48679,6.41005 7.54815,13.51925 9.01106,21.64836 1.03283,9.43105 -1.13761,18.56914 -4.16825,27.4231 -3.73831,9.91052 -9.12677,19.02177 -15.21859,27.64145 -5.92844,8.49003 -13.01202,16.02741 -20.38112,23.2607 -3.46838,3.45586 -7.18585,6.61286 -11.03476,9.60568 -6.26918,3.94343 -13.22752,8.3173 -21.98564,13.36452 -0.71498,0.41203 -1.41721,0.85101 -2.08804,1.33159 -0.57553,0.4123 -1.09706,0.89554 -1.64547,1.34328 -0.82136,0.88897 -1.93566,1.61239 -1.4622,3.12325 0.2564,0.81816 2.00824,5.57166 3.99669,6.3674 0.37018,0.14815 0.79669,-0.15193 1.14441,-0.34702 5.96762,-3.34838 11.91863,-6.72915 17.87201,-10.10285 8.28974,-2.99067 16.99422,-4.55636 25.71329,-5.65578 8.54866,-1.00883 17.22671,-0.62709 25.61972,1.32767 1.7594,0.40978 3.48872,0.94242 5.23271,1.41346 11.10799,3.28665 20.82964,9.49772 30.03752,16.34351 8.3448,6.72399 15.77298,14.47621 22.06754,23.14957 1.31362,1.81004 2.52897,3.68862 3.79394,5.53297 6.03828,9.53656 10.72116,19.85481 13.63161,30.77057 0.57872,2.1705 1.01542,4.37794 1.52263,6.56625 1.81474,8.99331 2.3628,18.18476 1.4505,27.31976 -0.24794,2.48275 -0.5099,4.282 -0.80519,6.00283 -10.79863,-3.00847 -21.67296,-5.73553 -32.65972,-7.98947 -15.96563,-3.27334 -32.0635,-6.41802 -48.42225,-6.60526 -2.56863,0.0152 -5.13997,-0.0513 -7.70678,0.0468 -12.15596,0.46526 -24.3314,2.4292 -35.76933,6.63256 -5.28361,2.13709 -8.48675,3.43524 -11.07179,4.54061 -2.26646,-11.22073 -4.52446,-22.44183 -6.69299,-33.68131 -2.20318,-12.14241 -4.83127,-24.2092 -6.63839,-36.42051 -0.94413,-6.3798 -1.76934,-13.30413 -2.56567,-19.70658 -1.24698,-12.07972 -2.36854,-24.2184 -2.59688,-36.36981 -0.11952,-6.36138 0.12608,-10.54236 0.36264,-16.88745 0.79028,-10.77562 1.94797,-21.54556 4.17409,-32.12944 1.47126,-6.99496 1.99581,-8.41792 3.93038,-15.27512 2.91048,-9.48176 6.71031,-18.67876 11.41689,-27.4114 2.78554,-5.16835 4.04159,-6.96418 7.15894,-11.89062 6.08861,-8.75406 11.79119,-15.06262 11.79119,-15.06262 -2e-5,0 1.91918,-0.50525 5.841,-0.50495 z m -13.76419,267.07592 c 15.18795,-0.0946 30.20182,2.51734 45.0787,5.35167 16.7706,3.23149 33.27854,7.63197 49.65441,12.44623 4.59526,1.42028 9.19078,2.83773 13.78561,4.25795 -2.28131,3.95491 -4.53456,7.34011 -7.20378,11.49289 -7.0999,10.03358 -15.08887,19.44328 -23.94109,27.97679 -5.86555,5.65436 -8.28847,7.50062 -14.54599,12.74845 -14.72011,8.58948 -20.32876,10.92325 -36.01693,14.57521 -6.68239,1.4143 -8.86244,1.56635 -15.56953,2.4409 -6.05484,0.60628 -12.16394,0.70775 -18.21709,0.15012 7.35413,-3.97113 14.70761,-7.94287 22.06171,-11.914 -0.11842,-0.10685 -0.21563,-0.20318 -0.31974,-0.30221 0.0404,-0.0224 0.0805,-0.0457 0.12088,-0.0682 -2.18151,-4.13126 -3.76537,-8.57646 -5.27172,-12.99214 -3.41948,-9.78497 -6.39096,-19.72215 -9.11246,-29.72168 -3.16719,-11.96672 -5.84894,-24.05335 -8.41642,-36.16122 1.62416,-0.0795 3.25,-0.14445 4.87401,-0.22615 1.01409,-0.031 2.02691,-0.0483 3.03943,-0.0545 z"
     id="path1016"
     inkscape:connector-curvature="0"
     sodipodi:nodetypes="scsccccccccccccccccccccscscscsccccccccccscccccccccccscccsssccccccccccccscccccccscscccccccccscccscscccsccccscccccccccccscc"
     inkscape:export-filename="D:\Git\bringrss\frontends\bringrss_flask\static\path1016.png"
     inkscape:export-xdpi="4.8000002"
     inkscape:export-ydpi="4.8000002" />
</svg>
