<?xml version="1.0" encoding="UTF-8" standalone="no"?>
<svg
   xmlns:a="http://ns.adobe.com/AdobeSVGViewerExtensions/3.0/"
   xmlns:ns2="http://ns.adobe.com/AdobeIllustrator/10.0/"
   xmlns:dc="http://purl.org/dc/elements/1.1/"
   xmlns:cc="http://creativecommons.org/ns#"
   xmlns:rdf="http://www.w3.org/1999/02/22-rdf-syntax-ns#"
   xmlns:svg="http://www.w3.org/2000/svg"
   xmlns="http://www.w3.org/2000/svg"
   ns2:viewOrigin="134.4463 453.7329"
   ns2:rulerOrigin="0 9.765625e-04"
   ns2:pageBounds="0 841.8887 595.2754 -9.765625e-04"
   width="640"
   height="640"
   viewBox="0 0 639.99998 640.00001"
   overflow="visible"
   enable-background="new 0 0 61.351 78.433"
   xml:space="preserve"
   version="1.1"
   id="svg106"
   style="overflow:visible"><metadata
   id="metadata50"><rdf:RDF><cc:Work
       rdf:about=""><dc:format>image/svg+xml</dc:format><dc:type
         rdf:resource="http://purl.org/dc/dcmitype/StillImage" /><dc:title></dc:title></cc:Work></rdf:RDF></metadata><defs
   id="defs110" />


		<g
   id="g89"
   ns2:knockout="Off"
   transform="matrix(6.8948711,0,0,6.8948711,108.49638,118.65942)"
   style="stroke-width:0.14503536">
				<g
   id="g87"
   ns2:knockout="Off"
   style="stroke-width:0.14503536">
					<g
   id="g85"
   enable-background="new    "
   ns2:knockout="Off"
   ns2:isolated="yes"
   style="stroke-width:0.14503536">
						<g
   id="g6"
   ns2:knockout="Off"
   style="stroke-width:0.14503536">
							<polygon
   style="fill:#0b4819;stroke-width:0.14503536"
   id="polygon4"
   points="5.402,13.541 0.511,12.364 0.511,5.078 5.402,6.763 " />
						</g>
						<g
   id="g10"
   ns2:knockout="Off"
   style="stroke-width:0.14503536">
							<polygon
   style="fill:#0b4819;stroke-width:0.14503536"
   id="polygon8"
   points="9.13,41.393 4.455,42.317 4.455,15.226 9.13,16.215 " />
						</g>
						<g
   id="g14"
   ns2:knockout="Off"
   style="stroke-width:0.14503536">
							<polygon
   style="fill:#105c80;stroke-width:0.14503536"
   id="polygon12"
   points="60.662,55.981 34.012,53.917 47.597,40.738 47.597,34.243 28.175,53.465 4.919,51.667 42.222,11.55 36.083,11.882 9.13,41.393 9.13,16.215 11.683,13.201 5.402,13.541 5.402,6.763 27.321,5.066 15.306,18.846 15.306,24.71 33.126,4.617 61.351,2.432 19.834,45.706 25.361,45.997 55.516,15.154 55.516,44.305 52.166,47.454 60.662,47.913 " />
						</g>
						<g
   id="g18"
   ns2:knockout="Off"
   style="stroke-width:0.14503536">
							<polygon
   style="fill:#0b4819;stroke-width:0.14503536"
   id="polygon16"
   points="9.13,16.215 4.455,15.226 7.159,11.971 11.683,13.201 " />
						</g>
						<g
   id="g22"
   ns2:knockout="Off"
   style="stroke-width:0.14503536">
							<polygon
   style="fill:#084010;stroke-width:0.14503536"
   id="polygon20"
   points="11.004,24.358 11.004,18.039 15.306,18.846 15.306,24.71 " />
						</g>
						<g
   id="g26"
   ns2:knockout="Off"
   style="stroke-width:0.14503536">
							<polygon
   style="fill:#0c541e;stroke-width:0.14503536"
   id="polygon24"
   points="21.714,47.346 15.82,47.006 19.834,45.706 25.361,45.997 " />
						</g>
						<g
   id="g30"
   ns2:knockout="Off"
   style="stroke-width:0.14503536">
							<polygon
   style="fill:#1a5c34;stroke-width:0.14503536"
   id="polygon28"
   points="11.004,18.039 23.808,3.106 27.321,5.066 15.306,18.846 " />
						</g>
						<g
   id="g34"
   ns2:knockout="Off"
   style="stroke-width:0.14503536">
							<polygon
   style="fill:#0b4819;stroke-width:0.14503536"
   id="polygon32"
   points="15.306,24.71 11.004,24.358 30.022,2.58 33.126,4.617 " />
						</g>
						<g
   id="g38"
   ns2:knockout="Off"
   style="stroke-width:0.14503536">
							<polygon
   style="fill:#1a5c34;stroke-width:0.14503536"
   id="polygon36"
   points="4.455,42.317 33.195,10.432 36.083,11.882 9.13,41.393 " />
						</g>
						<g
   id="g42"
   ns2:knockout="Off"
   style="stroke-width:0.14503536">
							<polygon
   style="fill:#0b4819;stroke-width:0.14503536"
   id="polygon40"
   points="4.919,51.667 0,53.344 39.798,10.042 42.222,11.55 " />
						</g>
						<g
   id="g46"
   ns2:knockout="Off"
   style="stroke-width:0.14503536">
							<polygon
   style="fill:#1a5c34;stroke-width:0.14503536"
   id="polygon44"
   points="24.721,55.437 45.597,34.677 47.597,34.243 28.175,53.465 " />
						</g>
						<g
   id="g50"
   ns2:knockout="Off"
   style="stroke-width:0.14503536">
							<polygon
   style="fill:#0b4819;stroke-width:0.14503536"
   id="polygon48"
   points="47.597,40.738 45.597,41.737 45.597,34.677 47.597,34.243 " />
						</g>
						<g
   id="g54"
   ns2:knockout="Off"
   style="stroke-width:0.14503536">
							<polygon
   style="fill:#0b4819;stroke-width:0.14503536"
   id="polygon52"
   points="34.012,53.917 30.973,55.965 45.597,41.737 47.597,40.738 " />
						</g>
						<g
   id="g58"
   ns2:knockout="Off"
   style="stroke-width:0.14503536">
							<polygon
   style="fill:#13802d;stroke-width:0.14503536"
   id="polygon56"
   points="55.516,44.305 54.168,45.648 50.538,49.059 52.166,47.454 " />
						</g>
						<g
   id="g62"
   ns2:knockout="Off"
   style="stroke-width:0.14503536">
							<polygon
   style="fill:#0b4819;stroke-width:0.14503536"
   id="polygon60"
   points="25.361,45.997 21.714,47.346 54.168,13.9 55.516,15.154 " />
						</g>
						<g
   id="g66"
   ns2:knockout="Off"
   style="stroke-width:0.14503536">
							<polygon
   style="fill:#084010;stroke-width:0.14503536"
   id="polygon64"
   points="54.168,45.648 54.168,13.9 55.516,15.154 55.516,44.305 " />
						</g>
						<g
   id="g70"
   ns2:knockout="Off"
   style="stroke-width:0.14503536">
							<polygon
   style="fill:#084010;stroke-width:0.14503536"
   id="polygon68"
   points="59.759,58.403 59.759,49.604 60.662,47.913 60.662,55.981 " />
						</g>
						<g
   id="g74"
   ns2:knockout="Off"
   style="stroke-width:0.14503536">
							<polygon
   style="fill:#1a5c34;stroke-width:0.14503536"
   id="polygon72"
   points="15.82,47.006 60.507,0 61.351,2.432 19.834,45.706 " />
						</g>
						<g
   id="g83"
   ns2:knockout="Off"
   style="stroke-width:0.14503536">
							
								<radialGradient
   gradientUnits="userSpaceOnUse"
   gradientTransform="matrix(1,0,0,-1,134.4463,453.7334)"
   fy="442.72311"
   fx="-122.3936"
   r="29.5804"
   cy="442.72311"
   cx="-122.3936"
   id="XMLID_6_">
								<stop
   id="stop76"
   style="stop-color:#FFFFFF"
   offset="0" />
								<stop
   id="stop78"
   style="stop-color:#007808"
   offset="1" />
								<a:midPointStop
   style="stop-color:#FFFFFF"
   offset="0" />
								<a:midPointStop
   style="stop-color:#FFFFFF"
   offset="0.5" />
								<a:midPointStop
   style="stop-color:#007808"
   offset="1" />
							</radialGradient>
							<polygon
   style="fill:url(#XMLID_6_);stroke-width:0.14503536"
   id="polygon81"
   points="59.759,58.403 30.973,55.965 45.597,41.737 45.597,34.677 24.721,55.437 0,53.344 39.798,10.042 33.195,10.432 4.455,42.317 4.455,15.226 7.159,11.971 0.511,12.364 0.511,5.078 23.808,3.106 11.004,18.039 11.004,24.358 30.022,2.58 60.507,0 15.82,47.006 21.714,47.346 54.168,13.9 54.168,45.648 50.538,49.059 59.759,49.604 " />
						</g>
					</g>
				</g>
			</g>
	</svg>