<?xml version="1.0" encoding="UTF-8" standalone="no"?>
<svg
   xmlns:dc="http://purl.org/dc/elements/1.1/"
   xmlns:cc="http://creativecommons.org/ns#"
   xmlns:rdf="http://www.w3.org/1999/02/22-rdf-syntax-ns#"
   xmlns:svg="http://www.w3.org/2000/svg"
   xmlns="http://www.w3.org/2000/svg"
   width="640"
   height="640"
   viewBox="0 0 640 640"
   id="svg2"
   version="1.1">
  <defs
     id="defs4" />
  <metadata
     id="metadata7">
    <rdf:RDF>
      <cc:Work
         rdf:about="">
        <dc:format>image/svg+xml</dc:format>
        <dc:type
           rdf:resource="http://purl.org/dc/dcmitype/StillImage" />
        <dc:title></dc:title>
      </cc:Work>
    </rdf:RDF>
  </metadata>
  <g
     style="fill:#000000;fill-opacity:0.2"
     transform="translate(-328.1356,-165.42373)"
     id="g4892">
    <path
       id="path4844"
       d="m 744.82736,537.89628 c -8.42157,-0.005 -17.41519,2.00388 -26.06055,5.60547 -14.75472,6.1467 -28.26515,16.87732 -35.76172,28.50781 -7.4962,11.62994 -11.67747,28.3514 -11.17578,44.32031 0.5017,15.96891 5.64116,30.95186 15.42578,39.94727 0.11211,0.10306 0.23509,0.19929 0.34961,0.30078 7.45871,-5.13712 16.78476,-8.26289 26.80469,-10.19141 10.34682,-1.99143 21.54534,-2.69189 32.55859,-2.65039 3.67111,0.0138 7.32265,0.11112 10.91407,0.26953 5.19004,0.22893 10.22624,0.6004 15.04687,1.03907 2.38832,-8.51681 7.28393,-15.6868 13.67188,-20.93555 -2.09561,-3.71607 -4.21742,-7.62397 -6.3125,-11.71289 -6.66016,-12.99847 -12.79846,-27.28838 -16.17188,-41.14258 -2.51829,-10.34229 -3.55304,-20.53825 -1.7539,-29.78125 -0.28678,-0.13542 -0.57264,-0.27897 -0.86133,-0.40234 -4.58075,-1.9576 -9.65962,-2.97054 -14.99805,-3.14649 -0.55609,-0.0183 -1.11434,-0.027 -1.67578,-0.0273 z"
       style="opacity:1;fill:#000000;fill-opacity:0.2;stroke:none;stroke-width:10;stroke-linecap:round;stroke-linejoin:round;stroke-miterlimit:4;stroke-dasharray:none;stroke-dashoffset:0;stroke-opacity:1" />
    <path
       id="path4832"
       d="m 836.80197,504.49003 c -1.92528,-0.008 -3.87507,0.0545 -5.83789,0.1875 -7.85129,0.53196 -15.90854,2.18333 -23.42578,4.88867 -15.03449,5.41068 -27.69879,14.92869 -33.23047,27.01172 -3.7608,8.21483 -3.55864,19.64486 -0.47461,32.31055 3.08402,12.66568 8.91923,26.38581 15.35547,38.94726 1.96733,3.8396 3.92539,7.43511 5.85351,10.875 8.71378,-4.2076 18.90772,-5.44751 28.95313,-2.75586 4.23482,1.13472 8.14213,2.88814 11.65625,5.13477 2.89639,-3.15635 5.94261,-6.37621 9.1543,-9.60157 10.30533,-10.34917 21.99966,-20.60179 34.13476,-28.08984 9.06003,-5.59055 18.43894,-9.72937 27.78711,-10.875 0.0398,-0.31247 0.0873,-0.6269 0.11523,-0.9375 1.18976,-13.22793 -5.1143,-27.753 -15.52148,-39.88476 -10.40718,-12.13177 -24.79152,-21.6655 -38.17187,-25.20118 -5.01739,-1.32582 -10.57182,-1.98638 -16.34766,-2.00976 z"
       style="opacity:1;fill:#000000;fill-opacity:0.2;stroke:none;stroke-width:10;stroke-linecap:round;stroke-linejoin:round;stroke-miterlimit:4;stroke-dasharray:none;stroke-dashoffset:0;stroke-opacity:1" />
    <path
       id="path4852"
       d="m 746.93088,653.74198 c -10.56979,-0.0324 -21.18293,0.6464 -30.63086,2.46485 -12.59725,2.42455 -22.90723,6.91933 -28.7168,13.62304 -8.7071,10.0472 -12.14459,25.51575 -10.86719,41.4375 1.2774,15.92175 7.28701,32.06414 16.03321,42.78711 8.74822,10.72551 23.41066,19.93786 38.77148,24.42774 15.36082,4.48988 31.17149,4.22644 42.6543,-2.39844 0.15267,-0.0881 0.30154,-0.18943 0.45312,-0.28125 -2.62872,-8.88403 -2.66242,-18.95714 -1.29101,-29.32227 1.87589,-14.17799 6.47074,-29.08989 11.72656,-42.77148 1.65948,-4.31986 3.38398,-8.48394 5.11133,-12.47852 -12.02687,-7.94925 -19.26016,-21.7463 -18.77344,-36.3125 -4.39229,-0.38194 -9.05875,-0.70565 -13.96094,-0.92187 -3.46894,-0.15301 -6.9865,-0.24311 -10.50976,-0.25391 z"
       style="opacity:1;fill:#000000;fill-opacity:0.2;stroke:none;stroke-width:10;stroke-linecap:round;stroke-linejoin:round;stroke-miterlimit:4;stroke-dasharray:none;stroke-dashoffset:0;stroke-opacity:1" />
    <path
       id="path4611"
       d="m 839.24533,688.97831 c -10.03502,7.98631 -23.59592,11.29864 -36.89063,7.73633 -1.09996,-0.29474 -2.17169,-0.6417 -3.22656,-1.01758 -1.57333,3.67412 -3.16098,7.51208 -4.73047,11.59766 -5.0794,13.22235 -9.43151,27.53624 -11.14648,40.49804 -1.71498,12.9618 -0.68232,24.37557 3.96875,32.15821 6.81396,11.40175 20.45285,19.44944 36.0039,23.14843 15.55106,3.699 32.7927,2.95814 45.69532,-2.04492 12.90201,-5.00285 26.11602,-16.07384 35.09765,-29.28711 8.98163,-13.21327 13.63016,-28.3538 11.00196,-41.38086 -0.0316,-0.15655 -0.0766,-0.31398 -0.11133,-0.4707 -9.26466,-0.24422 -18.85905,-3.32499 -28.29688,-7.83398 -12.90605,-6.166 -25.66875,-15.1444 -37.05859,-24.3711 -3.60211,-2.918 -7.03643,-5.85126 -10.30664,-8.73242 z"
       style="opacity:1;fill:#000000;fill-opacity:0.2;stroke:none;stroke-width:10;stroke-linecap:round;stroke-linejoin:round;stroke-miterlimit:4;stroke-dasharray:none;stroke-dashoffset:0;stroke-opacity:1" />
    <path
       id="path4904"
       d="m 911.62424,582.20878 c -8.2346,0.11035 -17.72424,3.70919 -27.43165,9.69922 -11.09417,6.84574 -22.34195,16.63356 -32.30078,26.63476 -3.02668,3.03957 -5.86612,6.01914 -8.52929,8.90039 9.741,10.21778 14.10568,25.12649 10.19726,39.71289 -1.47569,5.50734 -3.99844,10.46288 -7.29297,14.71485 2.99853,2.62232 6.19058,5.32612 9.57813,8.07031 11.00767,8.91711 23.27675,17.4799 35.07617,23.11719 11.79942,5.63728 22.97855,8.18339 31.81836,6.16601 12.95048,-2.9555 24.818,-13.43769 33.14062,-27.08203 8.32263,-13.64434 12.9445,-30.26841 12.17188,-44.08398 -0.77258,-13.81492 -7.22016,-29.80062 -17.01367,-42.42578 -9.79352,-12.62517 -22.76113,-21.72656 -35.96485,-23.25391 -1.12212,-0.1298 -2.27286,-0.18569 -3.44921,-0.16992 z"
       style="opacity:1;fill:#000000;fill-opacity:0.2;stroke:none;stroke-width:10;stroke-linecap:round;stroke-linejoin:round;stroke-miterlimit:4;stroke-dasharray:none;stroke-dashoffset:0;stroke-opacity:1" />
    <path
       style="opacity:1;fill:#000000;fill-opacity:0.2;stroke:none;stroke-width:10;stroke-linecap:round;stroke-linejoin:round;stroke-miterlimit:4;stroke-dasharray:none;stroke-dashoffset:0;stroke-opacity:1"
       d="m 813.45041,624.51542 c -14.18565,-0.15904 -27.15134,9.22251 -31,23.58594 -4.56139,17.02332 5.4651,34.39267 22.49218,38.95507 17.02708,4.56239 34.3976,-5.46496 38.95899,-22.48828 4.56138,-17.02332 -5.46901,-34.39269 -22.4961,-38.95508 -2.66048,-0.71287 -5.3281,-1.0682 -7.95507,-1.09765 z"
       id="circle4615" />
  </g>
  <g
     style="fill:#000000;fill-opacity:0.2"
     id="g4918"
     transform="translate(-671.78879,-504.48935)">
    <path
       style="opacity:1;fill:#000000;fill-opacity:0.2;stroke:none;stroke-width:10;stroke-linecap:round;stroke-linejoin:round;stroke-miterlimit:4;stroke-dasharray:none;stroke-dashoffset:0;stroke-opacity:1"
       d="m 744.82736,537.89628 c -8.42157,-0.005 -17.41519,2.00388 -26.06055,5.60547 -14.75472,6.1467 -28.26515,16.87732 -35.76172,28.50781 -7.4962,11.62994 -11.67747,28.3514 -11.17578,44.32031 0.5017,15.96891 5.64116,30.95186 15.42578,39.94727 0.11211,0.10306 0.23509,0.19929 0.34961,0.30078 7.45871,-5.13712 16.78476,-8.26289 26.80469,-10.19141 10.34682,-1.99143 21.54534,-2.69189 32.55859,-2.65039 3.67111,0.0138 7.32265,0.11112 10.91407,0.26953 5.19004,0.22893 10.22624,0.6004 15.04687,1.03907 2.38832,-8.51681 7.28393,-15.6868 13.67188,-20.93555 -2.09561,-3.71607 -4.21742,-7.62397 -6.3125,-11.71289 -6.66016,-12.99847 -12.79846,-27.28838 -16.17188,-41.14258 -2.51829,-10.34229 -3.55304,-20.53825 -1.7539,-29.78125 -0.28678,-0.13542 -0.57264,-0.27897 -0.86133,-0.40234 -4.58075,-1.9576 -9.65962,-2.97054 -14.99805,-3.14649 -0.55609,-0.0183 -1.11434,-0.027 -1.67578,-0.0273 z"
       id="path4906" />
    <path
       style="opacity:1;fill:#000000;fill-opacity:0.2;stroke:none;stroke-width:10;stroke-linecap:round;stroke-linejoin:round;stroke-miterlimit:4;stroke-dasharray:none;stroke-dashoffset:0;stroke-opacity:1"
       d="m 836.80197,504.49003 c -1.92528,-0.008 -3.87507,0.0545 -5.83789,0.1875 -7.85129,0.53196 -15.90854,2.18333 -23.42578,4.88867 -15.03449,5.41068 -27.69879,14.92869 -33.23047,27.01172 -3.7608,8.21483 -3.55864,19.64486 -0.47461,32.31055 3.08402,12.66568 8.91923,26.38581 15.35547,38.94726 1.96733,3.8396 3.92539,7.43511 5.85351,10.875 8.71378,-4.2076 18.90772,-5.44751 28.95313,-2.75586 4.23482,1.13472 8.14213,2.88814 11.65625,5.13477 2.89639,-3.15635 5.94261,-6.37621 9.1543,-9.60157 10.30533,-10.34917 21.99966,-20.60179 34.13476,-28.08984 9.06003,-5.59055 18.43894,-9.72937 27.78711,-10.875 0.0398,-0.31247 0.0873,-0.6269 0.11523,-0.9375 1.18976,-13.22793 -5.1143,-27.753 -15.52148,-39.88476 -10.40718,-12.13177 -24.79152,-21.6655 -38.17187,-25.20118 -5.01739,-1.32582 -10.57182,-1.98638 -16.34766,-2.00976 z"
       id="path4908" />
    <path
       style="opacity:1;fill:#000000;fill-opacity:0.2;stroke:none;stroke-width:10;stroke-linecap:round;stroke-linejoin:round;stroke-miterlimit:4;stroke-dasharray:none;stroke-dashoffset:0;stroke-opacity:1"
       d="m 746.93088,653.74198 c -10.56979,-0.0324 -21.18293,0.6464 -30.63086,2.46485 -12.59725,2.42455 -22.90723,6.91933 -28.7168,13.62304 -8.7071,10.0472 -12.14459,25.51575 -10.86719,41.4375 1.2774,15.92175 7.28701,32.06414 16.03321,42.78711 8.74822,10.72551 23.41066,19.93786 38.77148,24.42774 15.36082,4.48988 31.17149,4.22644 42.6543,-2.39844 0.15267,-0.0881 0.30154,-0.18943 0.45312,-0.28125 -2.62872,-8.88403 -2.66242,-18.95714 -1.29101,-29.32227 1.87589,-14.17799 6.47074,-29.08989 11.72656,-42.77148 1.65948,-4.31986 3.38398,-8.48394 5.11133,-12.47852 -12.02687,-7.94925 -19.26016,-21.7463 -18.77344,-36.3125 -4.39229,-0.38194 -9.05875,-0.70565 -13.96094,-0.92187 -3.46894,-0.15301 -6.9865,-0.24311 -10.50976,-0.25391 z"
       id="path4910" />
    <path
       style="opacity:1;fill:#000000;fill-opacity:0.2;stroke:none;stroke-width:10;stroke-linecap:round;stroke-linejoin:round;stroke-miterlimit:4;stroke-dasharray:none;stroke-dashoffset:0;stroke-opacity:1"
       d="m 839.24533,688.97831 c -10.03502,7.98631 -23.59592,11.29864 -36.89063,7.73633 -1.09996,-0.29474 -2.17169,-0.6417 -3.22656,-1.01758 -1.57333,3.67412 -3.16098,7.51208 -4.73047,11.59766 -5.0794,13.22235 -9.43151,27.53624 -11.14648,40.49804 -1.71498,12.9618 -0.68232,24.37557 3.96875,32.15821 6.81396,11.40175 20.45285,19.44944 36.0039,23.14843 15.55106,3.699 32.7927,2.95814 45.69532,-2.04492 12.90201,-5.00285 26.11602,-16.07384 35.09765,-29.28711 8.98163,-13.21327 13.63016,-28.3538 11.00196,-41.38086 -0.0316,-0.15655 -0.0766,-0.31398 -0.11133,-0.4707 -9.26466,-0.24422 -18.85905,-3.32499 -28.29688,-7.83398 -12.90605,-6.166 -25.66875,-15.1444 -37.05859,-24.3711 -3.60211,-2.918 -7.03643,-5.85126 -10.30664,-8.73242 z"
       id="path4912" />
    <path
       style="opacity:1;fill:#000000;fill-opacity:0.2;stroke:none;stroke-width:10;stroke-linecap:round;stroke-linejoin:round;stroke-miterlimit:4;stroke-dasharray:none;stroke-dashoffset:0;stroke-opacity:1"
       d="m 911.62424,582.20878 c -8.2346,0.11035 -17.72424,3.70919 -27.43165,9.69922 -11.09417,6.84574 -22.34195,16.63356 -32.30078,26.63476 -3.02668,3.03957 -5.86612,6.01914 -8.52929,8.90039 9.741,10.21778 14.10568,25.12649 10.19726,39.71289 -1.47569,5.50734 -3.99844,10.46288 -7.29297,14.71485 2.99853,2.62232 6.19058,5.32612 9.57813,8.07031 11.00767,8.91711 23.27675,17.4799 35.07617,23.11719 11.79942,5.63728 22.97855,8.18339 31.81836,6.16601 12.95048,-2.9555 24.818,-13.43769 33.14062,-27.08203 8.32263,-13.64434 12.9445,-30.26841 12.17188,-44.08398 -0.77258,-13.81492 -7.22016,-29.80062 -17.01367,-42.42578 -9.79352,-12.62517 -22.76113,-21.72656 -35.96485,-23.25391 -1.12212,-0.1298 -2.27286,-0.18569 -3.44921,-0.16992 z"
       id="path4914" />
    <path
       id="path4916"
       d="m 813.45041,624.51542 c -14.18565,-0.15904 -27.15134,9.22251 -31,23.58594 -4.56139,17.02332 5.4651,34.39267 22.49218,38.95507 17.02708,4.56239 34.3976,-5.46496 38.95899,-22.48828 4.56138,-17.02332 -5.46901,-34.39269 -22.4961,-38.95508 -2.66048,-0.71287 -5.3281,-1.0682 -7.95507,-1.09765 z"
       style="opacity:1;fill:#000000;fill-opacity:0.2;stroke:none;stroke-width:10;stroke-linecap:round;stroke-linejoin:round;stroke-miterlimit:4;stroke-dasharray:none;stroke-dashoffset:0;stroke-opacity:1" />
  </g>
</svg>
