<?xml version="1.0" encoding="UTF-8" standalone="no"?>
<svg
   xmlns:dc="http://purl.org/dc/elements/1.1/"
   xmlns:cc="http://creativecommons.org/ns#"
   xmlns:rdf="http://www.w3.org/1999/02/22-rdf-syntax-ns#"
   xmlns:svg="http://www.w3.org/2000/svg"
   xmlns="http://www.w3.org/2000/svg"
   version="1.1"
   id="svg2"
   viewBox="0 0 640 640"
   height="640"
   width="640">
  <defs
     id="defs4" />
  <metadata
     id="metadata7">
    <rdf:RDF>
      <cc:Work
         rdf:about="">
        <dc:format>image/svg+xml</dc:format>
        <dc:type
           rdf:resource="http://purl.org/dc/dcmitype/StillImage" />
        <dc:title></dc:title>
      </cc:Work>
    </rdf:RDF>
  </metadata>
  <path
     style="opacity:1;fill:#006ae3;fill-opacity:1;stroke:#000000;stroke-width:10;stroke-linecap:round;stroke-linejoin:round;stroke-miterlimit:4;stroke-dasharray:none;stroke-dashoffset:0;stroke-opacity:1"
     d="m 310.50847,94.915247 h 69.15255 V 298.30508 h -69.15255 z"
     id="rect4536" />
  <path
     id="path4539"
     d="m 288.81355,68.474567 h 112.54238 l -8,79.322043 h -96.54238 z"
     style="opacity:1;fill:#006ae3;fill-opacity:1;stroke:#000000;stroke-width:10;stroke-linecap:round;stroke-linejoin:round;stroke-miterlimit:4;stroke-dasharray:none;stroke-dashoffset:0;stroke-opacity:1" />
  <path
     id="path4541"
     d="m 184.4068,185.76271 h 98.98305 l 96.27117,112.54237 h -69.15255 z"
     style="opacity:1;fill:#004693;fill-opacity:1;stroke:#000000;stroke-width:10;stroke-linecap:round;stroke-linejoin:round;stroke-miterlimit:4;stroke-dasharray:none;stroke-dashoffset:0;stroke-opacity:1" />
  <path
     style="opacity:1;fill:#006ae3;fill-opacity:1;stroke:#000000;stroke-width:10;stroke-linecap:round;stroke-linejoin:round;stroke-miterlimit:4;stroke-dasharray:none;stroke-dashoffset:0;stroke-opacity:1"
     d="m 184.4068,185.76271 h 98.98305 l 20,214.91526 -69.49153,82.0339 -69.49152,-82.0339 z"
     id="rect4533" />
  <text
     xml:space="preserve"
     style="font-style:normal;font-weight:normal;font-size:139.32276917px;line-height:1.25;font-family:sans-serif;letter-spacing:0px;word-spacing:0px;fill:#000000;fill-opacity:1;stroke:none;stroke-width:1"
     x="405.99133"
     y="194.69713"
     id="text4545"><tspan
       id="tspan4543"
       x="405.99133"
       y="194.69713"
       style="stroke-width:1">*</tspan></text>
  <g
     aria-label="*I may or may not actually wear a tie"
     style="font-style:normal;font-weight:normal;font-size:32.89357758px;line-height:1.25;font-family:sans-serif;letter-spacing:0px;word-spacing:0px;fill:#000000;fill-opacity:1;stroke:none;stroke-width:1"
     id="text4549"
     transform="translate(0,16)">
    <path
       d="m 182.33043,499.25282 -1.02793,1.76674 -5.81419,-3.42106 0.0964,5.78208 h -2.07191 l 0.0803,-5.78208 -5.79813,3.43712 -1.04399,-1.76674 6.11936,-3.32469 -6.11936,-3.3247 1.04399,-1.76674 5.81419,3.42106 -0.0964,-5.76601 h 2.07191 l -0.11242,5.76601 5.83025,-3.405 1.02793,1.76675 -6.1033,3.29257 z"
       style="stroke-width:1"
       id="path4619" />
    <path
       d="m 196.65712,513.49921 h -9.44405 v -2.44132 h 3.13196 v -19.03266 h -3.13196 v -2.44132 h 9.44405 v 2.44132 h -3.13195 v 19.03266 h 3.13195 z"
       style="stroke-width:1"
       id="path4621" />
    <path
       d="m 239.60509,513.49921 h -3.01953 v -10.215 q 0,-1.15642 -0.11243,-2.23252 -0.0964,-1.07611 -0.43366,-1.71857 -0.36941,-0.69063 -1.06004,-1.04398 -0.69064,-0.35335 -1.99161,-0.35335 -1.26884,0 -2.53768,0.64245 -1.26885,0.62639 -2.53769,1.60613 0.0482,0.36941 0.0803,0.86732 0.0321,0.48184 0.0321,0.96367 v 11.48385 h -3.01953 v -10.215 q 0,-1.18854 -0.11243,-2.24859 -0.0964,-1.0761 -0.43366,-1.71856 -0.36941,-0.69063 -1.06004,-1.02792 -0.69064,-0.35335 -1.99161,-0.35335 -1.23672,0 -2.4895,0.61033 -1.23672,0.61033 -2.47344,1.55795 v 13.39514 h -3.01953 v -17.94049 h 3.01953 v 1.9916 q 1.41339,-1.17248 2.81073,-1.83099 1.41339,-0.65852 3.00346,-0.65852 1.83099,0 3.09984,0.77095 1.2849,0.77094 1.9113,2.13615 1.83099,-1.54188 3.34075,-2.21646 1.50976,-0.69064 3.22832,-0.69064 2.95529,0 4.35262,1.79887 1.4134,1.78281 1.4134,4.99507 z"
       style="stroke-width:1"
       id="path4623" />
    <path
       d="m 259.3605,513.49921 h -3.00346 v -1.9113 q -0.40154,0.27304 -1.09217,0.77094 -0.67458,0.48184 -1.31703,0.77095 -0.75488,0.36941 -1.73462,0.61033 -0.97974,0.25698 -2.29677,0.25698 -2.42526,0 -4.1117,-1.60613 -1.68644,-1.60614 -1.68644,-4.09564 0,-2.03979 0.86732,-3.29257 0.88337,-1.26884 2.50556,-1.9916 1.63825,-0.72276 3.93502,-0.97974 2.29677,-0.25698 4.93083,-0.38548 v -0.46577 q 0,-1.02793 -0.36941,-1.7025 -0.35335,-0.67458 -1.02793,-1.06005 -0.64245,-0.36941 -1.54188,-0.4979 -0.89944,-0.12849 -1.87918,-0.12849 -1.18853,0 -2.65011,0.32122 -1.46158,0.30517 -3.01953,0.89944 h -0.16062 v -3.06771 q 0.88338,-0.24092 2.55375,-0.53003 1.67038,-0.2891 3.29257,-0.2891 1.89524,0 3.29257,0.32123 1.4134,0.30516 2.44132,1.06004 1.01187,0.73882 1.54189,1.9113 0.53002,1.17248 0.53002,2.9071 z m -3.00346,-4.41687 v -4.99507 q -1.38128,0.0803 -3.26045,0.24092 -1.86311,0.16062 -2.95528,0.46578 -1.30097,0.36941 -2.10403,1.15642 -0.80307,0.77094 -0.80307,2.13615 0,1.54189 0.93156,2.32889 0.93155,0.77095 2.84285,0.77095 1.59007,0 2.9071,-0.61033 1.31703,-0.62639 2.44132,-1.49371 z"
       style="stroke-width:1"
       id="path4625" />
    <path
       d="m 280.46508,495.55872 -10.47198,24.55775 h -3.22833 l 3.34076,-7.48457 -7.14729,-17.07318 h 3.27651 l 5.50903,13.29877 5.55722,-13.29877 z"
       style="stroke-width:1"
       id="path4627" />
    <path
       d="m 311.27067,504.53699 q 0,4.38474 -2.24858,6.92243 -2.24858,2.53769 -6.02299,2.53769 -3.80654,0 -6.05512,-2.53769 -2.23252,-2.53769 -2.23252,-6.92243 0,-4.38474 2.23252,-6.92243 2.24858,-2.55375 6.05512,-2.55375 3.77441,0 6.02299,2.55375 2.24858,2.53769 2.24858,6.92243 z m -3.11589,0 q 0,-3.4853 -1.36521,-5.17174 -1.36521,-1.7025 -3.79047,-1.7025 -2.45739,0 -3.8226,1.7025 -1.34915,1.68644 -1.34915,5.17174 0,3.37288 1.36521,5.12356 1.36522,1.73462 3.80654,1.73462 2.40919,0 3.77441,-1.71856 1.38127,-1.73462 1.38127,-5.13962 z"
       style="stroke-width:1"
       id="path4629" />
    <path
       d="m 327.15532,498.85129 h -0.16061 q -0.67457,-0.16062 -1.31703,-0.22486 -0.62639,-0.0803 -1.4937,-0.0803 -1.39733,0 -2.6983,0.62639 -1.30097,0.61033 -2.50557,1.59007 v 12.73663 h -3.01952 v -17.94049 h 3.01952 v 2.65011 q 1.79887,-1.44552 3.16408,-2.03978 1.38128,-0.61033 2.81073,-0.61033 0.78701,0 1.14036,0.0482 0.35335,0.0321 1.06004,0.14455 z"
       style="stroke-width:1"
       id="path4631" />
    <path
       d="m 367.7744,513.49921 h -3.01953 v -10.215 q 0,-1.15642 -0.11243,-2.23252 -0.0964,-1.07611 -0.43365,-1.71857 -0.36941,-0.69063 -1.06005,-1.04398 -0.69064,-0.35335 -1.9916,-0.35335 -1.26885,0 -2.53769,0.64245 -1.26885,0.62639 -2.53769,1.60613 0.0482,0.36941 0.0803,0.86732 0.0321,0.48184 0.0321,0.96367 v 11.48385 h -3.01953 v -10.215 q 0,-1.18854 -0.11243,-2.24859 -0.0964,-1.0761 -0.43365,-1.71856 -0.36941,-0.69063 -1.06005,-1.02792 -0.69064,-0.35335 -1.9916,-0.35335 -1.23673,0 -2.48951,0.61033 -1.23672,0.61033 -2.47344,1.55795 v 13.39514 h -3.01953 v -17.94049 h 3.01953 v 1.9916 q 1.4134,-1.17248 2.81073,-1.83099 1.4134,-0.65852 3.00347,-0.65852 1.83099,0 3.09983,0.77095 1.28491,0.77094 1.9113,2.13615 1.83099,-1.54188 3.34075,-2.21646 1.50976,-0.69064 3.22833,-0.69064 2.95528,0 4.35261,1.79887 1.4134,1.78281 1.4134,4.99507 z"
       style="stroke-width:1"
       id="path4633" />
    <path
       d="m 387.52982,513.49921 h -3.00347 v -1.9113 q -0.40153,0.27304 -1.09217,0.77094 -0.67458,0.48184 -1.31703,0.77095 -0.75488,0.36941 -1.73462,0.61033 -0.97974,0.25698 -2.29677,0.25698 -2.42526,0 -4.1117,-1.60613 -1.68643,-1.60614 -1.68643,-4.09564 0,-2.03979 0.86731,-3.29257 0.88337,-1.26884 2.50556,-1.9916 1.63826,-0.72276 3.93502,-0.97974 2.29677,-0.25698 4.93083,-0.38548 v -0.46577 q 0,-1.02793 -0.36941,-1.7025 -0.35335,-0.67458 -1.02793,-1.06005 -0.64245,-0.36941 -1.54188,-0.4979 -0.89944,-0.12849 -1.87918,-0.12849 -1.18853,0 -2.65011,0.32122 -1.46158,0.30517 -3.01953,0.89944 h -0.16061 v -3.06771 q 0.88337,-0.24092 2.55375,-0.53003 1.67037,-0.2891 3.29257,-0.2891 1.89523,0 3.29257,0.32123 1.41339,0.30516 2.44132,1.06004 1.01186,0.73882 1.54188,1.9113 0.53003,1.17248 0.53003,2.9071 z m -3.00347,-4.41687 v -4.99507 q -1.38127,0.0803 -3.26045,0.24092 -1.86311,0.16062 -2.95528,0.46578 -1.30097,0.36941 -2.10403,1.15642 -0.80307,0.77094 -0.80307,2.13615 0,1.54189 0.93156,2.32889 0.93155,0.77095 2.84285,0.77095 1.59007,0 2.9071,-0.61033 1.31703,-0.62639 2.44132,-1.49371 z"
       style="stroke-width:1"
       id="path4635" />
    <path
       d="m 408.63439,495.55872 -10.47198,24.55775 h -3.22833 l 3.34076,-7.48457 -7.14729,-17.07318 h 3.27651 l 5.50903,13.29877 5.55722,-13.29877 z"
       style="stroke-width:1"
       id="path4637" />
    <path
       d="m 439.15088,513.49921 h -3.01953 v -10.215 q 0,-1.23672 -0.14455,-2.31283 -0.14455,-1.09217 -0.53002,-1.7025 -0.40153,-0.67458 -1.15642,-0.9958 -0.75488,-0.33729 -1.95948,-0.33729 -1.23672,0 -2.58587,0.61033 -1.34915,0.61033 -2.58587,1.55795 v 13.39514 h -3.01953 v -17.94049 h 3.01953 v 1.9916 q 1.4134,-1.17248 2.92316,-1.83099 1.50976,-0.65852 3.09983,-0.65852 2.9071,0 4.43293,1.75069 1.52582,1.75068 1.52582,5.04325 z"
       style="stroke-width:1"
       id="path4639" />
    <path
       d="m 460.25545,504.53699 q 0,4.38474 -2.24859,6.92243 -2.24858,2.53769 -6.02299,2.53769 -3.80653,0 -6.05512,-2.53769 -2.23252,-2.53769 -2.23252,-6.92243 0,-4.38474 2.23252,-6.92243 2.24859,-2.55375 6.05512,-2.55375 3.77441,0 6.02299,2.55375 2.24859,2.53769 2.24859,6.92243 z m -3.1159,0 q 0,-3.4853 -1.36521,-5.17174 -1.36521,-1.7025 -3.79047,-1.7025 -2.45738,0 -3.8226,1.7025 -1.34915,1.68644 -1.34915,5.17174 0,3.37288 1.36522,5.12356 1.36521,1.73462 3.80653,1.73462 2.4092,0 3.77441,-1.71856 1.38127,-1.73462 1.38127,-5.13962 z"
       style="stroke-width:1"
       id="path4641" />
    <path
       d="m 474.26092,513.33859 q -0.85125,0.22486 -1.86311,0.36941 -0.9958,0.14456 -1.78281,0.14456 -2.74648,0 -4.17594,-1.47765 -1.42946,-1.47764 -1.42946,-4.73808 v -9.54043 h -2.03978 v -2.53768 h 2.03978 v -5.15569 h 3.01953 v 5.15569 h 6.23179 v 2.53768 h -6.23179 v 8.17521 q 0,1.4134 0.0643,2.21647 0.0642,0.787 0.44971,1.47764 0.35335,0.64245 0.96368,0.94761 0.62639,0.28911 1.89524,0.28911 0.73882,0 1.54188,-0.2088 0.80307,-0.22486 1.15642,-0.36941 h 0.16061 z"
       style="stroke-width:1"
       id="path4643" />
    <path
       d="m 180.98128,554.61618 h -3.00347 v -1.9113 q -0.40153,0.27304 -1.09217,0.77094 -0.67457,0.48184 -1.31703,0.77095 -0.75488,0.36941 -1.73462,0.61033 -0.97974,0.25698 -2.29677,0.25698 -2.42526,0 -4.11169,-1.60613 -1.68644,-1.60613 -1.68644,-4.09564 0,-2.03979 0.86731,-3.29257 0.88337,-1.26884 2.50556,-1.9916 1.63826,-0.72276 3.93503,-0.97974 2.29676,-0.25698 4.93082,-0.38547 v -0.46578 q 0,-1.02793 -0.36941,-1.7025 -0.35335,-0.67458 -1.02792,-1.06005 -0.64246,-0.36941 -1.54189,-0.4979 -0.89943,-0.12849 -1.87917,-0.12849 -1.18854,0 -2.65012,0.32123 -1.46158,0.30516 -3.01953,0.89943 h -0.16061 v -3.06771 q 0.88337,-0.24092 2.55375,-0.53002 1.67037,-0.28911 3.29257,-0.28911 1.89523,0 3.29257,0.32123 1.41339,0.30516 2.44132,1.06004 1.01186,0.73883 1.54188,1.9113 0.53003,1.17248 0.53003,2.9071 z m -3.00347,-4.41686 v -4.99507 q -1.38127,0.0803 -3.26045,0.24092 -1.86311,0.16061 -2.95528,0.46577 -1.30097,0.36941 -2.10403,1.15642 -0.80307,0.77094 -0.80307,2.13615 0,1.54189 0.93156,2.3289 0.93156,0.77094 2.84285,0.77094 1.59007,0 2.9071,-0.61033 1.31703,-0.62639 2.44132,-1.4937 z"
       style="stroke-width:1"
       id="path4645" />
    <path
       d="m 200.09424,553.49189 q -1.50976,0.72276 -2.87497,1.12429 -1.34915,0.40153 -2.87498,0.40153 -1.94342,0 -3.56561,-0.56214 -1.62219,-0.57821 -2.77861,-1.73463 -1.17247,-1.15641 -1.81493,-2.92316 -0.64245,-1.76674 -0.64245,-4.12776 0,-4.4008 2.4092,-6.90636 2.42526,-2.50557 6.3924,-2.50557 1.54189,0 3.01953,0.43366 1.4937,0.43365 2.73042,1.06005 v 3.35681 h -0.16061 q -1.38127,-1.07611 -2.85891,-1.65431 -1.46158,-0.57821 -2.85892,-0.57821 -2.56981,0 -4.06351,1.73462 -1.47764,1.71856 -1.47764,5.05931 0,3.24439 1.44552,4.99507 1.46158,1.73463 4.09563,1.73463 0.9155,0 1.86312,-0.24092 0.94761,-0.24092 1.70249,-0.62639 0.65852,-0.33729 1.23673,-0.7067 0.5782,-0.38547 0.91549,-0.65852 h 0.16061 z"
       style="stroke-width:1"
       id="path4647" />
    <path
       d="m 213.29665,554.45557 q -0.85125,0.22485 -1.86312,0.36941 -0.9958,0.14455 -1.7828,0.14455 -2.74649,0 -4.17594,-1.47764 -1.42946,-1.47764 -1.42946,-4.73809 v -9.54042 h -2.03979 v -2.53769 h 2.03979 V 531.52 h 3.01953 v 5.15569 h 6.23179 v 2.53769 h -6.23179 v 8.17521 q 0,1.41339 0.0642,2.21646 0.0643,0.787 0.44972,1.47764 0.35335,0.64245 0.96368,0.94762 0.62639,0.2891 1.89523,0.2891 0.73882,0 1.54189,-0.2088 0.80306,-0.22486 1.15641,-0.36941 h 0.16062 z"
       style="stroke-width:1"
       id="path4649" />
    <path
       d="m 231.83141,554.61618 h -3.01953 v -1.9916 q -1.52583,1.20459 -2.92316,1.84705 -1.39734,0.64245 -3.08378,0.64245 -2.82679,0 -4.4008,-1.71856 -1.57401,-1.73462 -1.57401,-5.07538 v -11.64445 h 3.01953 v 10.21499 q 0,1.36522 0.12849,2.34496 0.12849,0.96368 0.54609,1.65431 0.43365,0.7067 1.12429,1.02793 0.69064,0.32122 2.00766,0.32122 1.17248,0 2.55375,-0.61033 1.39734,-0.61033 2.60194,-1.55794 v -13.39514 h 3.01953 z"
       style="stroke-width:1"
       id="path4651" />
    <path
       d="m 251.71532,554.61618 h -3.00347 v -1.9113 q -0.40153,0.27304 -1.09217,0.77094 -0.67457,0.48184 -1.31703,0.77095 -0.75488,0.36941 -1.73462,0.61033 -0.97974,0.25698 -2.29677,0.25698 -2.42526,0 -4.1117,-1.60613 -1.68643,-1.60613 -1.68643,-4.09564 0,-2.03979 0.86731,-3.29257 0.88337,-1.26884 2.50556,-1.9916 1.63826,-0.72276 3.93503,-0.97974 2.29676,-0.25698 4.93082,-0.38547 v -0.46578 q 0,-1.02793 -0.36941,-1.7025 -0.35335,-0.67458 -1.02792,-1.06005 -0.64246,-0.36941 -1.54189,-0.4979 -0.89943,-0.12849 -1.87917,-0.12849 -1.18854,0 -2.65012,0.32123 -1.46158,0.30516 -3.01953,0.89943 h -0.16061 v -3.06771 q 0.88337,-0.24092 2.55375,-0.53002 1.67037,-0.28911 3.29257,-0.28911 1.89523,0 3.29257,0.32123 1.41339,0.30516 2.44132,1.06004 1.01186,0.73883 1.54188,1.9113 0.53003,1.17248 0.53003,2.9071 z m -3.00347,-4.41686 v -4.99507 q -1.38127,0.0803 -3.26045,0.24092 -1.86311,0.16061 -2.95528,0.46577 -1.30097,0.36941 -2.10403,1.15642 -0.80307,0.77094 -0.80307,2.13615 0,1.54189 0.93156,2.3289 0.93155,0.77094 2.84285,0.77094 1.59007,0 2.9071,-0.61033 1.31703,-0.62639 2.44132,-1.4937 z"
       style="stroke-width:1"
       id="path4653" />
    <path
       d="m 260.61329,554.61618 h -3.01953 v -24.99141 h 3.01953 z"
       style="stroke-width:1"
       id="path4655" />
    <path
       d="m 269.67187,554.61618 h -3.01952 v -24.99141 h 3.01952 z"
       style="stroke-width:1"
       id="path4657" />
    <path
       d="m 291.19403,536.67569 -10.47197,24.55775 h -3.22833 l 3.34075,-7.48457 -7.14728,-17.07318 h 3.27651 l 5.50903,13.29877 5.55722,-13.29877 z"
       style="stroke-width:1"
       id="path4659" />
    <path
       d="m 329.27542,536.67569 -4.67384,17.94049 h -2.79467 l -4.6096,-13.8288 -4.57747,13.8288 h -2.77861 l -4.72203,-17.94049 h 3.14802 l 3.29257,13.89304 4.48111,-13.89304 h 2.4895 l 4.59354,13.89304 3.1159,-13.89304 z"
       style="stroke-width:1"
       id="path4661" />
    <path
       d="M 348.64537,545.95913 H 335.4269 q 0,1.65431 0.4979,2.89104 0.49791,1.22066 1.36522,2.00766 0.83518,0.77094 1.97554,1.15642 1.15641,0.38547 2.53769,0.38547 1.83099,0 3.67804,-0.72276 1.86311,-0.73882 2.65012,-1.44552 h 0.16061 v 3.29257 q -1.52583,0.64245 -3.1159,1.07611 -1.59007,0.43365 -3.34075,0.43365 -4.46505,0 -6.97061,-2.40919 -2.50557,-2.42526 -2.50557,-6.87425 0,-4.4008 2.39314,-6.98667 2.4092,-2.58587 6.32816,-2.58587 3.62986,0 5.58934,2.12009 1.97554,2.12009 1.97554,6.02299 z m -2.93922,-2.31283 q -0.0161,-2.37708 -1.2046,-3.67804 -1.17248,-1.30097 -3.58168,-1.30097 -2.42525,0 -3.87077,1.42946 -1.42946,1.42946 -1.6222,3.54955 z"
       style="stroke-width:1"
       id="path4663" />
    <path
       d="m 367.16406,554.61618 h -3.00346 v -1.9113 q -0.40154,0.27304 -1.09217,0.77094 -0.67458,0.48184 -1.31703,0.77095 -0.75488,0.36941 -1.73462,0.61033 -0.97974,0.25698 -2.29677,0.25698 -2.42526,0 -4.1117,-1.60613 -1.68644,-1.60613 -1.68644,-4.09564 0,-2.03979 0.86731,-3.29257 0.88338,-1.26884 2.50557,-1.9916 1.63825,-0.72276 3.93502,-0.97974 2.29677,-0.25698 4.93083,-0.38547 v -0.46578 q 0,-1.02793 -0.36941,-1.7025 -0.35335,-0.67458 -1.02793,-1.06005 -0.64245,-0.36941 -1.54189,-0.4979 -0.89943,-0.12849 -1.87917,-0.12849 -1.18854,0 -2.65012,0.32123 -1.46158,0.30516 -3.01952,0.89943 h -0.16062 v -3.06771 q 0.88338,-0.24092 2.55375,-0.53002 1.67038,-0.28911 3.29257,-0.28911 1.89524,0 3.29257,0.32123 1.4134,0.30516 2.44132,1.06004 1.01187,0.73883 1.54189,1.9113 0.53002,1.17248 0.53002,2.9071 z m -3.00346,-4.41686 v -4.99507 q -1.38128,0.0803 -3.26045,0.24092 -1.86311,0.16061 -2.95528,0.46577 -1.30097,0.36941 -2.10404,1.15642 -0.80306,0.77094 -0.80306,2.13615 0,1.54189 0.93155,2.3289 0.93156,0.77094 2.84286,0.77094 1.59007,0 2.9071,-0.61033 1.31702,-0.62639 2.44132,-1.4937 z"
       style="stroke-width:1"
       id="path4665" />
    <path
       d="m 384.20513,539.96826 h -0.16061 q -0.67458,-0.16062 -1.31703,-0.22486 -0.62639,-0.0803 -1.4937,-0.0803 -1.39734,0 -2.69831,0.62639 -1.30096,0.61033 -2.50556,1.59007 v 12.73663 h -3.01953 V 536.6757 h 3.01953 v 2.65011 q 1.79887,-1.44551 3.16408,-2.03978 1.38127,-0.61033 2.81073,-0.61033 0.787,0 1.14035,0.0482 0.35335,0.0321 1.06005,0.14455 z"
       style="stroke-width:1"
       id="path4667" />
    <path
       d="M 412.58546,554.61618 H 409.582 v -1.9113 q -0.40153,0.27304 -1.09217,0.77094 -0.67458,0.48184 -1.31703,0.77095 -0.75488,0.36941 -1.73462,0.61033 -0.97974,0.25698 -2.29677,0.25698 -2.42526,0 -4.1117,-1.60613 -1.68644,-1.60613 -1.68644,-4.09564 0,-2.03979 0.86732,-3.29257 0.88337,-1.26884 2.50556,-1.9916 1.63826,-0.72276 3.93502,-0.97974 2.29677,-0.25698 4.93083,-0.38547 v -0.46578 q 0,-1.02793 -0.36941,-1.7025 -0.35335,-0.67458 -1.02793,-1.06005 -0.64245,-0.36941 -1.54188,-0.4979 -0.89944,-0.12849 -1.87918,-0.12849 -1.18853,0 -2.65011,0.32123 -1.46158,0.30516 -3.01953,0.89943 h -0.16062 v -3.06771 q 0.88338,-0.24092 2.55375,-0.53002 1.67038,-0.28911 3.29257,-0.28911 1.89524,0 3.29257,0.32123 1.4134,0.30516 2.44132,1.06004 1.01187,0.73883 1.54189,1.9113 0.53002,1.17248 0.53002,2.9071 z m -3.00346,-4.41686 v -4.99507 q -1.38128,0.0803 -3.26045,0.24092 -1.86311,0.16061 -2.95528,0.46577 -1.30097,0.36941 -2.10403,1.15642 -0.80307,0.77094 -0.80307,2.13615 0,1.54189 0.93156,2.3289 0.93155,0.77094 2.84285,0.77094 1.59007,0 2.9071,-0.61033 1.31703,-0.62639 2.44132,-1.4937 z"
       style="stroke-width:1"
       id="path4669" />
    <path
       d="m 439.31149,554.45557 q -0.85125,0.22485 -1.86311,0.36941 -0.9958,0.14455 -1.78281,0.14455 -2.74648,0 -4.17594,-1.47764 -1.42946,-1.47764 -1.42946,-4.73809 v -9.54042 h -2.03979 v -2.53769 h 2.03979 V 531.52 h 3.01953 v 5.15569 h 6.23179 v 2.53769 h -6.23179 v 8.17521 q 0,1.41339 0.0642,2.21646 0.0643,0.787 0.44972,1.47764 0.35335,0.64245 0.96368,0.94762 0.62639,0.2891 1.89524,0.2891 0.73882,0 1.54188,-0.2088 0.80307,-0.22486 1.15642,-0.36941 h 0.16061 z"
       style="stroke-width:1"
       id="path4671" />
    <path
       d="m 446.21785,533.67222 h -3.405 v -3.13196 h 3.405 z m -0.19274,20.94396 h -3.01952 v -17.94049 h 3.01952 z"
       style="stroke-width:1"
       id="path4673" />
    <path
       d="m 467.04939,545.95913 h -13.21846 q 0,1.65431 0.4979,2.89104 0.4979,1.22066 1.36521,2.00766 0.83519,0.77094 1.97554,1.15642 1.15642,0.38547 2.53769,0.38547 1.83099,0 3.67804,-0.72276 1.86311,-0.73882 2.65012,-1.44552 h 0.16061 v 3.29257 q -1.52582,0.64245 -3.11589,1.07611 -1.59007,0.43365 -3.34076,0.43365 -4.46504,0 -6.97061,-2.40919 -2.50557,-2.42526 -2.50557,-6.87425 0,-4.4008 2.39314,-6.98667 2.4092,-2.58587 6.32816,-2.58587 3.62986,0 5.58934,2.12009 1.97554,2.12009 1.97554,6.02299 z m -2.93922,-2.31283 q -0.0161,-2.37708 -1.2046,-3.67804 -1.17248,-1.30097 -3.58167,-1.30097 -2.42526,0 -3.87078,1.42946 -1.42946,1.42946 -1.62219,3.54955 z"
       style="stroke-width:1"
       id="path4675" />
  </g>
</svg>
