<?xml version="1.0" encoding="UTF-8" standalone="no"?>
<svg
   xmlns:dc="http://purl.org/dc/elements/1.1/"
   xmlns:cc="http://creativecommons.org/ns#"
   xmlns:rdf="http://www.w3.org/1999/02/22-rdf-syntax-ns#"
   xmlns:svg="http://www.w3.org/2000/svg"
   xmlns="http://www.w3.org/2000/svg"
   xmlns:xlink="http://www.w3.org/1999/xlink"
   version="1.1"
   id="svg2"
   xml:space="preserve"
   width="640"
   height="640"
   viewBox="0 0 640 640"><metadata
     id="metadata8"><rdf:RDF><cc:Work
         rdf:about=""><dc:format>image/svg+xml</dc:format><dc:type
           rdf:resource="http://purl.org/dc/dcmitype/StillImage" /><dc:title></dc:title></cc:Work></rdf:RDF></metadata><defs
     id="defs6"><clipPath
       clipPathUnits="userSpaceOnUse"
       id="clipPath20"><path
         d="M 0,0 V 2091 H 5010 V 0 Z"
         id="path18" /></clipPath><clipPath
       clipPathUnits="userSpaceOnUse"
       id="clipPath26"><path
         d="m 4980.41,1639.73 c 0,0 -29.18,204.85 -118.71,295.06 -113.54,118.39 -240.84,118.99 -299.2,125.91 -417.85,30.07 -1044.65,30.07 -1044.65,30.07 h -1.31 c 0,0 -626.81,0 -1044.66,-30.07 -58.38,-6.92 -185.63,-7.52 -299.2,-125.91 -89.54,-90.21 -118.68,-295.06 -118.68,-295.06 0,0 -29.86,-240.55 -29.86,-481.12 V 933.082 c 0,-240.543 29.86,-481.094 29.86,-481.094 0,0 29.14,-204.84 118.68,-295.058 C 2286.25,38.5117 2435.49,42.2813 2501.93,29.8789 2740.82,7.05078 3517.19,0 3517.19,0 c 0,0 627.46,0.941406 1045.31,30.9883 58.36,6.9414 185.66,7.5234 299.2,125.9417 89.53,90.218 118.71,295.058 118.71,295.058 0,0 29.82,240.551 29.82,481.094 v 225.528 c 0,240.57 -29.82,481.12 -29.82,481.12 z"
         id="path24" /></clipPath><linearGradient
       x1="0"
       y1="0"
       x2="1"
       y2="0"
       gradientUnits="userSpaceOnUse"
       gradientTransform="matrix(-9.14e-5,-2090.78,-2090.78,9.14e-5,3329.69,2262.1986)"
       spreadMethod="pad"
       id="linearGradient32"><stop
         style="stop-opacity:1;stop-color:#e42526"
         offset="0"
         id="stop28" /><stop
         style="stop-opacity:1;stop-color:#be1f26"
         offset="1"
         id="stop30" /></linearGradient><linearGradient
       xlink:href="#linearGradient32"
       id="linearGradient4244"
       x1="-134.07793"
       y1="654.93365"
       x2="-89.038963"
       y2="738.38818"
       gradientUnits="userSpaceOnUse"
       gradientTransform="matrix(5.2705883,0,0,5.2705883,884.70594,-3336.6857)" /></defs><g
     transform="matrix(0.21333334,0,0,-0.21333334,-1085.6318,959.51445)"
     id="g14"
     style="stroke-width:0.625"><g
       clip-path="url(#clipPath20)"
       id="g16"
       style="stroke-width:0.625"><g
         clip-path="url(#clipPath26)"
         id="g22"
         style="stroke-width:0.625" /></g></g><circle
     r="256"
     cy="320"
     cx="320"
     id="path4236"
     style="opacity:1;fill:#f1511b;fill-opacity:1;fill-rule:nonzero;stroke:none;stroke-width:10.18181801;stroke-linecap:round;stroke-linejoin:miter;stroke-miterlimit:4;stroke-dasharray:none;stroke-dashoffset:0;stroke-opacity:1" /><path
     d="m 211.66131,188.94318 h 40.32115 l 51.89084,104.58557 c 7.58412,15.56855 13.97141,30.73887 13.97141,30.73887 0,0 6.79022,-14.76935 14.76936,-30.73887 L 385.31145,188.94318 H 422.8359 L 333.81094,356.20667 V 462.79039 H 299.88508 V 354.20856 L 211.66131,188.94318"
     style="fill:#ffffff;fill-opacity:1;fill-rule:nonzero;stroke:none;stroke-width:0.13333333"
     id="path16" /></svg>