<?xml version="1.0" encoding="UTF-8" standalone="no"?>
<svg
   xmlns:dc="http://purl.org/dc/elements/1.1/"
   xmlns:cc="http://creativecommons.org/ns#"
   xmlns:rdf="http://www.w3.org/1999/02/22-rdf-syntax-ns#"
   xmlns:svg="http://www.w3.org/2000/svg"
   xmlns="http://www.w3.org/2000/svg"
   viewBox="0 0 640 640"
   version="1.1"
   id="svg12"
   width="640"
   height="640">
  <metadata
     id="metadata18">
    <rdf:RDF>
      <cc:Work
         rdf:about="">
        <dc:format>image/svg+xml</dc:format>
        <dc:type
           rdf:resource="http://purl.org/dc/dcmitype/StillImage" />
        <dc:title>HTML5 Logo Badge</dc:title>
      </cc:Work>
    </rdf:RDF>
  </metadata>
  <defs
     id="defs16" />
  <title
     id="title2">HTML5 Logo Badge</title>
  <g
     id="g836"
     transform="matrix(0.86530874,0,0,0.86530874,98.913619,15.721448)"
     style="stroke-width:1.15565693">
    <path
       style="fill:#e34f26;stroke-width:1.15565693"
       id="path4"
       d="M 71,588 30,128 h 451 l -41,460 -185,52" />
    <path
       style="fill:#ef652a;stroke-width:1.15565693"
       id="path6"
       d="M 256,600 405,559 440,165 H 256" />
    <path
       style="fill:#ebebeb;stroke-width:1.15565693"
       id="path8"
       d="m 256,336 h -75 l -5,-58 h 80 v -56 h -1 -141 l 1,15 14,156 h 127 z m 0,147 h -1 l -63,-17 -4,-45 h -30 -26 l 7,89 116,32 h 1 z" />
    <path
       style="fill:#ffffff;stroke-width:1.15565693"
       id="path10"
       d="m 255,336 v 57 h 70 l -7,73 -63,17 v 59 l 116,-32 1,-10 13,-149 2,-15 h -16 z m 0,-114 v 35 21 0 h 137 v 0 0 l 1,-12 3,-29 1,-15 z" />
  </g>
</svg>
