<?xml version="1.0" encoding="UTF-8" standalone="no"?>
<svg
   xmlns:dc="http://purl.org/dc/elements/1.1/"
   xmlns:cc="http://creativecommons.org/ns#"
   xmlns:rdf="http://www.w3.org/1999/02/22-rdf-syntax-ns#"
   xmlns:svg="http://www.w3.org/2000/svg"
   xmlns="http://www.w3.org/2000/svg"
   viewBox="0 0 640 640"
   height="640"
   width="640"
   xml:space="preserve"
   id="svg1521"
   version="1.1"><metadata
     id="metadata1527"><rdf:RDF><cc:Work
         rdf:about=""><dc:format>image/svg+xml</dc:format><dc:type
           rdf:resource="http://purl.org/dc/dcmitype/StillImage" /><dc:title></dc:title></cc:Work></rdf:RDF></metadata><defs
     id="defs1525" /><rect
     style="opacity:1;fill:#ffffff;fill-opacity:1;stroke:none;stroke-width:5;stroke-linecap:round;stroke-linejoin:round;stroke-miterlimit:4;stroke-dasharray:none;stroke-dashoffset:0;stroke-opacity:1"
     id="rect887"
     width="640"
     height="640"
     x="0"
     y="1.8170605e-005" /><path
     style="fill:#000000;fill-opacity:1;fill-rule:nonzero;stroke:none;stroke-width:1.33333325"
     d="M 154.14648 144.09375 L 93.835938 234.56055 L 108.91211 244.61133 L 169.22266 154.14453 L 154.14648 144.09375 z M 176.76172 159.16992 L 116.45117 249.63672 L 131.5293 259.68945 L 191.8418 169.22266 L 176.76172 159.16992 z M 199.38086 174.25 L 139.06836 264.71484 L 154.14648 274.76758 L 214.45703 184.30078 L 199.38086 174.25 z "
     id="path1535" /><path
     style="fill:#000000;fill-opacity:1;fill-rule:nonzero;stroke:none;stroke-width:1.33333325"
     d="M 485.85352 365.23242 L 458.21094 406.69531 L 473.29102 416.74805 L 500.93359 375.28516 L 485.85352 365.23242 z M 508.4707 380.31055 L 480.83008 421.77539 L 495.9043 431.82617 L 523.54688 390.36133 L 508.4707 380.31055 z M 531.08594 395.38672 L 503.44336 436.85156 L 518.52148 446.9043 L 546.16406 405.43945 L 531.08594 395.38672 z M 453.18555 414.23438 L 425.54297 455.69922 L 440.62109 465.75195 L 468.26367 424.28711 L 453.18555 414.23438 z M 475.80273 429.31445 L 448.16016 470.77734 L 463.23633 480.82812 L 490.87891 439.36523 L 475.80273 429.31445 z M 498.41797 444.39062 L 470.77539 485.85352 L 485.85352 495.90625 L 513.49609 454.44336 L 498.41797 444.39062 z "
     id="path1547" /><path
     id="path1571"
     style="fill:#c60c30;fill-opacity:1;fill-rule:nonzero;stroke:none;stroke-width:1.33333325"
     d="m 229.53457,259.68949 c 33.30723,-49.96193 100.81325,-63.46357 150.77518,-30.15416 49.96411,33.30723 63.46357,100.81324 30.15634,150.77518 -33.3094,49.9641 -100.81325,63.46357 -150.77735,30.15634 C 209.7268,377.15744 196.22517,309.6536 229.53457,259.68949" /><path
     id="path1575"
     style="fill:#003478;fill-opacity:1;fill-rule:nonzero;stroke:none;stroke-width:1.33333325"
     d="m 229.53457,259.68949 c -16.6547,24.98097 -9.90497,58.73398 15.07817,75.38868 24.98097,16.6547 58.73398,9.9028 75.38868,-15.07817 16.65253,-24.98097 50.40553,-31.7307 75.3865,-15.07817 24.98097,16.6547 31.73287,50.40771 15.07817,75.38868 -33.3094,49.9641 -100.81325,63.46357 -150.77735,30.15634 C 209.7268,377.15744 196.22517,309.6536 229.53457,259.68949" /><path
     style="fill:#000000;fill-opacity:1;fill-rule:nonzero;stroke:none;stroke-width:1.33333325"
     d="M 154.14648 365.23438 L 139.06836 375.28711 L 166.71094 416.74805 L 171.73828 424.28711 L 199.38086 465.75 L 214.45703 455.69922 L 154.14648 365.23438 z M 131.52734 380.3125 L 116.45312 390.36133 L 144.0957 431.82617 L 159.17188 421.77539 L 131.52734 380.3125 z M 108.91406 395.38672 L 93.835938 405.43945 L 154.14648 495.90625 L 169.22461 485.85352 L 141.58203 444.39062 L 136.55664 436.85156 L 108.91406 395.38672 z M 164.19727 429.31445 L 149.12109 439.36523 L 176.76367 480.82812 L 191.83984 470.77734 L 164.19727 429.31445 z "
     id="path1579" /><path
     style="fill:#000000;fill-opacity:1;fill-rule:nonzero;stroke:none;stroke-width:1.33333325"
     d="M 485.85352 144.0957 L 470.77539 154.14844 L 498.41797 195.60938 L 513.49609 185.55859 L 485.85352 144.0957 z M 463.23828 159.17188 L 448.16016 169.22461 L 475.80273 210.6875 L 490.88086 200.63477 L 463.23828 159.17188 z M 440.61914 174.25 L 425.54297 184.30078 L 453.18555 225.76562 L 468.26367 215.71484 L 440.61914 174.25 z M 518.52148 193.09766 L 503.44531 203.14844 L 531.08789 244.61133 L 546.16406 234.56055 L 518.52148 193.09766 z M 495.90625 208.17383 L 480.82812 218.22656 L 508.4707 259.68945 L 523.54883 249.63672 L 495.90625 208.17383 z M 473.28906 223.25391 L 458.21094 233.30469 L 485.85352 274.76758 L 500.93164 264.71484 L 473.28906 223.25391 z "
     id="path1591" /><path
     id="path1607"
     style="fill:#000000;fill-opacity:1;fill-rule:nonzero;stroke:none;stroke-width:1.33333325"
     d="m 483.34123,221.99559 -10.05284,-15.07817 15.07817,-10.05066 10.05284,15.07817 z" /></svg>