<?xml version="1.0" encoding="UTF-8" standalone="no"?>
<svg
   xmlns:dc="http://purl.org/dc/elements/1.1/"
   xmlns:cc="http://creativecommons.org/ns#"
   xmlns:rdf="http://www.w3.org/1999/02/22-rdf-syntax-ns#"
   xmlns:svg="http://www.w3.org/2000/svg"
   xmlns="http://www.w3.org/2000/svg"
   width="640"
   height="640"
   id="svg2"
   version="1.1">
  <defs
     id="defs4" />
  <metadata
     id="metadata7">
    <rdf:RDF>
      <cc:Work
         rdf:about="">
        <dc:format>image/svg+xml</dc:format>
        <dc:type
           rdf:resource="http://purl.org/dc/dcmitype/StillImage" />
        <dc:title></dc:title>
      </cc:Work>
    </rdf:RDF>
  </metadata>
  <g
     id="layer1"
     transform="translate(0,-412.36218)">
    <g
       id="g861"
       transform="matrix(0.36625594,0,0,0.36625594,591.52422,855.26191)">
      <path
         d="m -1100.1269,-206.10795 c 0,64.15576 -51.995,116.107737 -116.1507,116.107737 -64.1128,0 -116.0648,-51.951977 -116.0648,-116.107737 0,-64.15576 51.952,-116.15071 116.0648,-116.15071 64.1557,0 116.1507,51.99495 116.1507,116.15071"
         id="path50"
         style="fill:#ffffff;fill-opacity:1;fill-rule:nonzero;stroke:none" />
      <path
         d="m -1100.1269,-206.10795 c 0,64.15576 -51.995,116.107737 -116.1507,116.107737 -64.1128,0 -116.0648,-51.951977 -116.0648,-116.107737 0,-64.15576 51.952,-116.15071 116.0648,-116.15071 64.1557,0 116.1507,51.99495 116.1507,116.15071 z"
         id="path54"
         style="fill:none;stroke:#000000;stroke-width:47.26813889;stroke-linecap:butt;stroke-linejoin:miter;stroke-miterlimit:4;stroke-dasharray:none;stroke-opacity:1" />
      <path
         d="m -150.35964,-206.10795 c 0,64.15576 -51.99495,116.107737 -116.15071,116.107737 -64.11278,0 -116.06476,-51.951977 -116.06476,-116.107737 0,-64.15576 51.95198,-116.15071 116.06476,-116.15071 64.15576,0 116.15071,51.99495 116.15071,116.15071"
         id="path58"
         style="fill:#ffffff;fill-opacity:1;fill-rule:nonzero;stroke:none" />
      <path
         d="m -150.35964,-206.10795 c 0,64.15576 -51.99495,116.107737 -116.15071,116.107737 -64.11278,0 -116.06476,-51.951977 -116.06476,-116.107737 0,-64.15576 51.95198,-116.15071 116.06476,-116.15071 64.15576,0 116.15071,51.99495 116.15071,116.15071 z"
         id="path62"
         style="fill:none;stroke:#000000;stroke-width:47.26813889;stroke-linecap:butt;stroke-linejoin:miter;stroke-miterlimit:4;stroke-dasharray:none;stroke-opacity:1" />
      <path
         d="m -217.98315,-46.414694 c 0,189.545234 -235.4383,343.166684 -525.9225,343.166684 -290.44125,0 -525.87955,-153.62145 -525.87955,-343.166684 0,-189.545236 235.4383,-343.209656 525.87955,-343.209656 290.4842,0 525.9225,153.66442 525.9225,343.209656"
         id="path94"
         style="fill:#ffffff;fill-opacity:1;fill-rule:nonzero;stroke:none" />
      <path
         d="m -217.98315,-46.414694 c 0,189.545234 -235.4383,343.166684 -525.9225,343.166684 -290.44125,0 -525.87955,-153.62145 -525.87955,-343.166684 0,-189.545236 235.4383,-343.209656 525.87955,-343.209656 290.4842,0 525.9225,153.66442 525.9225,343.209656 z"
         id="path98"
         style="fill:none;stroke:#000000;stroke-width:47.26813889;stroke-linecap:butt;stroke-linejoin:miter;stroke-miterlimit:4;stroke-dasharray:none;stroke-opacity:1" />
      <path
         d="m -865.00662,-113.41083 c 0,33.947118 -27.54443,61.44858 -61.44858,61.44858 -33.99009,0 -61.49155,-27.501462 -61.49155,-61.44858 0,-33.99009 27.50146,-61.49155 61.49155,-61.49155 33.90415,0 61.44858,27.50146 61.44858,61.49155"
         id="path158"
         style="fill:#ff4500;fill-opacity:1;fill-rule:nonzero;stroke:none" />
      <path
         d="m -865.00662,-113.41083 c 0,33.947118 -27.54443,61.44858 -61.44858,61.44858 -33.99009,0 -61.49155,-27.501462 -61.49155,-61.44858 0,-33.99009 27.50146,-61.49155 61.49155,-61.49155 33.90415,0 61.44858,27.50146 61.44858,61.49155 z"
         id="path162"
         style="fill:none;stroke:#ff4500;stroke-width:47.26813889;stroke-linecap:butt;stroke-linejoin:miter;stroke-miterlimit:4;stroke-dasharray:none;stroke-opacity:1" />
      <path
         d="m -494.48458,-113.41083 c 0,33.947118 -27.50146,61.44858 -61.44858,61.44858 -33.90415,0 -61.44858,-27.501462 -61.44858,-61.44858 0,-33.99009 27.54443,-61.49155 61.44858,-61.49155 33.94712,0 61.44858,27.50146 61.44858,61.49155"
         id="path166"
         style="fill:#ff4500;fill-opacity:1;fill-rule:nonzero;stroke:none" />
      <path
         d="m -494.48458,-113.41083 c 0,33.947118 -27.50146,61.44858 -61.44858,61.44858 -33.90415,0 -61.44858,-27.501462 -61.44858,-61.44858 0,-33.99009 27.54443,-61.49155 61.44858,-61.49155 33.94712,0 61.44858,27.50146 61.44858,61.49155 z"
         id="path170"
         style="fill:none;stroke:#ff4500;stroke-width:47.26813889;stroke-linecap:butt;stroke-linejoin:miter;stroke-miterlimit:4;stroke-dasharray:none;stroke-opacity:1" />
      <path
         d="m -923.01752,111.55542 c 45.80712,45.80712 119.7173,54.61619 180.994,54.61619"
         id="path174"
         style="fill:none;stroke:#000000;stroke-width:47.26813889;stroke-linecap:round;stroke-linejoin:miter;stroke-miterlimit:4;stroke-dasharray:none;stroke-opacity:1" />
      <path
         d="m -559.69742,111.55542 c -45.85009,45.80712 -119.67433,54.61619 -180.994,54.61619"
         id="path178"
         style="fill:none;stroke:#000000;stroke-width:47.26813889;stroke-linecap:round;stroke-linejoin:miter;stroke-miterlimit:4;stroke-dasharray:none;stroke-opacity:1" />
      <path
         id="path4278"
         d="m -1080.5312,-310.1875 c 171.46588,40.04446 350.01019,37.52668 524.29849,18.61948 45.51084,-4.69702 90.82631,-11.26252 135.85771,-19.55698 -110.78125,-192.91667 -211.26799,-385.83333 -322.04924,-578.75 -109.27083,193.22917 -228.83618,386.45833 -338.10696,579.6875 z"
         style="fill:#3b8fee;fill-opacity:1;stroke:#000000;stroke-width:0.61913401px;stroke-linecap:butt;stroke-linejoin:miter;stroke-opacity:1" />
      <path
         id="rect4330"
         d="m -663.49892,-843.94181 -193.3125,62.90625 -54.4375,96.25 285.75,-93.03125 z"
         style="fill:#52e5ff;fill-opacity:1;stroke:none" />
      <path
         id="rect4332"
         d="m -596.2597,-726.08297 -365.28125,118.875 -54.46865,96.25 457.7499,-148.96875 z"
         style="fill:#52e5ff;fill-opacity:1;stroke:none" />
      <path
         id="rect4334"
         d="m -522.07004,-593.73707 -556.31256,181.09375 -54.3437,96 c 1.182,-0.25696 2.3554,-0.55477 3.5313,-0.9375 l 645.12496,-210 z"
         style="fill:#52e5ff;fill-opacity:1;stroke:none" />
      <path
         id="rect4336"
         d="m -448.46875,-460.25 -575.75005,187.375 c -10.7508,3.49921 -18.6834,11.57163 -22.375,21.34375 46.69476,8.92371 94.11093,14.88881 141.12505,18.53125 l 495,-161.09375 z"
         style="fill:#52e5ff;fill-opacity:1;stroke:none" />
      <path
         id="path3506"
         d="m -742.42424,-990.875 -413.79456,712.0625 c 356.27376,111.76048 813.81255,3.1875 813.81255,3.1875 z m 0,101 322.04924,578.75 c -45.0314,8.29446 -90.33291,14.86548 -135.84375,19.5625 -174.2883,18.9072 -352.84662,21.41946 -524.31245,-18.625 109.27073,-193.22917 228.83613,-386.45833 338.10696,-579.6875 z"
         style="fill:#000000;fill-opacity:1;stroke:#000000;stroke-width:0.61913401px;stroke-linecap:butt;stroke-linejoin:miter;stroke-opacity:1" />
    </g>
  </g>
</svg>
