<?xml version="1.0" encoding="UTF-8" standalone="no"?>
<svg
   xmlns:dc="http://purl.org/dc/elements/1.1/"
   xmlns:cc="http://creativecommons.org/ns#"
   xmlns:rdf="http://www.w3.org/1999/02/22-rdf-syntax-ns#"
   xmlns:svg="http://www.w3.org/2000/svg"
   xmlns="http://www.w3.org/2000/svg"
   xmlns:sodipodi="http://sodipodi.sourceforge.net/DTD/sodipodi-0.dtd"
   xmlns:inkscape="http://www.inkscape.org/namespaces/inkscape"
   version="1.1"
   id="svg1521"
   xml:space="preserve"
   width="640"
   height="640"
   viewBox="0 0 640 640"
   sodipodi:docname="writing.svg"
   inkscape:version="0.92.3 (2405546, 2018-03-11)"
   inkscape:export-filename="D:\Git\voussoir.net\voussoir.net\cv\writing.png"
   inkscape:export-xdpi="29.4"
   inkscape:export-ydpi="29.4"><sodipodi:namedview
     pagecolor="#ffffff"
     bordercolor="#666666"
     borderopacity="1"
     objecttolerance="10"
     gridtolerance="10"
     guidetolerance="10"
     inkscape:pageopacity="0"
     inkscape:pageshadow="2"
     inkscape:window-width="1920"
     inkscape:window-height="1019"
     id="namedview8"
     showgrid="false"
     inkscape:pagecheckerboard="true"
     inkscape:zoom="1"
     inkscape:cx="343.79675"
     inkscape:cy="331.06932"
     inkscape:window-x="-8"
     inkscape:window-y="-8"
     inkscape:window-maximized="1"
     inkscape:current-layer="svg1521" /><metadata
     id="metadata1527"><rdf:RDF><cc:Work
         rdf:about=""><dc:format>image/svg+xml</dc:format><dc:type
           rdf:resource="http://purl.org/dc/dcmitype/StillImage" /><dc:title /></cc:Work></rdf:RDF></metadata><defs
     id="defs1525" /><path
     style="opacity:1;fill:#000000;fill-opacity:1;stroke:none;stroke-width:20;stroke-linecap:butt;stroke-linejoin:miter;stroke-miterlimit:4;stroke-dasharray:none;stroke-dashoffset:0;stroke-opacity:1;paint-order:markers stroke fill"
     d="m 140.78125,159.70312 c -11.71528,0.0284 -20.83921,7.38532 -29.85352,14.86719 -1.73238,1.43788 -2.61611,3.66541 -3.92382,5.49805 -5.74821,9.07458 -9.603688,19.18095 -11.794926,29.68555 -1.383469,6.63223 -1.773163,11.84506 -2.5,18.58984 -0.01305,3.41654 -0.366449,6.84916 -0.03906,10.25 0.385611,4.00566 1.443975,7.91684 2.169922,11.875 0.791522,4.31569 1.589699,8.62991 2.382812,12.94531 2.476597,13.4754 5.213962,26.84424 8.187502,40.21875 1.53006,4.66733 2.99776,9.35542 4.58984,14.00196 1.73717,5.07 3.75773,10.04382 5.39648,15.14648 0.70034,2.18069 1.37028,4.37019 2.01954,6.56641 -1.67487,0.60762 -3.34646,1.22293 -5.01172,1.85742 -3.29833,1.18633 -6.61841,2.31067 -9.91211,3.50976 -1.55415,0.56579 -3.180759,0.98266 -4.638672,1.76368 -9.149452,4.90146 -17.59348,9.09096 -24.796875,16.27343 -2.313549,3.05723 -3.52476,4.16666 -4.816407,7.86719 -2.046554,5.86331 -0.933503,12.01545 1.511719,17.53125 2.048418,3.76888 2.639833,5.17975 5.294922,8.68359 4.972881,6.56256 11.33717,11.89891 17.335937,17.46875 9.473026,8.03363 19.249986,15.6929 29.044916,23.32813 6.33696,4.93314 12.38007,10.3212 19.32422,14.4043 6.95079,-3.41952 14.51684,-5.80132 20.85157,-10.25977 1.27039,-0.8941 0.39997,-3.09653 0.33007,-4.64844 -0.20395,-4.52736 -3.32975,-8.19404 -5.30273,-12.03906 -6.91658,-13.09708 -13.26236,-26.49055 -19.31641,-40.00586 -4.62246,-10.53429 -9.06937,-21.1229 -12.92383,-31.95703 0.56509,-0.20783 1.13336,-0.4083 1.69727,-0.61914 16.27687,-6.08581 -4.77147,1.48829 10.92578,-4.10938 4.26575,-1.33522 8.55118,-2.58748 12.89063,-3.6582 0.0107,-0.003 5.59193,-1.33665 5.79101,-1.43555 5.12072,-2.54404 10.11772,-5.32811 15.14649,-8.05078 0.67873,-0.18638 1.35612,-0.37717 2.03515,-0.5625 10.07569,-2.79906 20.05597,-5.91323 30.00977,-9.11523 1.19109,-0.39742 2.37793,-0.80619 3.5664,-1.21094 -1.71408,4.28375 -3.23883,8.65246 -4.76562,13 -3.74972,11.13364 -6.70411,22.4996 -9.42383,33.91992 -1.05063,5.05486 -1.88667,10.13688 -2.63672,15.24219 -0.0118,0.0801 -1.17488,7.68002 -1.20898,8.07031 -0.1086,1.2418 -0.0664,2.4922 -0.0996,3.73828 0.10221,2.68468 -0.036,4.00641 0.83398,6.60547 0.73668,2.20081 3.59593,7.81297 6.55469,7.05664 20.49754,-5.23966 19.28881,-3.87628 21.61524,-13.9375 2.03721,-8.35042 3.21305,-16.89031 4.51171,-25.38086 1.8082,-13.05288 3.77548,-26.08074 5.8125,-39.09961 0.7267,-4.51263 1.40751,-9.03713 2.17188,-13.54687 0.9221,-1.37153 2.9375,-3.99805 2.9375,-3.99805 3.51109,-2.95362 6.96779,-5.93652 11.96875,-8.08789 0,0 0.5609,0.34517 0.85351,0.5 1.10331,0.58379 2.28728,0.99761 3.43165,1.4961 6.65923,2.43328 13.67541,1.76719 20.20898,-0.77539 1.42525,-0.55464 2.78615,-1.26051 4.17969,-1.89063 5.79503,-3.4053 11.71652,-6.60243 17.38476,-10.21484 1.35324,-0.86243 2.4366,-2.0893 3.6211,-3.17188 5.34727,-4.88713 9.13938,-9.90984 13.13867,-15.90625 3.46996,-5.53454 6.54466,-11.29306 8.95508,-17.3418 1.40568,2.58588 2.78691,5.18587 4.15625,7.78711 7.00347,13.31343 12.8421,27.23451 17.68945,41.47266 1.07492,3.15735 2.02444,6.3573 3.03711,9.53516 3.71191,12.54871 6.36458,25.43402 7.72266,38.45507 0.78083,7.48645 0.73876,9.81266 0.99414,17.20899 -0.0646,1.62454 -0.14366,3.25436 -0.24414,4.88281 -9.21203,-1.96297 -17.96087,-5.84249 -26.2461,-10.22265 -1.74158,-1.02181 -3.51405,-1.99153 -5.22461,-3.06446 -6.92353,-4.34268 -13.41956,-9.34147 -20.3457,-13.68164 -0.91114,-0.49186 -6.85698,-3.96962 -7.98828,-3.41797 -6.77816,3.30515 -13.17729,7.59012 -18.71485,12.70899 -1.47535,1.3638 0.4313,7.32341 1.03711,8.6582 0.54022,1.19026 1.38175,2.2183 2.07227,3.32813 1.19173,1.56242 4.21254,5.58345 5.43359,6.92382 1.13237,1.24302 2.39142,2.36398 3.60547,3.52735 4.22388,4.04753 8.69113,7.79134 13.21875,11.49414 9.15754,7.22383 18.64339,14.17129 29.2793,19.08789 4.38724,1.9445 8.70967,3.89711 13.57422,4.27734 9.85836,0.77055 19.91377,-6.02449 24.10742,-14.86523 0.45911,-1.37546 1.02681,-2.7198 1.37695,-4.12695 0.43711,-1.75663 0.7329,-3.52857 0.92578,-5.31055 5.04914,-0.74385 9.98089,-2.16306 14.55469,-4.54492 5.81888,-3.03026 11.89343,-5.75877 17.08985,-9.76368 2.02025,-1.55702 3.10182,-4.01163 4.43359,-6.22656 0.82269,0.26669 1.64133,0.54232 2.45898,0.82617 9.22914,3.37598 18.49277,6.69987 26.97071,11.77344 6.27196,3.75341 7.59112,5.49011 13.17382,9.54883 1.46492,1.06502 3.00768,2.01832 4.51172,3.02734 3.39313,2.47597 3.39692,2.37631 6.42188,4.94727 1.42572,1.21174 6.70476,6.36375 8.32617,5.32617 20.81628,-13.32085 20.86027,-11.17214 15.38086,-20.33008 -2.20429,-2.84926 -4.64261,-5.51001 -6.79297,-8.40039 -3.55565,-4.77929 -6.61367,-9.90852 -9.48242,-15.12109 -2.88496,-5.85483 -4.26234,-8.43186 -6.82031,-14.5625 -1.84933,-4.43224 -3.55549,-8.91905 -5.16407,-13.44141 7.19275,-2.92866 13.47942,-5.44762 21.69727,-8.00781 4.55799,-1.41999 9.2027,-2.54626 13.83398,-3.70508 8.43175,-2.10976 16.59369,-4.09636 25.27735,-4.81055 3.35237,-0.27572 6.72625,-0.051 10.08984,-0.0762 6.47866,0.68399 13.11462,1.73178 18.52344,5.67383 4.35564,3.17447 6.74706,7.92849 9.23828,12.52344 6.53895,14.87689 8.12131,31.17761 9.80469,47.16015 0.82497,7.1588 1.35989,14.37549 2.89258,21.4336 0.63352,2.91738 1.95715,8.08727 3.54687,10.75781 0.96391,1.61926 2.37138,2.93147 3.55664,4.39648 4.13962,2.76478 4.67439,3.81847 9.74219,4.46876 1.7241,0.22122 3.47487,-0.0563 5.21289,-0.084 l 9.23047,-20.54297 c -2.22387,1.41436 -4.11093,2.61286 -6.86914,2.36328 -0.80098,-0.38185 -1.7257,-0.57245 -2.40235,-1.14648 -2.08559,-1.76928 -3.72261,-5.03829 -4.76953,-7.39453 -2.72681,-6.13708 -4.22046,-12.72405 -5.61523,-19.25977 -1.60313,-8.99531 -1.39012,-7.30869 -2.67383,-16.57422 -1.56418,-11.28985 -2.70907,-22.71739 -6.01563,-33.67382 -2.05362,-5.13622 -3.13784,-9.16426 -6.90624,-13.40235 -5.72807,-6.44199 -13.22455,-8.13428 -21.54883,-7.77539 -3.3804,0.14574 -6.70951,0.87939 -10.06446,1.31836 -12.13182,2.63241 -12.17926,2.49099 -24.61914,5.84766 -1.91974,0.51801 -25.71539,7.31628 -27.49609,7.72851 -9.4799,2.19459 -15.43201,2.68728 -24.86133,3.83203 -0.57556,0.1322 -1.15277,0.25723 -1.72851,0.38868 -1.66556,-5.05463 -3.24869,-10.13723 -4.80079,-15.22461 -2.89386,-10.10614 -3.00547,-10.03547 -5.40429,-20.2461 -1.38191,-5.88211 -2.91854,-12.55878 -3.55274,-18.60547 -0.27162,-2.58956 -0.15572,-5.20757 -0.34179,-7.80468 -0.12251,-1.71004 -0.38973,-3.406 -0.58399,-5.10938 -0.1192,-2.52102 0.71973,-7.55422 -0.46094,-7.3867 -25.62543,5.56271 -30.63066,2.03935 -24.20507,11.53711 1.19915,1.3875 1.69306,2.14322 2.66797,4.96485 0.94546,3.58813 1.79971,6.60267 2.5,10.28906 2.05457,10.81562 2.49012,21.78222 1.54492,32.75195 -0.43658,3.35094 -0.66013,6.73666 -1.31055,10.05273 -0.74288,3.78746 -1.96026,8.28601 -3.39844,12.56641 -3.00274,0.55257 -6.00875,1.09176 -9.01953,1.60156 -1.72178,0.26939 -3.44324,0.53316 -5.16406,0.8086 -1.43603,0.22985 -2.974,0.12028 -4.30469,0.70703 -6.40692,2.82504 -12.71909,5.91314 -18.75586,9.46094 -3.50004,2.05696 -4.48662,5.80364 -3.76367,9.6914 0.33529,1.80308 1.77482,3.20939 2.66211,4.81446 1.0409,0.6585 2.01975,1.42901 3.12305,1.97656 1.85843,0.92233 6.53829,2.2949 8.30078,2.82226 1.87609,0.56136 3.75927,1.09588 5.64453,1.625 -0.15993,0.16347 -0.32608,0.32142 -0.48438,0.48633 -2.67085,1.70196 -5.60159,3.05126 -8.01367,5.10352 -7e-4,5.9e-4 -0.001,0.001 -0.002,0.002 -4.85154,2.1926 -9.90821,3.72806 -15.20899,4.31445 -0.34169,-3.55109 -0.79618,-7.08691 -1.15039,-10.56836 -3.09773,-18.81717 -6.80146,-37.53322 -11.93164,-55.91601 -5.30145,-17.98263 -10.81691,-35.90151 -17.07031,-53.58008 -3.6035,-10.62817 -7.17499,-21.27089 -10.30273,-32.05078 -0.99915,-2.84946 -1.25071,-9.73096 -3.13669,-9.26563 -8.61057,2.89236 -15.926,8.74252 -23.88867,13.11329 0.20498,0.11427 0.46841,0.16068 0.61523,0.34375 0.27893,0.3478 0.40886,0.7913 0.61328,1.1875 0.72999,6.00687 0.65076,12.05984 -0.64844,17.99804 -0.90553,3.46212 -1.12913,4.73965 -2.47656,8.10938 -2.34566,5.8662 -5.6074,11.36697 -9.33203,16.45117 -4.07052,4.91348 -7.67505,8.66961 -12.89648,12.23242 -3.03848,1.41148 -6.20327,2.42579 -9.70508,2.45508 -1.46515,-0.34769 -2.47199,-0.49977 -3.83399,-1.15625 -2.65818,-1.28122 -4.55414,-3.83282 -6.25976,-6.13867 -2.59625,-4.03161 -4.46227,-8.44013 -6.91211,-12.5586 -0.52031,-0.74839 -0.96841,-1.55313 -1.56055,-2.24609 -0.87556,-1.02464 -4.98724,-5.31563 -6.57031,-4.7793 -14.9311,5.05855 -18.54121,4.70155 -21.0293,14.60547 -1.11926,6.60434 -1.48752,13.31781 -2.60547,19.92578 -0.21991,1.75036 -0.44473,3.49992 -0.66797,5.25 -0.19909,0.0832 -0.23893,0.0977 -0.45703,0.18946 -1.55084,0.6525 -3.09765,1.31345 -4.64648,1.9707 -9.22612,3.54062 -18.70788,6.45107 -28.46485,8.12305 -4.90901,1.01173 -9.88104,1.86859 -14.89453,1.99023 -0.71635,-0.19271 -1.49333,-0.39905 -1.86132,-0.49805 -0.68366,-0.0326 -1.37443,0.007 -2.05079,-0.0976 -8.57131,-1.32926 -1.43934,-16.62653 -20.77343,10.13867 -1.23901,1.71523 -1.56138,3.40478 -1.28907,4.99609 -6.98278,2.5011 -14.01941,4.85427 -21.00586,7.34766 -0.68175,-2.23562 -1.33167,-4.48025 -1.91015,-6.74414 -1.34533,-5.26498 -2.27244,-10.62797 -3.33594,-15.95703 -0.97266,-4.87388 -1.84883,-9.76716 -2.77344,-14.65039 -4.11162,-17.4161 -8.31939,-35.2759 -7.93359,-53.31055 0.0872,-4.079 0.70156,-8.13113 1.10156,-12.19141 0.32297,-3.27837 0.71101,-6.54919 1.06641,-9.82422 0.62091,-3.07236 1.12164,-6.1713 1.86328,-9.21679 2.51195,-10.31526 6.3413,-20.8855 12.87695,-29.38672 1.40984,-1.83384 3.09409,-3.44004 4.64063,-5.16016 1.87183,-1.51773 2.89783,-2.33336 3.66797,-2.95117 1.92144,-0.62388 3.92314,-0.94479 6.01367,-0.93945 1.13739,0.10404 2.29432,0.0779 3.41211,0.3125 6.4433,1.35203 11.66025,5.74215 15.60156,10.79687 2.4703,4.10612 4.90447,8.3698 4.47461,13.36524 -0.14342,1.6666 -0.91131,3.06594 -1.5625,4.56445 l 26.07813,-5.73633 c -1.76905,-6.66895 -4.34377,-13.06091 -7.88672,-18.99609 -0.86872,-1.45529 -1.85417,-2.83703 -2.78125,-4.25586 -5.19622,-6.75749 -11.59,-12.64406 -19.50391,-16.03906 -1.50035,-0.64364 -3.07566,-1.0959 -4.61328,-1.64453 -1.6388,-0.26871 -3.2608,-0.67216 -4.91602,-0.80664 -0.80479,-0.0654 -1.59593,-0.0956 -2.37695,-0.0938 z m -12.88086,19.8086 c -1.45015,0.91516 -3.37552,2.10086 -6.02734,3.52344 -1.11341,0.59729 2.03397,-1.51065 3.12695,-2.14454 0.94382,-0.54737 1.91228,-0.99996 2.90039,-1.3789 z m 300.18164,125.51953 c 1.61859,4.63977 2.45391,7.541 4.51758,14.15625 1.32989,4.39019 2.61654,8.79369 3.88672,13.20117 -5.06328,1.10108 -10.13337,2.16732 -15.21485,3.17969 1.28585,-4.01435 2.4776,-8.07646 3.41602,-11.92188 0.86631,-3.54991 1.46039,-7.16196 2.19141,-10.74218 0.47165,-2.61718 0.85525,-5.24263 1.20312,-7.87305 z m 11.2832,37.41797 c 2.95355,10.35004 5.91931,20.6953 9.22266,30.9414 0.7452,2.40688 1.54389,4.79579 2.35742,7.17969 -3.63279,-0.96817 -7.32722,-1.95766 -10.49023,-3.0332 -9.34261,-3.17682 -18.03193,-7.6236 -26.72852,-12.21484 -1.30137,-0.78039 -2.62841,-1.54215 -3.95312,-2.30665 1.60012,-2.53326 3.05391,-4.97518 3.96484,-6.86132 1.04262,-2.15879 1.8875,-4.40552 2.70117,-6.66407 7.58688,-2.51669 15.25298,-4.80034 22.92578,-7.04101 z m -317.91015,11.74609 c 2.87343,11.42573 5.31477,22.96913 7.76758,34.47071 2.39992,11.33018 4.38513,22.73563 6.26757,34.1582 -10.50298,-5.53371 -20.03811,-12.60151 -29.09375,-20.23438 -5.50092,-4.89712 -10.853267,-10.26243 -14.357418,-16.82422 -1.697756,-3.17916 -1.815675,-4.09626 -2.84375,-7.42773 -0.870809,-7.00111 1.295433,-9.01931 6.447266,-13.04101 3.215924,-2.40541 7.448472,-3.92945 10.152342,-5.10157 5.1354,-2.22207 10.40348,-4.09752 15.66016,-6 z m 188.23047,28.42774 c 0.32598,0.1561 0.73611,0.3522 1.04101,0.49804 10.79647,4.98574 21.99931,9.39412 33.72656,11.63282 0.86923,0.16593 1.74343,0.30206 2.61915,0.42968 -0.47393,1.25927 -1.02468,2.4977 -1.67383,3.70899 -2.01825,0.16168 -4.10769,-0.2218 -6.09375,-0.47656 -8.51419,-2.1457 -16.54915,-6.08867 -23.69922,-11.16797 -1.56528,-1.11196 -3.04933,-2.33326 -4.57422,-3.5 -0.4515,-0.36879 -0.8975,-0.74879 -1.3457,-1.125 z"
     id="path4680"
     inkscape:connector-curvature="0"
     sodipodi:nodetypes="cccscssscsscccscscsccccccccccccccccccccccsccccccccccsccccccsccccccscccccccccccsccsccsscsccccsccsccscccccccscsccsccscccsccccccccscccscccccccccccccccccccccccccccccccccccccsccssccsccsccccccccscccccccccccccccccscccccccscccccccccccccccccc" /></svg>