<?xml version="1.0" encoding="UTF-8" standalone="no"?>
<svg
   xmlns:dc="http://purl.org/dc/elements/1.1/"
   xmlns:cc="http://creativecommons.org/ns#"
   xmlns:rdf="http://www.w3.org/1999/02/22-rdf-syntax-ns#"
   xmlns:svg="http://www.w3.org/2000/svg"
   xmlns="http://www.w3.org/2000/svg"
   xmlns:sodipodi="http://sodipodi.sourceforge.net/DTD/sodipodi-0.dtd"
   xmlns:inkscape="http://www.inkscape.org/namespaces/inkscape"
   id="svg8"
   version="1.1"
   viewBox="0 0 177.48499 180.91484"
   height="180.91484mm"
   width="177.48499mm"
   sodipodi:docname="graph.svg"
   inkscape:version="0.92.3 (2405546, 2018-03-11)">
  <sodipodi:namedview
     pagecolor="#ffffff"
     bordercolor="#666666"
     borderopacity="1"
     objecttolerance="10"
     gridtolerance="10"
     guidetolerance="10"
     inkscape:pageopacity="0"
     inkscape:pageshadow="2"
     inkscape:window-width="1920"
     inkscape:window-height="1019"
     id="namedview141"
     showgrid="false"
     inkscape:zoom="1.9524291"
     inkscape:cx="145.85037"
     inkscape:cy="483.36843"
     inkscape:window-x="-8"
     inkscape:window-y="-8"
     inkscape:window-maximized="1"
     inkscape:current-layer="svg8" />
  <defs
     id="defs2">
    <marker
       style="overflow:visible"
       id="Arrow1Send"
       refX="0"
       refY="0"
       orient="auto">
      <path
         transform="matrix(-0.2,0,0,-0.2,-1.2,0)"
         style="fill:#7b7b7b;fill-opacity:1;fill-rule:evenodd;stroke:#7b7b7b;stroke-width:1.00000003pt;stroke-opacity:1"
         d="M 0,0 5,-5 -12.5,0 5,5 Z"
         id="path856" />
    </marker>
    <marker
       style="overflow:visible"
       id="Arrow1Lend"
       refX="0"
       refY="0"
       orient="auto">
      <path
         transform="matrix(-0.8,0,0,-0.8,-10,0)"
         style="fill:#000000;fill-opacity:1;fill-rule:evenodd;stroke:#000000;stroke-width:1.00000003pt;stroke-opacity:1"
         d="M 0,0 5,-5 -12.5,0 5,5 Z"
         id="path844" />
    </marker>
  </defs>
  <metadata
     id="metadata5">
    <rdf:RDF>
      <cc:Work
         rdf:about="">
        <dc:format>image/svg+xml</dc:format>
        <dc:type
           rdf:resource="http://purl.org/dc/dcmitype/StillImage" />
        <dc:title />
      </cc:Work>
    </rdf:RDF>
  </metadata>
  <g
     aria-label="quantity of learning resources available
to learners of particular skill levels"
     style="font-style:normal;font-variant:normal;font-weight:normal;font-stretch:normal;font-size:8.56549072px;line-height:1.25;font-family:'Noto Sans CJK KR';-inkscape-font-specification:'Noto Sans CJK KR';letter-spacing:0px;word-spacing:0px;fill:#eeeeee;fill-opacity:1;stroke:none;stroke-width:0.26458335"
     id="text961"
     transform="translate(-4.0654485,1.0841196)">
    <path
       d="m 19.12195,13.62318 h 0.779459 V 7.0106216 h -0.616715 l -0.07709,0.4454055 h -0.0257 C 18.77933,7.087711 18.393883,6.8907048 17.854257,6.8907048 c -1.062121,0 -2.01289,0.9422039 -2.01289,2.4497303 0,1.5503539 0.753763,2.4325989 1.91867,2.4325989 0.539626,0 1.027859,-0.282661 1.40474,-0.650977 l -0.04283,0.847984 z m -1.190603,-2.501123 c -0.822288,0 -1.284824,-0.668108 -1.284824,-1.7901874 0,-1.0621208 0.591019,-1.7816221 1.344782,-1.7816221 0.385447,0 0.736632,0.1370479 1.130645,0.488233 v 2.4411645 c -0.385447,0.428275 -0.762329,0.642412 -1.190603,0.642412 z"
       style="fill:#eeeeee;fill-opacity:1;stroke-width:0.26458335"
       id="path1341"
       inkscape:connector-curvature="0" />
    <path
       d="m 22.832012,11.773034 c 0.642412,0 1.104948,-0.334054 1.541788,-0.839418 h 0.0257 l 0.05996,0.728067 h 0.650977 V 7.0106216 h -0.779459 v 3.2977144 c -0.445406,0.556756 -0.77946,0.788025 -1.259128,0.788025 -0.616715,0 -0.87368,-0.368316 -0.87368,-1.233431 V 7.0106216 h -0.779459 v 2.9465288 c 0,1.1820376 0.43684,1.8158836 1.413306,1.8158836 z"
       style="fill:#eeeeee;fill-opacity:1;stroke-width:0.26458335"
       id="path1343"
       inkscape:connector-curvature="0" />
    <path
       d="m 27.752217,11.773034 c 0.573887,0 1.096382,-0.299792 1.541788,-0.668108 h 0.0257 l 0.06852,0.556757 h 0.642412 V 8.8008092 c 0,-1.1477758 -0.479667,-1.9101044 -1.610312,-1.9101044 -0.745198,0 -1.404741,0.3340541 -1.833015,0.6081498 l 0.308358,0.5396259 c 0.368316,-0.2483992 0.856549,-0.4967985 1.396174,-0.4967985 0.762329,0 0.959335,0.5738879 0.959335,1.1734723 -1.978628,0.2227027 -2.860873,0.7280667 -2.860873,1.7387947 0,0.839418 0.582453,1.319085 1.361913,1.319085 z m 0.222702,-0.62528 c -0.462536,0 -0.822287,-0.214138 -0.822287,-0.745198 0,-0.5995844 0.531061,-0.9850315 2.098545,-1.1734723 v 1.3019543 c -0.453971,0.402578 -0.822287,0.616716 -1.276258,0.616716 z"
       style="fill:#eeeeee;fill-opacity:1;stroke-width:0.26458335"
       id="path1345"
       inkscape:connector-curvature="0" />
    <path
       d="m 31.516348,11.661683 h 0.77946 V 8.2868797 c 0.471102,-0.471102 0.79659,-0.7109357 1.276258,-0.7109357 0.616715,0 0.882245,0.3683161 0.882245,1.2419962 v 2.8437428 h 0.77946 V 8.7151543 c 0,-1.1906032 -0.445405,-1.8244495 -1.421871,-1.8244495 -0.633847,0 -1.113514,0.3511851 -1.55892,0.7880251 h -0.0257 L 32.15876,7.0106216 h -0.642412 z"
       style="fill:#eeeeee;fill-opacity:1;stroke-width:0.26458335"
       id="path1347"
       inkscape:connector-curvature="0" />
    <path
       d="m 38.217373,11.773034 c 0.282661,0 0.591019,-0.08565 0.856549,-0.171309 l -0.154179,-0.582454 c -0.154178,0.05996 -0.368316,0.119917 -0.53106,0.119917 -0.539626,0 -0.719501,-0.325488 -0.719501,-0.899376 V 7.6444679 h 1.259127 V 7.0106216 H 37.669182 V 5.708667 h -0.650977 l -0.09422,1.3019546 -0.728067,0.042827 v 0.5910188 h 0.693805 V 10.22268 c 0,0.933638 0.334054,1.550353 1.327651,1.550353 z"
       style="fill:#eeeeee;fill-opacity:1;stroke-width:0.26458335"
       id="path1349"
       inkscape:connector-curvature="0" />
    <path
       d="m 39.981463,11.661683 h 0.779459 V 7.0106216 h -0.779459 z m 0.394012,-5.6103963 c 0.308358,0 0.539626,-0.2141373 0.539626,-0.505364 0,-0.3169232 -0.231268,-0.5053639 -0.539626,-0.5053639 -0.308357,0 -0.539626,0.1884407 -0.539626,0.5053639 0,0.2912267 0.231269,0.505364 0.539626,0.505364 z"
       style="fill:#eeeeee;fill-opacity:1;stroke-width:0.26458335"
       id="path1351"
       inkscape:connector-curvature="0" />
    <path
       d="m 43.805018,11.773034 c 0.282661,0 0.591019,-0.08565 0.856549,-0.171309 l -0.154179,-0.582454 c -0.154179,0.05996 -0.368316,0.119917 -0.53106,0.119917 -0.539626,0 -0.719502,-0.325488 -0.719502,-0.899376 V 7.6444679 h 1.259128 V 7.0106216 H 43.256826 V 5.708667 h -0.650977 l -0.09422,1.3019546 -0.728067,0.042827 v 0.5910188 h 0.693805 V 10.22268 c 0,0.933638 0.334054,1.550353 1.327651,1.550354 z"
       style="fill:#eeeeee;fill-opacity:1;stroke-width:0.26458335"
       id="path1353"
       inkscape:connector-curvature="0" />
    <path
       d="m 45.646195,13.666008 c 0.925073,0 1.40474,-0.70237 1.730229,-1.618878 L 49.13235,7.0106216 h -0.762329 l -0.830853,2.5867782 c -0.128482,0.4111432 -0.26553,0.8822452 -0.394012,1.3019542 h -0.04283 C 46.956715,10.479645 46.793971,9.9999779 46.656923,9.5973998 l -0.95077,-2.5867782 h -0.813721 l 1.867277,4.6596274 -0.102786,0.351185 c -0.188441,0.573888 -0.522495,1.002162 -1.053556,1.002162 -0.119917,0 -0.256964,-0.04283 -0.351185,-0.07709 l -0.154179,0.625281 c 0.145614,0.05996 0.325489,0.09422 0.548192,0.09422 z"
       style="fill:#eeeeee;fill-opacity:1;stroke-width:0.26458335"
       id="path1355"
       inkscape:connector-curvature="0" />
    <path
       d="m 53.767083,11.773034 c 1.139211,0 2.158504,-0.890811 2.158504,-2.4325989 0,-1.5503538 -1.019293,-2.4497303 -2.158504,-2.4497303 -1.13921,0 -2.158503,0.8993765 -2.158503,2.4497303 0,1.5417879 1.019293,2.4325989 2.158503,2.4325989 z m 0,-0.650977 c -0.805156,0 -1.344782,-0.710936 -1.344782,-1.7816219 0,-1.0706863 0.539626,-1.7987531 1.344782,-1.7987531 0.805156,0 1.353348,0.7280668 1.353348,1.7987531 0,1.0706859 -0.548192,1.7816219 -1.353348,1.7816219 z"
       style="fill:#eeeeee;fill-opacity:1;stroke-width:0.26458335"
       id="path1357"
       inkscape:connector-curvature="0" />
    <path
       d="m 59.407192,4.8863799 c -0.222702,-0.09422 -0.496798,-0.1541788 -0.779459,-0.1541788 -0.925073,0 -1.353348,0.5910188 -1.353348,1.5332228 v 0.7451977 l -0.633846,0.042827 v 0.5910188 h 0.633846 v 4.0172146 h 0.77946 V 7.6444679 h 0.985031 V 7.0106216 H 58.053845 V 6.2739894 c 0,-0.5995843 0.214137,-0.9165075 0.659543,-0.9165075 0.162744,0 0.351185,0.042828 0.522495,0.1199169 z"
       style="fill:#eeeeee;fill-opacity:1;stroke-width:0.26458335"
       id="path1359"
       inkscape:connector-curvature="0" />
    <path
       d="m 62.669171,11.773034 c 0.205572,0 0.34262,-0.0257 0.453971,-0.06852 l -0.111351,-0.599585 c -0.08566,0.01713 -0.119917,0.01713 -0.162745,0.01713 -0.119916,0 -0.222702,-0.09422 -0.222702,-0.334054 V 4.8435525 h -0.77946 V 10.73661 c 0,0.659543 0.239834,1.036424 0.822287,1.036424 z"
       style="fill:#eeeeee;fill-opacity:1;stroke-width:0.26458335"
       id="path1361"
       inkscape:connector-curvature="0" />
    <path
       d="m 66.165231,11.773034 c 0.633847,0 1.130645,-0.214137 1.541789,-0.479667 l -0.282661,-0.513929 c -0.34262,0.231268 -0.710936,0.368316 -1.164907,0.368316 -0.882246,0 -1.490396,-0.633847 -1.541789,-1.6274436 h 3.13497 c 0.01713,-0.1113514 0.03426,-0.2740957 0.03426,-0.4454055 0,-1.3276511 -0.668108,-2.1842001 -1.850146,-2.1842001 -1.079252,0 -2.098545,0.9422039 -2.098545,2.4497303 0,1.5332229 0.993597,2.4325989 2.227027,2.4325989 z M 64.709098,8.9635535 c 0.09422,-0.9165075 0.676674,-1.4475679 1.336216,-1.4475679 0.728067,0 1.156342,0.5053639 1.156342,1.4475679 z"
       style="fill:#eeeeee;fill-opacity:1;stroke-width:0.26458335"
       id="path1363"
       inkscape:connector-curvature="0" />
    <path
       d="m 69.977408,11.773034 c 0.573888,0 1.096383,-0.299792 1.541788,-0.668108 h 0.0257 l 0.06852,0.556757 h 0.642412 V 8.8008092 c 0,-1.1477758 -0.479667,-1.9101044 -1.610312,-1.9101044 -0.745198,0 -1.404741,0.3340541 -1.833015,0.6081498 l 0.308358,0.5396259 c 0.368316,-0.2483992 0.856549,-0.4967985 1.396175,-0.4967985 0.762328,0 0.959335,0.5738879 0.959335,1.1734723 -1.978629,0.2227027 -2.860874,0.7280667 -2.860874,1.7387947 0,0.839418 0.582453,1.319085 1.361913,1.319085 z m 0.222702,-0.62528 c -0.462536,0 -0.822287,-0.214138 -0.822287,-0.745198 0,-0.5995844 0.531061,-0.9850315 2.098546,-1.1734723 v 1.3019543 c -0.453971,0.402578 -0.822288,0.616716 -1.276259,0.616716 z"
       style="fill:#eeeeee;fill-opacity:1;stroke-width:0.26458335"
       id="path1365"
       inkscape:connector-curvature="0" />
    <path
       d="m 73.741541,11.661683 h 0.77946 V 8.6723268 c 0.308357,-0.7965906 0.788025,-1.0706863 1.173472,-1.0706863 0.188441,0 0.299792,0.017131 0.453971,0.077089 l 0.145613,-0.6852393 c -0.145613,-0.077089 -0.291226,-0.1027858 -0.496798,-0.1027858 -0.522495,0 -0.993597,0.3768815 -1.319086,0.9679004 h -0.0257 l -0.06852,-0.8479836 h -0.642412 z"
       style="fill:#eeeeee;fill-opacity:1;stroke-width:0.26458335"
       id="path1367"
       inkscape:connector-curvature="0" />
    <path
       d="m 77.070708,11.661683 h 0.779459 V 8.2868797 c 0.471102,-0.471102 0.796591,-0.7109357 1.276258,-0.7109357 0.616716,0 0.882246,0.3683161 0.882246,1.2419962 v 2.8437428 h 0.77946 V 8.7151543 c 0,-1.1906032 -0.445406,-1.8244495 -1.421872,-1.8244495 -0.633846,0 -1.113514,0.3511851 -1.558919,0.7880251 h -0.0257 L 77.71312,7.0106216 h -0.642411 z"
       style="fill:#eeeeee;fill-opacity:1;stroke-width:0.26458335"
       id="path1369"
       inkscape:connector-curvature="0" />
    <path
       d="m 82.307028,11.661683 h 0.77946 V 7.0106216 h -0.77946 z m 0.394013,-5.6103963 c 0.308357,0 0.539626,-0.2141373 0.539626,-0.505364 0,-0.3169232 -0.231269,-0.5053639 -0.539626,-0.5053639 -0.308358,0 -0.539626,0.1884407 -0.539626,0.5053639 0,0.2912267 0.231268,0.505364 0.539626,0.505364 z"
       style="fill:#eeeeee;fill-opacity:1;stroke-width:0.26458335"
       id="path1371"
       inkscape:connector-curvature="0" />
    <path
       d="m 84.665884,11.661683 h 0.77946 V 8.2868797 c 0.471102,-0.471102 0.796591,-0.7109357 1.276258,-0.7109357 0.616715,0 0.882246,0.3683161 0.882246,1.2419962 v 2.8437428 h 0.779459 V 8.7151543 c 0,-1.1906032 -0.445405,-1.8244495 -1.421871,-1.8244495 -0.633847,0 -1.113514,0.3511851 -1.55892,0.7880251 h -0.0257 l -0.06852,-0.6681083 h -0.642412 z"
       style="fill:#eeeeee;fill-opacity:1;stroke-width:0.26458335"
       id="path1373"
       inkscape:connector-curvature="0" />
    <path
       d="m 91.469697,13.803056 c 1.439003,0 2.346945,-0.745198 2.346945,-1.610312 0,-0.762329 -0.539626,-1.104949 -1.618878,-1.104949 h -0.907942 c -0.625281,0 -0.813722,-0.205572 -0.813722,-0.505364 0,-0.256964 0.128483,-0.411143 0.299792,-0.556757 0.205572,0.102786 0.462537,0.162745 0.693805,0.162745 0.942204,0 1.695967,-0.6252811 1.695967,-1.6188781 0,-0.402578 -0.154178,-0.7451977 -0.376881,-0.9593349 h 0.950769 V 7.0106216 H 92.120674 C 91.95793,6.9506632 91.726662,6.8907048 91.469697,6.8907048 c -0.942204,0 -1.74736,0.6424118 -1.74736,1.6617052 0,0.5567568 0.299792,1.0021624 0.60815,1.2505616 v 0.034262 c -0.239834,0.1713094 -0.522495,0.4796674 -0.522495,0.8651144 0,0.368316 0.179875,0.616715 0.428275,0.762329 v 0.03426 c -0.436841,0.282661 -0.693805,0.659543 -0.693805,1.053555 0,0.805156 0.788025,1.250562 1.927235,1.250562 z m 0,-4.1456977 c -0.539626,0 -0.993597,-0.4282746 -0.993597,-1.1049483 0,-0.6852393 0.445406,-1.0878174 0.993597,-1.0878174 0.548192,0 0.985032,0.4111436 0.985032,1.0878174 0,0.6766737 -0.453971,1.1049483 -0.985032,1.1049483 z m 0.111352,3.6146367 c -0.847984,0 -1.353348,-0.325488 -1.353348,-0.822287 0,-0.274095 0.145613,-0.548191 0.479668,-0.788025 0.205571,0.05139 0.428274,0.07709 0.599584,0.07709 h 0.805156 c 0.616715,0 0.950769,0.145614 0.950769,0.573888 0,0.488233 -0.591018,0.959335 -1.481829,0.959335 z"
       style="fill:#eeeeee;fill-opacity:1;stroke-width:0.26458335"
       id="path1375"
       inkscape:connector-curvature="0" />
    <path
       d="m 96.644194,11.661683 h 0.77946 V 8.6723268 c 0.308357,-0.7965906 0.788025,-1.0706863 1.173472,-1.0706863 0.188441,0 0.299792,0.017131 0.453971,0.077089 L 99.19671,6.9934906 c -0.145613,-0.077089 -0.291227,-0.1027858 -0.496798,-0.1027858 -0.522495,0 -0.993597,0.3768815 -1.319086,0.9679004 h -0.0257 l -0.06852,-0.8479836 h -0.642412 z"
       style="fill:#eeeeee;fill-opacity:1;stroke-width:0.26458335"
       id="path1377"
       inkscape:connector-curvature="0" />
    <path
       d="m 101.74882,11.773034 c 0.63385,0 1.13064,-0.214137 1.54179,-0.479667 l -0.28266,-0.513929 c -0.34262,0.231268 -0.71094,0.368316 -1.16491,0.368316 -0.88225,0 -1.4904,-0.633847 -1.54179,-1.6274436 h 3.13497 c 0.0171,-0.1113514 0.0343,-0.2740957 0.0343,-0.4454055 0,-1.3276511 -0.66811,-2.1842001 -1.85014,-2.1842001 -1.07926,0 -2.098549,0.9422039 -2.098549,2.4497303 0,1.5332229 0.993599,2.4325989 2.227029,2.4325989 z m -1.45613,-2.8094805 c 0.0942,-0.9165075 0.67667,-1.4475679 1.33621,-1.4475679 0.72807,0 1.15634,0.5053639 1.15634,1.4475679 z"
       style="fill:#eeeeee;fill-opacity:1;stroke-width:0.26458335"
       id="path1379"
       inkscape:connector-curvature="0" />
    <path
       d="m 105.84045,11.773034 c 1.09638,0 1.69597,-0.62528 1.69597,-1.379044 0,-0.8822451 -0.7452,-1.1563408 -1.42187,-1.4133055 -0.5225,-0.1970063 -1.02786,-0.3597506 -1.02786,-0.8051561 0,-0.3597507 0.26553,-0.6681083 0.84798,-0.6681083 0.41971,0 0.7452,0.1713098 1.07069,0.4111435 l 0.37688,-0.5053639 c -0.36832,-0.2826612 -0.87368,-0.5224949 -1.44757,-0.5224949 -1.01073,0 -1.60175,0.5824533 -1.60175,1.3190855 0,0.7880252 0.73664,1.1049483 1.38761,1.3447821 0.51393,0.1970063 1.06213,0.4111435 1.06213,0.8822456 0,0.402578 -0.2998,0.728067 -0.91651,0.728067 -0.55676,0 -0.97647,-0.222703 -1.37905,-0.548192 l -0.38544,0.51393 c 0.4454,0.368316 1.07925,0.642411 1.73879,0.642411 z"
       style="fill:#eeeeee;fill-opacity:1;stroke-width:0.26458335"
       id="path1381"
       inkscape:connector-curvature="0" />
    <path
       d="m 110.44655,11.773034 c 1.13921,0 2.1585,-0.890811 2.1585,-2.4325989 0,-1.5503538 -1.01929,-2.4497303 -2.1585,-2.4497303 -1.13921,0 -2.15851,0.8993765 -2.15851,2.4497303 0,1.5417879 1.0193,2.4325989 2.15851,2.4325989 z m 0,-0.650977 c -0.80516,0 -1.34479,-0.710936 -1.34479,-1.7816219 0,-1.0706863 0.53963,-1.7987531 1.34479,-1.7987531 0.80515,0 1.35334,0.7280668 1.35334,1.7987531 0,1.0706859 -0.54819,1.7816219 -1.35334,1.7816219 z"
       style="fill:#eeeeee;fill-opacity:1;stroke-width:0.26458335"
       id="path1383"
       inkscape:connector-curvature="0" />
    <path
       d="m 115.17871,11.773034 c 0.64241,0 1.10495,-0.334054 1.54179,-0.839418 h 0.0257 l 0.06,0.728067 h 0.65098 V 7.0106216 h -0.77946 v 3.2977144 c -0.44541,0.556756 -0.77946,0.788025 -1.25913,0.788025 -0.61671,0 -0.87368,-0.368316 -0.87368,-1.233431 V 7.0106216 h -0.77946 v 2.9465288 c 0,1.1820376 0.43684,1.8158836 1.41331,1.8158836 z"
       style="fill:#eeeeee;fill-opacity:1;stroke-width:0.26458335"
       id="path1385"
       inkscape:connector-curvature="0" />
    <path
       d="m 119.02823,11.661683 h 0.77946 V 8.6723268 c 0.30835,-0.7965906 0.78802,-1.0706863 1.17347,-1.0706863 0.18844,0 0.29979,0.017131 0.45397,0.077089 l 0.14561,-0.6852393 c -0.14561,-0.077089 -0.29122,-0.1027858 -0.4968,-0.1027858 -0.52249,0 -0.99359,0.3768815 -1.31908,0.9679004 h -0.0257 l -0.0685,-0.8479836 h -0.64241 z"
       style="fill:#eeeeee;fill-opacity:1;stroke-width:0.26458335"
       id="path1387"
       inkscape:connector-curvature="0" />
    <path
       d="m 124.09003,11.773034 c 0.55676,0 1.08782,-0.214137 1.49896,-0.591018 l -0.33405,-0.522495 c -0.29123,0.26553 -0.66811,0.462536 -1.09638,0.462536 -0.85655,0 -1.43901,-0.710936 -1.43901,-1.7816219 0,-1.0706863 0.61672,-1.7987531 1.45614,-1.7987531 0.37688,0 0.65954,0.1713099 0.93364,0.4197091 l 0.40257,-0.5224949 c -0.33405,-0.2912267 -0.75376,-0.5481914 -1.36191,-0.5481914 -1.1906,0 -2.24416,0.8993765 -2.24416,2.4497303 0,1.5417879 0.95077,2.4325989 2.1842,2.4325989 z"
       style="fill:#eeeeee;fill-opacity:1;stroke-width:0.26458335"
       id="path1389"
       inkscape:connector-curvature="0" />
    <path
       d="m 128.29849,11.773034 c 0.63385,0 1.13065,-0.214137 1.54179,-0.479667 l -0.28266,-0.513929 c -0.34262,0.231268 -0.71093,0.368316 -1.16491,0.368316 -0.88224,0 -1.49039,-0.633847 -1.54178,-1.6274436 h 3.13497 c 0.0171,-0.1113514 0.0343,-0.2740957 0.0343,-0.4454055 0,-1.3276511 -0.66811,-2.1842001 -1.85015,-2.1842001 -1.07925,0 -2.09854,0.9422039 -2.09854,2.4497303 0,1.5332229 0.99359,2.4325989 2.22702,2.4325989 z m -1.45613,-2.8094805 c 0.0942,-0.9165075 0.67667,-1.4475679 1.33622,-1.4475679 0.72806,0 1.15634,0.5053639 1.15634,1.4475679 z"
       style="fill:#eeeeee;fill-opacity:1;stroke-width:0.26458335"
       id="path1391"
       inkscape:connector-curvature="0" />
    <path
       d="m 132.39013,11.773034 c 1.09638,0 1.69596,-0.62528 1.69596,-1.379044 0,-0.8822451 -0.74519,-1.1563408 -1.42187,-1.4133055 -0.52249,-0.1970063 -1.02786,-0.3597506 -1.02786,-0.8051561 0,-0.3597507 0.26553,-0.6681083 0.84799,-0.6681083 0.41971,0 0.74519,0.1713098 1.07068,0.4111435 l 0.37688,-0.5053639 c -0.36831,-0.2826612 -0.87368,-0.5224949 -1.44756,-0.5224949 -1.01073,0 -1.60175,0.5824533 -1.60175,1.3190855 0,0.7880252 0.73663,1.1049483 1.38761,1.3447821 0.51393,0.1970063 1.06212,0.4111435 1.06212,0.8822456 0,0.402578 -0.29979,0.728067 -0.91651,0.728067 -0.55675,0 -0.97646,-0.222703 -1.37904,-0.548192 l -0.38545,0.51393 c 0.44541,0.368316 1.07925,0.642411 1.7388,0.642411 z"
       style="fill:#eeeeee;fill-opacity:1;stroke-width:0.26458335"
       id="path1393"
       inkscape:connector-curvature="0" />
    <path
       d="m 138.18348,11.773034 c 0.57389,0 1.09638,-0.299792 1.54179,-0.668108 h 0.0257 l 0.0685,0.556757 h 0.64241 V 8.8008092 c 0,-1.1477758 -0.47967,-1.9101044 -1.61031,-1.9101044 -0.7452,0 -1.40474,0.3340541 -1.83302,0.6081498 l 0.30836,0.5396259 c 0.36831,-0.2483992 0.85655,-0.4967985 1.39617,-0.4967985 0.76233,0 0.95934,0.5738879 0.95934,1.1734723 -1.97863,0.2227027 -2.86088,0.7280667 -2.86088,1.7387947 0,0.839418 0.58246,1.319085 1.36192,1.319085 z m 0.2227,-0.62528 c -0.46254,0 -0.82229,-0.214138 -0.82229,-0.745198 0,-0.5995844 0.53106,-0.9850315 2.09855,-1.1734723 v 1.3019543 c -0.45397,0.402578 -0.82229,0.616716 -1.27626,0.616716 z"
       style="fill:#eeeeee;fill-opacity:1;stroke-width:0.26458335"
       id="path1395"
       inkscape:connector-curvature="0" />
    <path
       d="m 142.94977,11.661683 h 0.90794 l 1.65314,-4.6510614 h -0.77089 l -0.88225,2.6467367 c -0.13705,0.4539707 -0.29122,0.9336387 -0.42827,1.3704787 h -0.0343 c -0.14562,-0.43684 -0.29123,-0.916508 -0.43684,-1.3704787 l -0.87368,-2.6467367 h -0.81373 z"
       style="fill:#eeeeee;fill-opacity:1;stroke-width:0.26458335"
       id="path1397"
       inkscape:connector-curvature="0" />
    <path
       d="m 147.30104,11.773034 c 0.57389,0 1.09638,-0.299792 1.54179,-0.668108 h 0.0257 l 0.0685,0.556757 h 0.64241 V 8.8008092 c 0,-1.1477758 -0.47967,-1.9101044 -1.61031,-1.9101044 -0.7452,0 -1.40474,0.3340541 -1.83302,0.6081498 l 0.30836,0.5396259 c 0.36832,-0.2483992 0.85655,-0.4967985 1.39617,-0.4967985 0.76233,0 0.95934,0.5738879 0.95934,1.1734723 -1.97863,0.2227027 -2.86087,0.7280667 -2.86087,1.7387947 0,0.839418 0.58245,1.319085 1.36191,1.319085 z m 0.2227,-0.62528 c -0.46253,0 -0.82229,-0.214138 -0.82229,-0.745198 0,-0.5995844 0.53107,-0.9850315 2.09855,-1.1734723 v 1.3019543 c -0.45397,0.402578 -0.82229,0.616716 -1.27626,0.616716 z"
       style="fill:#eeeeee;fill-opacity:1;stroke-width:0.26458335"
       id="path1399"
       inkscape:connector-curvature="0" />
    <path
       d="m 151.06518,11.661683 h 0.77946 V 7.0106216 h -0.77946 z m 0.39401,-5.6103963 c 0.30836,0 0.53962,-0.2141373 0.53962,-0.505364 0,-0.3169232 -0.23126,-0.5053639 -0.53962,-0.5053639 -0.30836,0 -0.53963,0.1884407 -0.53963,0.5053639 0,0.2912267 0.23127,0.505364 0.53963,0.505364 z"
       style="fill:#eeeeee;fill-opacity:1;stroke-width:0.26458335"
       id="path1401"
       inkscape:connector-curvature="0" />
    <path
       d="m 154.24632,11.773034 c 0.20557,0 0.34262,-0.0257 0.45397,-0.06852 l -0.11135,-0.599585 c -0.0857,0.01713 -0.11992,0.01713 -0.16275,0.01713 -0.11991,0 -0.2227,-0.09422 -0.2227,-0.334054 V 4.8435525 h -0.77946 V 10.73661 c 0,0.659543 0.23984,1.036424 0.82229,1.036424 z"
       style="fill:#eeeeee;fill-opacity:1;stroke-width:0.26458335"
       id="path1403"
       inkscape:connector-curvature="0" />
    <path
       d="m 156.93721,11.773034 c 0.57389,0 1.09638,-0.299792 1.54179,-0.668108 h 0.0257 l 0.0685,0.556757 h 0.64241 V 8.8008092 c 0,-1.1477758 -0.47967,-1.9101044 -1.61031,-1.9101044 -0.7452,0 -1.40474,0.3340541 -1.83302,0.6081498 l 0.30836,0.5396259 c 0.36832,-0.2483992 0.85655,-0.4967985 1.39617,-0.4967985 0.76233,0 0.95934,0.5738879 0.95934,1.1734723 -1.97863,0.2227027 -2.86087,0.7280667 -2.86087,1.7387947 0,0.839418 0.58245,1.319085 1.36191,1.319085 z m 0.2227,-0.62528 c -0.46254,0 -0.82229,-0.214138 -0.82229,-0.745198 0,-0.5995844 0.53106,-0.9850315 2.09855,-1.1734723 v 1.3019543 c -0.45397,0.402578 -0.82229,0.616716 -1.27626,0.616716 z"
       style="fill:#eeeeee;fill-opacity:1;stroke-width:0.26458335"
       id="path1405"
       inkscape:connector-curvature="0" />
    <path
       d="m 162.7485,11.773034 c 1.07068,0 2.02145,-0.916507 2.02145,-2.5182538 0,-1.4218715 -0.65097,-2.3640754 -1.85871,-2.3640754 -0.51393,0 -1.03642,0.2912266 -1.45613,0.6595427 l 0.0257,-0.8394181 V 4.8435525 h -0.77946 v 6.8181305 h 0.62528 l 0.0685,-0.479667 h 0.0257 c 0.41114,0.376881 0.89937,0.591018 1.32765,0.591018 z m -0.12848,-0.650977 c -0.30836,0 -0.72807,-0.128482 -1.13921,-0.488233 V 8.1926593 c 0.4454,-0.419709 0.85654,-0.6424118 1.25056,-0.6424118 0.88224,0 1.22486,0.6938048 1.22486,1.7216637 0,1.1563408 -0.56532,1.8501458 -1.33621,1.8501458 z"
       style="fill:#eeeeee;fill-opacity:1;stroke-width:0.26458335"
       id="path1407"
       inkscape:connector-curvature="0" />
    <path
       d="m 166.81015,11.773034 c 0.20557,0 0.34262,-0.0257 0.45397,-0.06852 l -0.11135,-0.599585 c -0.0857,0.01713 -0.11992,0.01713 -0.16275,0.01713 -0.11991,0 -0.2227,-0.09422 -0.2227,-0.334054 V 4.8435525 h -0.77946 V 10.73661 c 0,0.659543 0.23983,1.036424 0.82229,1.036424 z"
       style="fill:#eeeeee;fill-opacity:1;stroke-width:0.26458335"
       id="path1409"
       inkscape:connector-curvature="0" />
    <path
       d="m 170.30621,11.773034 c 0.63384,0 1.13064,-0.214137 1.54179,-0.479667 l -0.28267,-0.513929 c -0.34262,0.231268 -0.71093,0.368316 -1.1649,0.368316 -0.88225,0 -1.4904,-0.633847 -1.54179,-1.6274436 h 3.13497 c 0.0171,-0.1113514 0.0343,-0.2740957 0.0343,-0.4454055 0,-1.3276511 -0.66811,-2.1842001 -1.85015,-2.1842001 -1.07925,0 -2.09854,0.9422039 -2.09854,2.4497303 0,1.5332229 0.9936,2.4325989 2.22703,2.4325989 z m -1.45614,-2.8094805 c 0.0942,-0.9165075 0.67668,-1.4475679 1.33622,-1.4475679 0.72807,0 1.15634,0.5053639 1.15634,1.4475679 z"
       style="fill:#eeeeee;fill-opacity:1;stroke-width:0.26458335"
       id="path1411"
       inkscape:connector-curvature="0" />
    <path
       d="m 17.64012,22.479898 c 0.282661,0 0.591019,-0.08565 0.856549,-0.17131 L 18.34249,21.726135 c -0.154179,0.05996 -0.368316,0.119917 -0.53106,0.119917 -0.539626,0 -0.719501,-0.325489 -0.719501,-0.899377 v -2.595344 h 1.259127 V 17.717485 H 17.091929 V 16.41553 h -0.650978 l -0.09422,1.301955 -0.728067,0.04283 v 0.591019 h 0.693805 v 2.578213 c 0,0.933639 0.334054,1.550354 1.327651,1.550354 z"
       style="fill:#eeeeee;fill-opacity:1;stroke-width:0.26458335"
       id="path1413"
       inkscape:connector-curvature="0" />
    <path
       d="m 21.077692,22.479898 c 1.13921,0 2.158504,-0.890811 2.158504,-2.432599 0,-1.550354 -1.019294,-2.449731 -2.158504,-2.449731 -1.13921,0 -2.158504,0.899377 -2.158504,2.449731 0,1.541788 1.019294,2.432599 2.158504,2.432599 z m 0,-0.650977 c -0.805156,0 -1.344782,-0.710936 -1.344782,-1.781622 0,-1.070687 0.539626,-1.798754 1.344782,-1.798754 0.805156,0 1.353348,0.728067 1.353348,1.798754 0,1.070686 -0.548192,1.781622 -1.353348,1.781622 z"
       style="fill:#eeeeee;fill-opacity:1;stroke-width:0.26458335"
       id="path1415"
       inkscape:connector-curvature="0" />
    <path
       d="m 27.202687,22.479898 c 0.205572,0 0.34262,-0.0257 0.453971,-0.06852 L 27.545307,21.81179 c -0.08566,0.01713 -0.119917,0.01713 -0.162745,0.01713 -0.119917,0 -0.222702,-0.09422 -0.222702,-0.334055 v -5.94445 H 26.3804 v 5.893057 c 0,0.659543 0.239834,1.036425 0.822287,1.036426 z"
       style="fill:#eeeeee;fill-opacity:1;stroke-width:0.26458335"
       id="path1417"
       inkscape:connector-curvature="0" />
    <path
       d="m 30.698746,22.479898 c 0.633847,0 1.130645,-0.214137 1.541789,-0.479668 l -0.282662,-0.513929 c -0.342619,0.231268 -0.710935,0.368316 -1.164906,0.368316 -0.882246,0 -1.490396,-0.633846 -1.541789,-1.627443 h 3.13497 c 0.01713,-0.111352 0.03426,-0.274096 0.03426,-0.445406 0,-1.327651 -0.668108,-2.1842 -1.850146,-2.1842 -1.079252,0 -2.098545,0.942204 -2.098545,2.449731 0,1.533222 0.993597,2.432599 2.227027,2.432599 z m -1.456133,-2.809481 c 0.09422,-0.916508 0.676674,-1.447568 1.336216,-1.447568 0.728067,0 1.156342,0.505364 1.156342,1.447568 z"
       style="fill:#eeeeee;fill-opacity:1;stroke-width:0.26458335"
       id="path1419"
       inkscape:connector-curvature="0" />
    <path
       d="m 34.510926,22.479898 c 0.573887,0 1.096382,-0.299792 1.541788,-0.668108 h 0.0257 l 0.06852,0.556756 h 0.642412 v -2.860873 c 0,-1.147776 -0.479667,-1.910105 -1.610312,-1.910105 -0.745198,0 -1.404741,0.334054 -1.833015,0.60815 l 0.308357,0.539626 c 0.368317,-0.248399 0.85655,-0.496799 1.396175,-0.496799 0.762329,0 0.959335,0.573888 0.959335,1.173473 -1.978628,0.222702 -2.860873,0.728066 -2.860873,1.738794 0,0.839418 0.582453,1.319086 1.361913,1.319086 z m 0.222702,-0.625281 c -0.462536,0 -0.822287,-0.214137 -0.822287,-0.745198 0,-0.599584 0.531061,-0.985031 2.098545,-1.173472 v 1.301955 c -0.453971,0.402578 -0.822287,0.616715 -1.276258,0.616715 z"
       style="fill:#eeeeee;fill-opacity:1;stroke-width:0.26458335"
       id="path1421"
       inkscape:connector-curvature="0" />
    <path
       d="m 38.275057,22.368546 h 0.77946 V 19.37919 c 0.308357,-0.79659 0.788025,-1.070686 1.173472,-1.070686 0.188441,0 0.299792,0.01713 0.453971,0.07709 l 0.145613,-0.685239 c -0.145613,-0.07709 -0.291226,-0.102786 -0.496798,-0.102786 -0.522495,0 -0.993597,0.376882 -1.319086,0.967901 h -0.0257 l -0.06852,-0.847984 h -0.642412 z"
       style="fill:#eeeeee;fill-opacity:1;stroke-width:0.26458335"
       id="path1423"
       inkscape:connector-curvature="0" />
    <path
       d="m 41.604222,22.368546 h 0.779459 v -3.374803 c 0.471102,-0.471102 0.796591,-0.710936 1.276258,-0.710936 0.616716,0 0.882246,0.368317 0.882246,1.241997 v 2.843742 h 0.77946 v -2.946528 c 0,-1.190604 -0.445406,-1.82445 -1.421872,-1.82445 -0.633846,0 -1.113514,0.351185 -1.558919,0.788025 h -0.0257 l -0.06852,-0.668108 h -0.642411 z"
       style="fill:#eeeeee;fill-opacity:1;stroke-width:0.26458335"
       id="path1425"
       inkscape:connector-curvature="0" />
    <path
       d="m 48.71639,22.479898 c 0.633847,0 1.130645,-0.214137 1.541789,-0.479668 l -0.282662,-0.513929 c -0.342619,0.231268 -0.710935,0.368316 -1.164906,0.368316 -0.882246,0 -1.490396,-0.633846 -1.541789,-1.627443 h 3.13497 c 0.01713,-0.111352 0.03426,-0.274096 0.03426,-0.445406 0,-1.327651 -0.668108,-2.1842 -1.850146,-2.1842 -1.079252,0 -2.098545,0.942204 -2.098545,2.449731 0,1.533222 0.993597,2.432599 2.227027,2.432599 z m -1.456133,-2.809481 c 0.09422,-0.916508 0.676674,-1.447568 1.336216,-1.447568 0.728067,0 1.156342,0.505364 1.156342,1.447568 z"
       style="fill:#eeeeee;fill-opacity:1;stroke-width:0.26458335"
       id="path1427"
       inkscape:connector-curvature="0" />
    <path
       d="m 51.591719,22.368546 h 0.77946 V 19.37919 c 0.308357,-0.79659 0.788025,-1.070686 1.173472,-1.070686 0.188441,0 0.299792,0.01713 0.453971,0.07709 l 0.145613,-0.685239 c -0.145613,-0.07709 -0.291227,-0.102786 -0.496798,-0.102786 -0.522495,0 -0.993597,0.376882 -1.319086,0.967901 h -0.0257 l -0.06852,-0.847984 h -0.642412 z"
       style="fill:#eeeeee;fill-opacity:1;stroke-width:0.26458335"
       id="path1429"
       inkscape:connector-curvature="0" />
    <path
       d="m 56.103722,22.479898 c 1.096383,0 1.695968,-0.625281 1.695968,-1.379044 0,-0.882246 -0.745198,-1.156341 -1.421872,-1.413306 -0.522495,-0.197006 -1.027859,-0.359751 -1.027859,-0.805156 0,-0.359751 0.265531,-0.668109 0.847984,-0.668109 0.419709,0 0.745198,0.17131 1.070686,0.411144 l 0.376882,-0.505364 c -0.368316,-0.282661 -0.87368,-0.522495 -1.447568,-0.522495 -1.010728,0 -1.601747,0.582454 -1.601747,1.319086 0,0.788025 0.736632,1.104948 1.38761,1.344782 0.513929,0.197006 1.06212,0.411143 1.06212,0.882245 0,0.402578 -0.299792,0.728067 -0.916507,0.728067 -0.556757,0 -0.976466,-0.222703 -1.379044,-0.548191 l -0.385447,0.513929 c 0.445405,0.368316 1.079252,0.642412 1.738794,0.642412 z"
       style="fill:#eeeeee;fill-opacity:1;stroke-width:0.26458335"
       id="path1431"
       inkscape:connector-curvature="0" />
    <path
       d="m 62.633706,22.479898 c 1.13921,0 2.158504,-0.890811 2.158504,-2.432599 0,-1.550354 -1.019294,-2.449731 -2.158504,-2.449731 -1.13921,0 -2.158503,0.899377 -2.158503,2.449731 0,1.541788 1.019293,2.432599 2.158503,2.432599 z m 0,-0.650977 c -0.805156,0 -1.344782,-0.710936 -1.344782,-1.781622 0,-1.070687 0.539626,-1.798754 1.344782,-1.798754 0.805156,0 1.353348,0.728067 1.353348,1.798754 0,1.070686 -0.548192,1.781622 -1.353348,1.781622 z"
       style="fill:#eeeeee;fill-opacity:1;stroke-width:0.26458335"
       id="path1433"
       inkscape:connector-curvature="0" />
    <path
       d="m 68.273815,15.593243 c -0.222702,-0.09422 -0.496798,-0.154179 -0.779459,-0.154179 -0.925073,0 -1.353348,0.591019 -1.353348,1.533223 v 0.745198 l -0.633846,0.04283 v 0.591019 h 0.633846 v 4.017215 h 0.77946 v -4.017215 h 0.985031 v -0.633846 h -0.985031 v -0.736632 c 0,-0.599585 0.214137,-0.916508 0.659543,-0.916508 0.162744,0 0.351185,0.04283 0.522495,0.119917 z"
       style="fill:#eeeeee;fill-opacity:1;stroke-width:0.26458335"
       id="path1435"
       inkscape:connector-curvature="0" />
    <path
       d="m 70.713507,24.330044 h 0.77946 v -1.57605 l -0.01713,-0.813722 c 0.419709,0.34262 0.865114,0.539626 1.284823,0.539626 1.070687,0 2.021456,-0.916508 2.021456,-2.509689 0,-1.430437 -0.650977,-2.372641 -1.850146,-2.372641 -0.539626,0 -1.062121,0.308358 -1.48183,0.650977 h -0.0257 l -0.06852,-0.53106 h -0.642412 z m 1.91867,-2.501123 c -0.308358,0 -0.719501,-0.128483 -1.13921,-0.488233 v -2.441165 c 0.453971,-0.419709 0.856549,-0.642412 1.250561,-0.642412 0.882246,0 1.224865,0.693805 1.224865,1.721664 0,1.156341 -0.565322,1.850146 -1.336216,1.850146 z"
       style="fill:#eeeeee;fill-opacity:1;stroke-width:0.26458335"
       id="path1437"
       inkscape:connector-curvature="0" />
    <path
       d="m 76.9536,22.479898 c 0.573888,0 1.096383,-0.299792 1.541789,-0.668108 h 0.0257 l 0.06852,0.556756 h 0.642412 v -2.860873 c 0,-1.147776 -0.479668,-1.910105 -1.610313,-1.910105 -0.745197,0 -1.40474,0.334054 -1.833015,0.60815 l 0.308358,0.539626 c 0.368316,-0.248399 0.856549,-0.496799 1.396175,-0.496799 0.762329,0 0.959335,0.573888 0.959335,1.173473 -1.978628,0.222702 -2.860874,0.728066 -2.860874,1.738794 0,0.839418 0.582454,1.319086 1.361913,1.319086 z m 0.222703,-0.625281 c -0.462537,0 -0.822287,-0.214137 -0.822287,-0.745198 0,-0.599584 0.53106,-0.985031 2.098545,-1.173472 v 1.301955 c -0.453971,0.402578 -0.822287,0.616715 -1.276258,0.616715 z"
       style="fill:#eeeeee;fill-opacity:1;stroke-width:0.26458335"
       id="path1439"
       inkscape:connector-curvature="0" />
    <path
       d="m 80.717734,22.368546 h 0.779459 V 19.37919 c 0.308358,-0.79659 0.788025,-1.070686 1.173473,-1.070686 0.18844,0 0.299792,0.01713 0.453971,0.07709 l 0.145613,-0.685239 c -0.145613,-0.07709 -0.291227,-0.102786 -0.496799,-0.102786 -0.522495,0 -0.993597,0.376882 -1.319085,0.967901 h -0.0257 l -0.06852,-0.847984 h -0.642411 z"
       style="fill:#eeeeee;fill-opacity:1;stroke-width:0.26458335"
       id="path1441"
       inkscape:connector-curvature="0" />
    <path
       d="m 85.511595,22.479898 c 0.282661,0 0.591019,-0.08565 0.856549,-0.17131 l -0.154179,-0.582453 c -0.154178,0.05996 -0.368316,0.119917 -0.53106,0.119917 -0.539626,0 -0.719501,-0.325489 -0.719501,-0.899377 v -2.595344 h 1.259127 V 17.717485 H 84.963404 V 16.41553 h -0.650978 l -0.09422,1.301955 -0.728067,0.04283 v 0.591019 h 0.693805 v 2.578213 c 0,0.933639 0.334054,1.550354 1.327651,1.550354 z"
       style="fill:#eeeeee;fill-opacity:1;stroke-width:0.26458335"
       id="path1443"
       inkscape:connector-curvature="0" />
    <path
       d="m 87.275687,22.368546 h 0.779459 v -4.651061 h -0.779459 z m 0.394012,-5.610396 c 0.308358,0 0.539626,-0.214137 0.539626,-0.505364 0,-0.316923 -0.231268,-0.505364 -0.539626,-0.505364 -0.308358,0 -0.539626,0.188441 -0.539626,0.505364 0,0.291227 0.231268,0.505364 0.539626,0.505364 z"
       style="fill:#eeeeee;fill-opacity:1;stroke-width:0.26458335"
       id="path1445"
       inkscape:connector-curvature="0" />
    <path
       d="m 91.467558,22.479898 c 0.556757,0 1.087817,-0.214137 1.498961,-0.591019 l -0.334055,-0.522495 c -0.291226,0.26553 -0.668108,0.462537 -1.096382,0.462537 -0.856549,0 -1.439003,-0.710936 -1.439003,-1.781622 0,-1.070687 0.616716,-1.798754 1.456134,-1.798754 0.376881,0 0.659542,0.17131 0.933638,0.419709 l 0.402578,-0.522494 c -0.334054,-0.291227 -0.753763,-0.548192 -1.361913,-0.548192 -1.190603,0 -2.244158,0.899377 -2.244158,2.449731 0,1.541788 0.950769,2.432599 2.1842,2.432599 z"
       style="fill:#eeeeee;fill-opacity:1;stroke-width:0.26458335"
       id="path1447"
       inkscape:connector-curvature="0" />
    <path
       d="m 95.354284,22.479898 c 0.642412,0 1.104949,-0.334054 1.541789,-0.839418 h 0.0257 l 0.05996,0.728066 h 0.650977 v -4.651061 h -0.77946 v 3.297714 c -0.445405,0.556757 -0.779459,0.788025 -1.259127,0.788025 -0.616715,0 -0.87368,-0.368316 -0.87368,-1.233431 v -2.852308 h -0.77946 v 2.946529 c 0,1.182038 0.43684,1.815884 1.413306,1.815884 z"
       style="fill:#eeeeee;fill-opacity:1;stroke-width:0.26458335"
       id="path1449"
       inkscape:connector-curvature="0" />
    <path
       d="m 100.02609,22.479898 c 0.20557,0 0.34262,-0.0257 0.45397,-0.06852 l -0.11135,-0.599584 c -0.0857,0.01713 -0.11992,0.01713 -0.16275,0.01713 -0.11991,0 -0.222698,-0.09422 -0.222698,-0.334055 v -5.94445 h -0.77946 v 5.893057 c 0,0.659543 0.239834,1.036425 0.822288,1.036425 z"
       style="fill:#eeeeee;fill-opacity:1;stroke-width:0.26458335"
       id="path1451"
       inkscape:connector-curvature="0" />
    <path
       d="m 102.71699,22.479898 c 0.57389,0 1.09639,-0.299792 1.54179,-0.668108 h 0.0257 l 0.0685,0.556756 h 0.64241 v -2.860873 c 0,-1.147776 -0.47966,-1.910105 -1.61031,-1.910105 -0.7452,0 -1.40474,0.334054 -1.83301,0.60815 l 0.30835,0.539626 c 0.36832,-0.248399 0.85655,-0.496799 1.39618,-0.496799 0.76233,0 0.95933,0.573888 0.95933,1.173473 -1.97862,0.222702 -2.86087,0.728066 -2.86087,1.738794 0,0.839418 0.58245,1.319086 1.36191,1.319086 z m 0.22271,-0.625281 c -0.46254,0 -0.82229,-0.214137 -0.82229,-0.745198 0,-0.599584 0.53106,-0.985031 2.09854,-1.173472 v 1.301955 c -0.45397,0.402578 -0.82228,0.616715 -1.27625,0.616715 z"
       style="fill:#eeeeee;fill-opacity:1;stroke-width:0.26458335"
       id="path1453"
       inkscape:connector-curvature="0" />
    <path
       d="m 106.48112,22.368546 h 0.77946 V 19.37919 c 0.30836,-0.79659 0.78803,-1.070686 1.17348,-1.070686 0.18844,0 0.29979,0.01713 0.45397,0.07709 l 0.14561,-0.685239 c -0.14561,-0.07709 -0.29123,-0.102786 -0.4968,-0.102786 -0.52249,0 -0.9936,0.376882 -1.31908,0.967901 h -0.0257 l -0.0685,-0.847984 h -0.64242 z"
       style="fill:#eeeeee;fill-opacity:1;stroke-width:0.26458335"
       id="path1455"
       inkscape:connector-curvature="0" />
    <path
       d="m 112.95047,22.479898 c 1.09639,0 1.69597,-0.625281 1.69597,-1.379044 0,-0.882246 -0.7452,-1.156341 -1.42187,-1.413306 -0.52249,-0.197006 -1.02786,-0.359751 -1.02786,-0.805156 0,-0.359751 0.26553,-0.668109 0.84799,-0.668109 0.4197,0 0.74519,0.17131 1.07068,0.411144 l 0.37688,-0.505364 c -0.36831,-0.282661 -0.87368,-0.522495 -1.44756,-0.522495 -1.01073,0 -1.60175,0.582454 -1.60175,1.319086 0,0.788025 0.73663,1.104948 1.38761,1.344782 0.51393,0.197006 1.06212,0.411143 1.06212,0.882245 0,0.402578 -0.29979,0.728067 -0.91651,0.728067 -0.55676,0 -0.97646,-0.222703 -1.37904,-0.548191 l -0.38545,0.513929 c 0.44541,0.368316 1.07925,0.642412 1.73879,0.642412 z"
       style="fill:#eeeeee;fill-opacity:1;stroke-width:0.26458335"
       id="path1457"
       inkscape:connector-curvature="0" />
    <path
       d="m 115.74925,22.368546 h 0.77089 v -1.224865 l 0.87368,-1.019293 1.36192,2.244158 h 0.84798 l -1.76449,-2.783784 1.55892,-1.867277 h -0.86511 l -1.99576,2.458296 h -0.0171 v -4.625365 h -0.77089 z"
       style="fill:#eeeeee;fill-opacity:1;stroke-width:0.26458335"
       id="path1459"
       inkscape:connector-curvature="0" />
    <path
       d="m 120.48369,22.368546 h 0.77946 v -4.651061 h -0.77946 z m 0.39402,-5.610396 c 0.30835,0 0.53962,-0.214137 0.53962,-0.505364 0,-0.316923 -0.23127,-0.505364 -0.53962,-0.505364 -0.30836,0 -0.53963,0.188441 -0.53963,0.505364 0,0.291227 0.23127,0.505364 0.53963,0.505364 z"
       style="fill:#eeeeee;fill-opacity:1;stroke-width:0.26458335"
       id="path1461"
       inkscape:connector-curvature="0" />
    <path
       d="m 123.66484,22.479898 c 0.20557,0 0.34262,-0.0257 0.45397,-0.06852 l -0.11135,-0.599584 c -0.0857,0.01713 -0.11992,0.01713 -0.16275,0.01713 -0.11991,0 -0.2227,-0.09422 -0.2227,-0.334055 v -5.94445 h -0.77946 v 5.893057 c 0,0.659543 0.23983,1.036425 0.82229,1.036425 z"
       style="fill:#eeeeee;fill-opacity:1;stroke-width:0.26458335"
       id="path1463"
       inkscape:connector-curvature="0" />
    <path
       d="m 126.10733,22.479898 c 0.20558,0 0.34262,-0.0257 0.45398,-0.06852 l -0.11136,-0.599584 c -0.0857,0.01713 -0.11991,0.01713 -0.16274,0.01713 -0.11992,0 -0.2227,-0.09422 -0.2227,-0.334055 v -5.94445 h -0.77946 v 5.893057 c 0,0.659543 0.23983,1.036425 0.82228,1.036425 z"
       style="fill:#eeeeee;fill-opacity:1;stroke-width:0.26458335"
       id="path1465"
       inkscape:connector-curvature="0" />
    <path
       d="m 130.47373,22.479898 c 0.20557,0 0.34262,-0.0257 0.45397,-0.06852 l -0.11135,-0.599584 c -0.0857,0.01713 -0.11992,0.01713 -0.16275,0.01713 -0.11991,0 -0.2227,-0.09422 -0.2227,-0.334055 v -5.94445 h -0.77946 v 5.893057 c 0,0.659543 0.23984,1.036425 0.82229,1.036425 z"
       style="fill:#eeeeee;fill-opacity:1;stroke-width:0.26458335"
       id="path1467"
       inkscape:connector-curvature="0" />
    <path
       d="m 133.96979,22.479898 c 0.63385,0 1.13064,-0.214137 1.54179,-0.479668 l -0.28266,-0.513929 c -0.34262,0.231268 -0.71094,0.368316 -1.16491,0.368316 -0.88225,0 -1.4904,-0.633846 -1.54179,-1.627443 h 3.13497 c 0.0171,-0.111352 0.0343,-0.274096 0.0343,-0.445406 0,-1.327651 -0.66811,-2.1842 -1.85014,-2.1842 -1.07926,0 -2.09855,0.942204 -2.09855,2.449731 0,1.533222 0.9936,2.432599 2.22703,2.432599 z m -1.45613,-2.809481 c 0.0942,-0.916508 0.67667,-1.447568 1.33621,-1.447568 0.72807,0 1.15634,0.505364 1.15634,1.447568 z"
       style="fill:#eeeeee;fill-opacity:1;stroke-width:0.26458335"
       id="path1469"
       inkscape:connector-curvature="0" />
    <path
       d="m 137.89747,22.368546 h 0.90794 l 1.65314,-4.651061 h -0.77089 l -0.88225,2.646737 c -0.13705,0.453971 -0.29122,0.933638 -0.42827,1.370478 h -0.0343 c -0.14562,-0.43684 -0.29123,-0.916507 -0.43684,-1.370478 l -0.87368,-2.646737 h -0.81373 z"
       style="fill:#eeeeee;fill-opacity:1;stroke-width:0.26458335"
       id="path1471"
       inkscape:connector-curvature="0" />
    <path
       d="m 143.20446,22.479898 c 0.63385,0 1.13065,-0.214137 1.54179,-0.479668 l -0.28266,-0.513929 c -0.34262,0.231268 -0.71094,0.368316 -1.16491,0.368316 -0.88224,0 -1.49039,-0.633846 -1.54179,-1.627443 h 3.13497 c 0.0171,-0.111352 0.0343,-0.274096 0.0343,-0.445406 0,-1.327651 -0.66811,-2.1842 -1.85015,-2.1842 -1.07925,0 -2.09855,0.942204 -2.09855,2.449731 0,1.533222 0.9936,2.432599 2.22703,2.432599 z m -1.45613,-2.809481 c 0.0942,-0.916508 0.67667,-1.447568 1.33621,-1.447568 0.72807,0 1.15635,0.505364 1.15635,1.447568 z"
       style="fill:#eeeeee;fill-opacity:1;stroke-width:0.26458335"
       id="path1473"
       inkscape:connector-curvature="0" />
    <path
       d="m 146.90208,22.479898 c 0.20557,0 0.34262,-0.0257 0.45397,-0.06852 L 147.2447,21.81179 c -0.0856,0.01713 -0.11992,0.01713 -0.16274,0.01713 -0.11992,0 -0.22271,-0.09422 -0.22271,-0.334055 v -5.94445 h -0.77946 v 5.893057 c 0,0.659543 0.23984,1.036425 0.82229,1.036426 z"
       style="fill:#eeeeee;fill-opacity:1;stroke-width:0.26458335"
       id="path1475"
       inkscape:connector-curvature="0" />
    <path
       d="m 149.73858,22.479898 c 1.09639,0 1.69597,-0.625281 1.69597,-1.379044 0,-0.882246 -0.7452,-1.156341 -1.42187,-1.413306 -0.5225,-0.197006 -1.02786,-0.359751 -1.02786,-0.805156 0,-0.359751 0.26553,-0.668109 0.84798,-0.668109 0.41971,0 0.7452,0.17131 1.07069,0.411144 l 0.37688,-0.505364 c -0.36831,-0.282661 -0.87368,-0.522495 -1.44757,-0.522495 -1.01072,0 -1.60174,0.582454 -1.60174,1.319086 0,0.788025 0.73663,1.104948 1.38761,1.344782 0.51393,0.197006 1.06212,0.411143 1.06212,0.882245 0,0.402578 -0.29979,0.728067 -0.91651,0.728067 -0.55676,0 -0.97647,-0.222703 -1.37904,-0.548191 l -0.38545,0.513929 c 0.4454,0.368316 1.07925,0.642412 1.73879,0.642412 z"
       style="fill:#eeeeee;fill-opacity:1;stroke-width:0.26458335"
       id="path1477"
       inkscape:connector-curvature="0" />
  </g>
  <path
     style="fill:none;stroke:#7b7b7b;stroke-width:3;stroke-linecap:butt;stroke-linejoin:miter;stroke-miterlimit:4;stroke-dasharray:none;stroke-opacity:1;marker-end:url(#Arrow1Send)"
     d="M 32.959661,30.815508 V 109.39275 H 167.12896"
     id="path815"
     inkscape:connector-curvature="0" />
  <g
     aria-label="a lot"
     style="font-style:normal;font-variant:normal;font-weight:normal;font-stretch:normal;font-size:8.30504131px;line-height:1.25;font-family:'Noto Sans CJK KR';-inkscape-font-specification:'Noto Sans CJK KR';letter-spacing:0px;word-spacing:0px;fill:#eeeeee;fill-opacity:1;stroke:none;stroke-width:0.26458332"
     id="text819"
     transform="translate(-13.545236,-25.641916)" />
  <g
     aria-label="a little"
     style="font-style:normal;font-variant:normal;font-weight:normal;font-stretch:normal;font-size:8.30504131px;line-height:1.25;font-family:'Noto Sans CJK KR';-inkscape-font-specification:'Noto Sans CJK KR';letter-spacing:0px;word-spacing:0px;fill:#eeeeee;fill-opacity:1;stroke:none;stroke-width:0.26458332"
     id="text823"
     transform="translate(-13.545236,-25.641916)" />
  <g
     aria-label="never heard of it"
     transform="rotate(75,9.9359798,-21.647206)"
     style="font-style:normal;font-variant:normal;font-weight:normal;font-stretch:normal;font-size:8.30504131px;line-height:1.25;font-family:'Noto Sans CJK KR';-inkscape-font-specification:'Noto Sans CJK KR';letter-spacing:0px;word-spacing:0px;fill:#eeeeee;fill-opacity:1;stroke:none;stroke-width:0.26458332"
     id="text827">
    <path
       d="m 148.65747,-8.2932558 h 0.75575 v -3.2721862 c 0.45678,-0.456777 0.77237,-0.689319 1.23746,-0.689319 0.59796,0 0.85542,0.357117 0.85542,1.204231 v 2.7572742 h 0.75575 V -11.15019 c 0,-1.154401 -0.43186,-1.768974 -1.37863,-1.768974 -0.61458,0 -1.07966,0.340507 -1.51152,0.764064 h -0.0249 l -0.0664,-0.647793 h -0.62287 z"
       style="fill:#eeeeee;fill-opacity:1;stroke-width:0.26458332"
       id="path1338"
       inkscape:connector-curvature="0" />
    <path
       d="m 155.55338,-8.1852903 c 0.61457,0 1.09626,-0.207626 1.4949,-0.4650823 l -0.27406,-0.4983025 c -0.33221,0.2242362 -0.68932,0.3571168 -1.12949,0.3571168 -0.85542,0 -1.44508,-0.614573 -1.49491,-1.5779577 h 3.03965 c 0.0166,-0.107966 0.0332,-0.265761 0.0332,-0.431862 0,-1.287282 -0.64779,-2.117786 -1.79389,-2.117786 -1.04644,0 -2.03474,0.913555 -2.03474,2.375242 0,1.4866024 0.96339,2.3586317 2.15932,2.3586317 z m -1.41186,-2.7240537 c 0.0913,-0.888639 0.6561,-1.403552 1.29558,-1.403552 0.70593,0 1.12119,0.489998 1.12119,1.403552 z"
       style="fill:#eeeeee;fill-opacity:1;stroke-width:0.26458332"
       id="path1340"
       inkscape:connector-curvature="0" />
    <path
       d="m 159.36163,-8.2932558 h 0.88033 l 1.60287,-4.5096372 h -0.74745 l -0.85542,2.566258 c -0.13288,0.4401667 -0.28237,0.905249 -0.41525,1.3288061 h -0.0332 c -0.14119,-0.4235571 -0.28237,-0.8886394 -0.42356,-1.3288061 l -0.84711,-2.566258 h -0.78898 z"
       style="fill:#eeeeee;fill-opacity:1;stroke-width:0.26458332"
       id="path1342"
       inkscape:connector-curvature="0" />
    <path
       d="m 164.50725,-8.1852903 c 0.61457,0 1.09626,-0.207626 1.49491,-0.4650823 l -0.27407,-0.4983025 c -0.3322,0.2242362 -0.68932,0.3571168 -1.12949,0.3571168 -0.85542,0 -1.44507,-0.614573 -1.4949,-1.5779577 h 3.03964 c 0.0166,-0.107966 0.0332,-0.265761 0.0332,-0.431862 0,-1.287282 -0.64779,-2.117786 -1.79389,-2.117786 -1.04643,0 -2.03473,0.913555 -2.03473,2.375242 0,1.4866024 0.96338,2.3586317 2.15931,2.3586317 z m -1.41186,-2.7240537 c 0.0914,-0.888639 0.6561,-1.403552 1.29559,-1.403552 0.70593,0 1.12118,0.489998 1.12118,1.403552 z"
       style="fill:#eeeeee;fill-opacity:1;stroke-width:0.26458332"
       id="path1344"
       inkscape:connector-curvature="0" />
    <path
       d="m 167.29515,-8.2932558 h 0.75575 v -2.8984592 c 0.29899,-0.772369 0.76407,-1.03813 1.1378,-1.03813 0.18271,0 0.29067,0.01661 0.44016,0.07475 l 0.14119,-0.664403 c -0.14119,-0.07475 -0.28237,-0.09966 -0.48169,-0.09966 -0.50661,0 -0.96339,0.365422 -1.27898,0.93847 h -0.0249 l -0.0664,-0.822199 h -0.62287 z"
       style="fill:#eeeeee;fill-opacity:1;stroke-width:0.26458332"
       id="path1346"
       inkscape:connector-curvature="0" />
    <path
       d="m 172.38847,-8.2932558 h 0.75576 v -3.2721862 c 0.45678,-0.456777 0.77237,-0.689319 1.23745,-0.689319 0.59797,0 0.85542,0.357117 0.85542,1.204231 v 2.7572742 h 0.75576 V -11.15019 c 0,-1.154401 -0.43186,-1.768974 -1.37864,-1.768974 -0.61457,0 -1.07965,0.340507 -1.4949,0.755759 l 0.0249,-0.930165 v -1.810499 h -0.75576 z"
       style="fill:#eeeeee;fill-opacity:1;stroke-width:0.26458332"
       id="path1348"
       inkscape:connector-curvature="0" />
    <path
       d="m 179.25194,-8.1852903 c 0.61457,0 1.09627,-0.207626 1.49491,-0.4650823 l -0.27407,-0.4983025 c -0.3322,0.2242362 -0.68932,0.3571168 -1.12948,0.3571168 -0.85542,0 -1.44508,-0.614573 -1.49491,-1.5779577 h 3.03964 c 0.0166,-0.107966 0.0332,-0.265761 0.0332,-0.431862 0,-1.287282 -0.64779,-2.117786 -1.79388,-2.117786 -1.04644,0 -2.03474,0.913555 -2.03474,2.375242 0,1.4866024 0.96339,2.3586317 2.15931,2.3586317 z m -1.41186,-2.7240537 c 0.0914,-0.888639 0.6561,-1.403552 1.29559,-1.403552 0.70593,0 1.12118,0.489998 1.12118,1.403552 z"
       style="fill:#eeeeee;fill-opacity:1;stroke-width:0.26458332"
       id="path1350"
       inkscape:connector-curvature="0" />
    <path
       d="m 182.94821,-8.1852903 c 0.55643,0 1.06304,-0.2906764 1.4949,-0.6477932 h 0.0249 l 0.0664,0.5398277 h 0.62288 V -11.06714 c 0,-1.112875 -0.46509,-1.852024 -1.56135,-1.852024 -0.72254,0 -1.36203,0.323897 -1.77728,0.589658 l 0.29898,0.523218 c 0.35712,-0.240846 0.83051,-0.481693 1.35372,-0.481693 0.73915,0 0.93017,0.556438 0.93017,1.137791 -1.91847,0.215931 -2.77389,0.705928 -2.77389,1.6859234 0,0.813894 0.56475,1.2789763 1.32051,1.2789763 z m 0.21593,-0.606268 c -0.44848,0 -0.79729,-0.207626 -0.79729,-0.7225386 0,-0.5813531 0.51491,-0.9550801 2.03474,-1.1377911 v 1.2623667 c -0.44017,0.390337 -0.79729,0.597963 -1.23745,0.597963 z"
       style="fill:#eeeeee;fill-opacity:1;stroke-width:0.26458332"
       id="path1352"
       inkscape:connector-curvature="0" />
    <path
       d="m 186.59788,-8.2932558 h 0.75576 v -2.8984592 c 0.29898,-0.772369 0.76406,-1.03813 1.13779,-1.03813 0.18271,0 0.29068,0.01661 0.44017,0.07475 l 0.14118,-0.664403 c -0.14118,-0.07475 -0.28237,-0.09966 -0.48169,-0.09966 -0.50661,0 -0.96338,0.365422 -1.27898,0.93847 h -0.0249 l -0.0664,-0.822199 h -0.62288 z"
       style="fill:#eeeeee;fill-opacity:1;stroke-width:0.26458332"
       id="path1354"
       inkscape:connector-curvature="0" />
    <path
       d="m 191.26492,-8.1852903 c 0.53983,0 1.01322,-0.2906764 1.37034,-0.6394882 h 0.0166 l 0.0747,0.5315227 h 0.61457 v -6.6108132 h -0.75575 v 1.735754 l 0.0415,0.780674 c -0.39864,-0.332202 -0.73915,-0.531523 -1.27067,-0.531523 -1.02983,0 -1.95168,0.913555 -1.95168,2.375242 0,1.5032125 0.73084,2.3586317 1.86032,2.3586317 z m 0.16611,-0.6311831 c -0.79729,0 -1.24576,-0.6477932 -1.24576,-1.7357536 0,-1.029825 0.57305,-1.727449 1.30389,-1.727449 0.37373,0 0.71423,0.132881 1.09627,0.473388 v 2.3669365 c -0.37373,0.4152521 -0.73915,0.6228781 -1.1544,0.6228781 z"
       style="fill:#eeeeee;fill-opacity:1;stroke-width:0.26458332"
       id="path1356"
       inkscape:connector-curvature="0" />
    <path
       d="m 198.48823,-8.1852903 c 1.10457,0 2.09287,-0.8637243 2.09287,-2.3586317 0,-1.503212 -0.9883,-2.375242 -2.09287,-2.375242 -1.10457,0 -2.09287,0.87203 -2.09287,2.375242 0,1.4949074 0.9883,2.3586317 2.09287,2.3586317 z m 0,-0.6311831 c -0.78067,0 -1.30389,-0.6893184 -1.30389,-1.7274486 0,-1.03813 0.52322,-1.744059 1.30389,-1.744059 0.78068,0 1.3122,0.705929 1.3122,1.744059 0,1.0381302 -0.53152,1.7274486 -1.3122,1.7274486 z"
       style="fill:#eeeeee;fill-opacity:1;stroke-width:0.26458332"
       id="path1358"
       inkscape:connector-curvature="0" />
    <path
       d="m 203.95684,-14.862543 c -0.21593,-0.09136 -0.48169,-0.149491 -0.75576,-0.149491 -0.89694,0 -1.31219,0.573048 -1.31219,1.486602 v 0.722539 l -0.61458,0.04153 v 0.573048 h 0.61458 v 3.8950642 h 0.75576 V -12.18832 h 0.95508 v -0.614573 h -0.95508 v -0.714234 c 0,-0.581353 0.20762,-0.888639 0.63948,-0.888639 0.1578,0 0.34051,0.04153 0.50661,0.11627 z"
       style="fill:#eeeeee;fill-opacity:1;stroke-width:0.26458332"
       id="path1360"
       inkscape:connector-curvature="0" />
    <path
       d="m 206.32235,-8.2932558 h 0.75576 v -4.5096372 h -0.75576 z m 0.38203,-5.4398022 c 0.29899,0 0.52322,-0.207626 0.52322,-0.489997 0,-0.307287 -0.22423,-0.489998 -0.52322,-0.489998 -0.29898,0 -0.52321,0.182711 -0.52321,0.489998 0,0.282371 0.22423,0.489997 0.52321,0.489997 z"
       style="fill:#eeeeee;fill-opacity:1;stroke-width:0.26458332"
       id="path1362"
       inkscape:connector-curvature="0" />
    <path
       d="m 210.02965,-8.1852903 c 0.27406,0 0.57304,-0.08305 0.8305,-0.1661008 l -0.14949,-0.5647428 c -0.14949,0.058135 -0.35712,0.1162706 -0.51491,0.1162706 -0.52322,0 -0.69763,-0.3155916 -0.69763,-0.8720294 V -12.18832 h 1.22085 v -0.614573 h -1.22085 v -1.262367 h -0.63118 l -0.0914,1.262367 -0.70593,0.04153 v 0.573048 h 0.67271 v 2.4998173 c 0,0.9052495 0.32389,1.5032124 1.28728,1.5032124 z"
       style="fill:#eeeeee;fill-opacity:1;stroke-width:0.26458332"
       id="path1364"
       inkscape:connector-curvature="0" />
  </g>
  <g
     aria-label="beginner"
     transform="rotate(75,9.9359798,-21.647206)"
     style="font-style:normal;font-variant:normal;font-weight:normal;font-stretch:normal;font-size:8.30504131px;line-height:1.25;font-family:'Noto Sans CJK KR';-inkscape-font-specification:'Noto Sans CJK KR';letter-spacing:0px;word-spacing:0px;fill:#eeeeee;fill-opacity:1;stroke:none;stroke-width:0.26458332"
     id="text831">
    <path
       d="m 158.15192,-39.117079 c 1.03813,0 1.95999,-0.888639 1.95999,-2.441682 0,-1.378637 -0.63118,-2.292191 -1.80219,-2.292191 -0.4983,0 -1.00491,0.282371 -1.41186,0.639488 l 0.0249,-0.813894 v -1.810499 H 156.167 v 6.610813 h 0.60627 l 0.0664,-0.465083 h 0.0249 c 0.39864,0.365422 0.87203,0.573048 1.28728,0.573048 z m -0.12457,-0.631183 c -0.29898,0 -0.70593,-0.124575 -1.10457,-0.473387 v -2.366937 c 0.43186,-0.406947 0.8305,-0.622878 1.21253,-0.622878 0.85542,0 1.18762,0.672708 1.18762,1.669313 0,1.121181 -0.54813,1.793889 -1.29558,1.793889 z"
       style="fill:#eeeeee;fill-opacity:1;stroke-width:0.26458332"
       id="path1321"
       inkscape:connector-curvature="0" />
    <path
       d="m 163.11159,-39.117079 c 0.61457,0 1.09627,-0.207626 1.49491,-0.465082 l -0.27407,-0.498303 c -0.3322,0.224237 -0.68932,0.357117 -1.12948,0.357117 -0.85542,0 -1.44508,-0.614573 -1.49491,-1.577958 h 3.03964 c 0.0166,-0.107965 0.0332,-0.265761 0.0332,-0.431862 0,-1.287281 -0.64779,-2.117785 -1.79389,-2.117785 -1.04643,0 -2.03473,0.913554 -2.03473,2.375242 0,1.486602 0.96338,2.358631 2.15931,2.358631 z m -1.41186,-2.724053 c 0.0914,-0.88864 0.6561,-1.403552 1.29559,-1.403552 0.70593,0 1.12118,0.489997 1.12118,1.403552 z"
       style="fill:#eeeeee;fill-opacity:1;stroke-width:0.26458332"
       id="path1323"
       inkscape:connector-curvature="0" />
    <path
       d="m 167.32199,-37.148784 c 1.39524,0 2.27558,-0.722539 2.27558,-1.561348 0,-0.739148 -0.52322,-1.07135 -1.56966,-1.07135 h -0.88033 c -0.60627,0 -0.78898,-0.199321 -0.78898,-0.489997 0,-0.249152 0.12458,-0.398642 0.29068,-0.539828 0.19932,0.09966 0.44847,0.157796 0.67271,0.157796 0.91355,0 1.64439,-0.606268 1.64439,-1.569653 0,-0.390337 -0.14949,-0.722539 -0.36542,-0.930165 h 0.92186 v -0.581353 h -1.56965 c -0.1578,-0.05814 -0.38203,-0.11627 -0.63118,-0.11627 -0.91356,0 -1.69423,0.622878 -1.69423,1.611178 0,0.539827 0.29067,0.97169 0.58966,1.212536 v 0.03322 c -0.23255,0.166101 -0.50661,0.465082 -0.50661,0.838809 0,0.357117 0.1744,0.597963 0.41525,0.739149 v 0.03322 c -0.42356,0.274066 -0.67271,0.639488 -0.67271,1.02152 0,0.780674 0.76407,1.212536 1.86864,1.212536 z m 0,-4.01964 c -0.52322,0 -0.96339,-0.415252 -0.96339,-1.07135 0,-0.664404 0.43186,-1.05474 0.96339,-1.05474 0.53152,0 0.95508,0.398641 0.95508,1.05474 0,0.656098 -0.44017,1.07135 -0.95508,1.07135 z m 0.10796,3.504728 c -0.8222,0 -1.3122,-0.315592 -1.3122,-0.797284 0,-0.265762 0.14119,-0.531523 0.46509,-0.764064 0.19932,0.04983 0.41525,0.07475 0.58135,0.07475 h 0.78067 c 0.59797,0 0.92186,0.141186 0.92186,0.556438 0,0.473387 -0.57304,0.930165 -1.43677,0.930165 z"
       style="fill:#eeeeee;fill-opacity:1;stroke-width:0.26458332"
       id="path1325"
       inkscape:connector-curvature="0" />
    <path
       d="m 170.47375,-39.225044 h 0.75576 v -4.509638 h -0.75576 z m 0.38203,-5.439802 c 0.29898,0 0.52322,-0.207626 0.52322,-0.489998 0,-0.307286 -0.22424,-0.489997 -0.52322,-0.489997 -0.29898,0 -0.52322,0.182711 -0.52322,0.489997 0,0.282372 0.22424,0.489998 0.52322,0.489998 z"
       style="fill:#eeeeee;fill-opacity:1;stroke-width:0.26458332"
       id="path1327"
       inkscape:connector-curvature="0" />
    <path
       d="m 172.76088,-39.225044 h 0.75576 v -3.272187 c 0.45678,-0.456777 0.77237,-0.689318 1.23745,-0.689318 0.59796,0 0.85542,0.357117 0.85542,1.204231 v 2.757274 h 0.75576 v -2.856934 c 0,-1.154401 -0.43186,-1.768974 -1.37864,-1.768974 -0.61457,0 -1.07965,0.340506 -1.51152,0.764064 h -0.0249 l -0.0664,-0.647794 h -0.62288 z"
       style="fill:#eeeeee;fill-opacity:1;stroke-width:0.26458332"
       id="path1329"
       inkscape:connector-curvature="0" />
    <path
       d="m 177.83799,-39.225044 h 0.75575 v -3.272187 c 0.45678,-0.456777 0.77237,-0.689318 1.23745,-0.689318 0.59797,0 0.85542,0.357117 0.85542,1.204231 v 2.757274 h 0.75576 v -2.856934 c 0,-1.154401 -0.43186,-1.768974 -1.37863,-1.768974 -0.61458,0 -1.07966,0.340506 -1.51152,0.764064 h -0.0249 l -0.0664,-0.647794 h -0.62287 z"
       style="fill:#eeeeee;fill-opacity:1;stroke-width:0.26458332"
       id="path1331"
       inkscape:connector-curvature="0" />
    <path
       d="m 184.7339,-39.117079 c 0.61457,0 1.09626,-0.207626 1.4949,-0.465082 l -0.27406,-0.498303 c -0.33221,0.224237 -0.68932,0.357117 -1.12949,0.357117 -0.85542,0 -1.44508,-0.614573 -1.49491,-1.577958 h 3.03965 c 0.0166,-0.107965 0.0332,-0.265761 0.0332,-0.431862 0,-1.287281 -0.64779,-2.117785 -1.79389,-2.117785 -1.04644,0 -2.03474,0.913554 -2.03474,2.375242 0,1.486602 0.96339,2.358631 2.15932,2.358631 z m -1.41186,-2.724053 c 0.0914,-0.88864 0.6561,-1.403552 1.29558,-1.403552 0.70593,0 1.12119,0.489997 1.12119,1.403552 z"
       style="fill:#eeeeee;fill-opacity:1;stroke-width:0.26458332"
       id="path1333"
       inkscape:connector-curvature="0" />
    <path
       d="m 187.52179,-39.225044 h 0.75576 v -2.89846 c 0.29898,-0.772369 0.76407,-1.03813 1.13779,-1.03813 0.18271,0 0.29068,0.01661 0.44017,0.07475 l 0.14119,-0.664404 c -0.14119,-0.07475 -0.28237,-0.09966 -0.4817,-0.09966 -0.5066,0 -0.96338,0.365422 -1.27897,0.938469 h -0.0249 l -0.0664,-0.822199 h -0.62288 z"
       style="fill:#eeeeee;fill-opacity:1;stroke-width:0.26458332"
       id="path1335"
       inkscape:connector-curvature="0" />
  </g>
  <g
     aria-label="intermediate"
     transform="rotate(75,9.9359798,-21.647206)"
     style="font-style:normal;font-variant:normal;font-weight:normal;font-stretch:normal;font-size:8.30504131px;line-height:1.25;font-family:'Noto Sans CJK KR';-inkscape-font-specification:'Noto Sans CJK KR';letter-spacing:0px;word-spacing:0px;fill:#eeeeee;fill-opacity:1;stroke:none;stroke-width:0.26458332"
     id="text835">
    <path
       d="m 163.82302,-65.280594 h 0.75576 v -4.509637 h -0.75576 z m 0.38204,-5.439802 c 0.29898,0 0.52321,-0.207626 0.52321,-0.489997 0,-0.307287 -0.22423,-0.489998 -0.52321,-0.489998 -0.29899,0 -0.52322,0.182711 -0.52322,0.489998 0,0.282371 0.22423,0.489997 0.52322,0.489997 z"
       style="fill:#eeeeee;fill-opacity:1;stroke-width:0.26458332"
       id="path1296"
       inkscape:connector-curvature="0" />
    <path
       d="m 166.11015,-65.280594 h 0.75576 v -3.272186 c 0.45678,-0.456777 0.77237,-0.689319 1.23745,-0.689319 0.59797,0 0.85542,0.357117 0.85542,1.204231 v 2.757274 h 0.75576 v -2.856934 c 0,-1.154401 -0.43186,-1.768974 -1.37863,-1.768974 -0.61458,0 -1.07966,0.340507 -1.51152,0.764064 h -0.0249 l -0.0664,-0.647793 h -0.62288 z"
       style="fill:#eeeeee;fill-opacity:1;stroke-width:0.26458332"
       id="path1298"
       inkscape:connector-curvature="0" />
    <path
       d="m 172.60742,-65.172628 c 0.27407,0 0.57305,-0.08305 0.83051,-0.166101 l -0.14949,-0.564743 c -0.1495,0.05813 -0.35712,0.116271 -0.51492,0.116271 -0.52322,0 -0.69762,-0.315592 -0.69762,-0.87203 v -2.516427 h 1.22084 v -0.614573 h -1.22084 v -1.262367 h -0.63118 l -0.0914,1.262367 -0.70593,0.04153 v 0.573048 h 0.67271 v 2.499817 c 0,0.90525 0.3239,1.503213 1.28728,1.503213 z"
       style="fill:#eeeeee;fill-opacity:1;stroke-width:0.26458332"
       id="path1300"
       inkscape:connector-curvature="0" />
    <path
       d="m 176.00691,-65.172628 c 0.61457,0 1.09626,-0.207626 1.49491,-0.465083 l -0.27407,-0.498302 c -0.3322,0.224236 -0.68932,0.357117 -1.12949,0.357117 -0.85542,0 -1.44507,-0.614573 -1.4949,-1.577958 h 3.03964 c 0.0166,-0.107966 0.0332,-0.265762 0.0332,-0.431862 0,-1.287282 -0.64779,-2.117786 -1.79389,-2.117786 -1.04643,0 -2.03473,0.913555 -2.03473,2.375242 0,1.486602 0.96338,2.358632 2.15931,2.358632 z m -1.41186,-2.724054 c 0.0914,-0.888639 0.6561,-1.403552 1.29559,-1.403552 0.70593,0 1.12118,0.489998 1.12118,1.403552 z"
       style="fill:#eeeeee;fill-opacity:1;stroke-width:0.26458332"
       id="path1302"
       inkscape:connector-curvature="0" />
    <path
       d="m 178.79481,-65.280594 h 0.75576 v -2.898459 c 0.29898,-0.772369 0.76406,-1.03813 1.13779,-1.03813 0.18271,0 0.29067,0.01661 0.44016,0.07475 l 0.14119,-0.664403 c -0.14119,-0.07475 -0.28237,-0.09966 -0.48169,-0.09966 -0.50661,0 -0.96339,0.365422 -1.27898,0.93847 h -0.0249 l -0.0664,-0.822199 h -0.62288 z"
       style="fill:#eeeeee;fill-opacity:1;stroke-width:0.26458332"
       id="path1304"
       inkscape:connector-curvature="0" />
    <path
       d="m 182.02274,-65.280594 h 0.75576 v -3.272186 c 0.41525,-0.465082 0.79729,-0.689319 1.13779,-0.689319 0.57305,0 0.83881,0.357117 0.83881,1.204231 v 2.757274 h 0.75576 v -3.272186 c 0.42356,-0.465082 0.78898,-0.689319 1.13779,-0.689319 0.57305,0 0.83881,0.357117 0.83881,1.204231 v 2.757274 h 0.75576 v -2.856934 c 0,-1.154401 -0.44017,-1.768974 -1.37033,-1.768974 -0.54813,0 -1.02152,0.357117 -1.4866,0.863724 -0.18272,-0.531522 -0.55644,-0.863724 -1.24576,-0.863724 -0.53983,0 -1.01322,0.340507 -1.40355,0.772369 h -0.0249 l -0.0664,-0.656098 h -0.62288 z"
       style="fill:#eeeeee;fill-opacity:1;stroke-width:0.26458332"
       id="path1306"
       inkscape:connector-curvature="0" />
    <path
       d="m 191.5302,-65.172628 c 0.61457,0 1.09626,-0.207626 1.49491,-0.465083 l -0.27407,-0.498302 c -0.3322,0.224236 -0.68932,0.357117 -1.12949,0.357117 -0.85542,0 -1.44507,-0.614573 -1.4949,-1.577958 h 3.03964 c 0.0166,-0.107966 0.0332,-0.265762 0.0332,-0.431862 0,-1.287282 -0.64779,-2.117786 -1.79389,-2.117786 -1.04643,0 -2.03473,0.913555 -2.03473,2.375242 0,1.486602 0.96338,2.358632 2.15931,2.358632 z m -1.41186,-2.724054 c 0.0914,-0.888639 0.6561,-1.403552 1.29559,-1.403552 0.70593,0 1.12118,0.489998 1.12118,1.403552 z"
       style="fill:#eeeeee;fill-opacity:1;stroke-width:0.26458332"
       id="path1308"
       inkscape:connector-curvature="0" />
    <path
       d="m 195.85453,-65.172628 c 0.53983,0 1.01322,-0.290677 1.37033,-0.639489 h 0.0166 l 0.0747,0.531523 h 0.61457 v -6.610813 h -0.75576 v 1.735754 l 0.0415,0.780674 c -0.39864,-0.332202 -0.73915,-0.531523 -1.27067,-0.531523 -1.02983,0 -1.95169,0.913555 -1.95169,2.375242 0,1.503212 0.73085,2.358632 1.86033,2.358632 z m 0.1661,-0.631183 c -0.79728,0 -1.24575,-0.647794 -1.24575,-1.735754 0,-1.029825 0.57304,-1.727449 1.30389,-1.727449 0.37372,0 0.71423,0.132881 1.09626,0.473388 v 2.366936 c -0.37372,0.415252 -0.73915,0.622879 -1.1544,0.622879 z"
       style="fill:#eeeeee;fill-opacity:1;stroke-width:0.26458332"
       id="path1310"
       inkscape:connector-curvature="0" />
    <path
       d="m 199.46009,-65.280594 h 0.75575 v -4.509637 h -0.75575 z m 0.38203,-5.439802 c 0.29898,0 0.52322,-0.207626 0.52322,-0.489997 0,-0.307287 -0.22424,-0.489998 -0.52322,-0.489998 -0.29898,0 -0.52322,0.182711 -0.52322,0.489998 0,0.282371 0.22424,0.489997 0.52322,0.489997 z"
       style="fill:#eeeeee;fill-opacity:1;stroke-width:0.26458332"
       id="path1312"
       inkscape:connector-curvature="0" />
    <path
       d="m 202.78535,-65.172628 c 0.55644,0 1.06304,-0.290677 1.49491,-0.647794 h 0.0249 l 0.0664,0.539828 h 0.62288 v -2.773884 c 0,-1.112875 -0.46508,-1.852024 -1.56135,-1.852024 -0.72254,0 -1.36203,0.323897 -1.77728,0.589658 l 0.29898,0.523218 c 0.35712,-0.240847 0.83051,-0.481693 1.35373,-0.481693 0.73914,0 0.93016,0.556438 0.93016,1.137791 -1.91846,0.215931 -2.77388,0.705928 -2.77388,1.685923 0,0.813894 0.56474,1.278977 1.3205,1.278977 z m 0.21593,-0.606268 c -0.44847,0 -0.79728,-0.207626 -0.79728,-0.722539 0,-0.581353 0.51491,-0.95508 2.03473,-1.137791 v 1.262367 c -0.44017,0.390337 -0.79728,0.597963 -1.23745,0.597963 z"
       style="fill:#eeeeee;fill-opacity:1;stroke-width:0.26458332"
       id="path1314"
       inkscape:connector-curvature="0" />
    <path
       d="m 207.72542,-65.172628 c 0.27407,0 0.57305,-0.08305 0.8305,-0.166101 l -0.14949,-0.564743 c -0.14949,0.05813 -0.35711,0.116271 -0.51491,0.116271 -0.52322,0 -0.69762,-0.315592 -0.69762,-0.87203 v -2.516427 h 1.22084 v -0.614573 h -1.22084 v -1.262367 h -0.63119 l -0.0914,1.262367 -0.70593,0.04153 v 0.573048 h 0.67271 v 2.499817 c 0,0.90525 0.3239,1.503213 1.28728,1.503213 z"
       style="fill:#eeeeee;fill-opacity:1;stroke-width:0.26458332"
       id="path1316"
       inkscape:connector-curvature="0" />
    <path
       d="m 211.12491,-65.172628 c 0.61457,0 1.09626,-0.207626 1.4949,-0.465083 l -0.27406,-0.498302 c -0.3322,0.224236 -0.68932,0.357117 -1.12949,0.357117 -0.85542,0 -1.44508,-0.614573 -1.49491,-1.577958 h 3.03965 c 0.0166,-0.107966 0.0332,-0.265762 0.0332,-0.431862 0,-1.287282 -0.64779,-2.117786 -1.79389,-2.117786 -1.04644,0 -2.03473,0.913555 -2.03473,2.375242 0,1.486602 0.96338,2.358632 2.15931,2.358632 z m -1.41186,-2.724054 c 0.0913,-0.888639 0.6561,-1.403552 1.29559,-1.403552 0.70592,0 1.12118,0.489998 1.12118,1.403552 z"
       style="fill:#eeeeee;fill-opacity:1;stroke-width:0.26458332"
       id="path1318"
       inkscape:connector-curvature="0" />
  </g>
  <g
     aria-label="expert"
     transform="rotate(75,9.9359798,-21.647206)"
     style="font-style:normal;font-variant:normal;font-weight:normal;font-stretch:normal;font-size:8.30504131px;line-height:1.25;font-family:'Noto Sans CJK KR';-inkscape-font-specification:'Noto Sans CJK KR';letter-spacing:0px;word-spacing:0px;fill:#eeeeee;fill-opacity:1;stroke:none;stroke-width:0.26458332"
     id="text839">
    <path
       d="m 173.35121,-96.153799 c 0.61457,0 1.09626,-0.207626 1.49491,-0.465082 l -0.27407,-0.498303 c -0.3322,0.224236 -0.68932,0.357117 -1.12949,0.357117 -0.85541,0 -1.44507,-0.614573 -1.4949,-1.577958 h 3.03964 c 0.0166,-0.107965 0.0332,-0.265761 0.0332,-0.431862 0,-1.287283 -0.64779,-2.117783 -1.79389,-2.117783 -1.04643,0 -2.03473,0.913552 -2.03473,2.375239 0,1.486603 0.96338,2.358632 2.15931,2.358632 z m -1.41186,-2.724054 c 0.0914,-0.888639 0.6561,-1.403547 1.29559,-1.403547 0.70593,0 1.12118,0.489993 1.12118,1.403547 z"
       style="fill:#eeeeee;fill-opacity:1;stroke-width:0.26458332"
       id="path1283"
       inkscape:connector-curvature="0" />
    <path
       d="m 175.43474,-96.261765 h 0.79728 l 0.60627,-1.05474 c 0.15779,-0.274066 0.30728,-0.548132 0.46508,-0.805589 h 0.0415 c 0.1661,0.257457 0.3322,0.531523 0.48169,0.805589 l 0.6644,1.05474 h 0.83051 l -1.48661,-2.275581 1.37034,-2.234054 h -0.78898 l -0.55644,0.996603 c -0.13288,0.249151 -0.26576,0.498302 -0.40695,0.747454 h -0.0332 c -0.14949,-0.249152 -0.30729,-0.498303 -0.44847,-0.747454 l -0.60627,-0.996603 H 175.551 l 1.37033,2.159309 z"
       style="fill:#eeeeee;fill-opacity:1;stroke-width:0.26458332"
       id="path1285"
       inkscape:connector-curvature="0" />
    <path
       d="m 180.21052,-94.35991 h 0.75576 v -1.528128 l -0.0166,-0.788979 c 0.40695,0.332202 0.83881,0.523218 1.24576,0.523218 1.03813,0 1.95999,-0.888639 1.95999,-2.433377 0,-1.386942 -0.63118,-2.300494 -1.79389,-2.300494 -0.52322,0 -1.02982,0.29898 -1.43677,0.63118 h -0.0249 l -0.0664,-0.51491 h -0.62288 z m 1.86033,-2.425072 c -0.29898,0 -0.69762,-0.124576 -1.10457,-0.473387 v -2.366937 c 0.44017,-0.406944 0.83051,-0.622874 1.21254,-0.622874 0.85542,0 1.18762,0.672704 1.18762,1.669309 0,1.121181 -0.54813,1.793889 -1.29559,1.793889 z"
       style="fill:#eeeeee;fill-opacity:1;stroke-width:0.26458332"
       id="path1287"
       inkscape:connector-curvature="0" />
    <path
       d="m 187.17132,-96.153799 c 0.61457,0 1.09626,-0.207626 1.4949,-0.465082 l -0.27406,-0.498303 c -0.3322,0.224236 -0.68932,0.357117 -1.12949,0.357117 -0.85542,0 -1.44507,-0.614573 -1.4949,-1.577958 h 3.03964 c 0.0166,-0.107965 0.0332,-0.265761 0.0332,-0.431862 0,-1.287283 -0.64779,-2.117783 -1.79389,-2.117783 -1.04643,0 -2.03473,0.913552 -2.03473,2.375239 0,1.486603 0.96338,2.358632 2.15931,2.358632 z m -1.41186,-2.724054 c 0.0914,-0.888639 0.6561,-1.403547 1.29559,-1.403547 0.70593,0 1.12118,0.489993 1.12118,1.403547 z"
       style="fill:#eeeeee;fill-opacity:1;stroke-width:0.26458332"
       id="path1289"
       inkscape:connector-curvature="0" />
    <path
       d="m 189.95922,-96.261765 h 0.75575 v -2.898459 c 0.29899,-0.772369 0.76407,-1.038126 1.1378,-1.038126 0.18271,0 0.29067,0.0166 0.44016,0.0747 l 0.14119,-0.6644 c -0.14119,-0.0747 -0.28237,-0.0997 -0.48169,-0.0997 -0.50661,0 -0.96339,0.36542 -1.27898,0.938467 h -0.0249 l -0.0664,-0.822197 h -0.62287 z"
       style="fill:#eeeeee;fill-opacity:1;stroke-width:0.26458332"
       id="path1291"
       inkscape:connector-curvature="0" />
    <path
       d="m 194.60731,-96.153799 c 0.27407,0 0.57305,-0.08305 0.83051,-0.166101 l -0.14949,-0.564743 c -0.14949,0.05814 -0.35712,0.116271 -0.51492,0.116271 -0.52321,0 -0.69762,-0.315592 -0.69762,-0.872029 v -2.516429 h 1.22084 v -0.61457 h -1.22084 v -1.26237 h -0.63118 l -0.0914,1.26237 -0.70593,0.0415 v 0.57305 h 0.67271 v 2.499819 c 0,0.905249 0.3239,1.503212 1.28728,1.503212 z"
       style="fill:#eeeeee;fill-opacity:1;stroke-width:0.26458332"
       id="path1293"
       inkscape:connector-curvature="0" />
  </g>
  <path
     style="fill:none;stroke:#7b7b7b;stroke-width:0.5;stroke-linecap:butt;stroke-linejoin:miter;stroke-miterlimit:4;stroke-dasharray:none;stroke-opacity:1"
     d="M 64.141104,108.85821 V 30.815508"
     id="path1261"
     inkscape:connector-curvature="0" />
  <path
     id="path1263"
     d="M 95.322543,108.85821 V 30.815508"
     style="fill:none;stroke:#7b7b7b;stroke-width:0.5;stroke-linecap:butt;stroke-linejoin:miter;stroke-miterlimit:4;stroke-dasharray:none;stroke-opacity:1"
     inkscape:connector-curvature="0" />
  <path
     style="fill:none;stroke:#7b7b7b;stroke-width:0.5;stroke-linecap:butt;stroke-linejoin:miter;stroke-miterlimit:4;stroke-dasharray:none;stroke-opacity:1"
     d="M 126.50399,108.85821 V 30.815508"
     id="path1265"
     inkscape:connector-curvature="0" />
  <path
     sodipodi:nodetypes="csssc"
     inkscape:connector-curvature="0"
     style="fill:none;stroke:#eeeeee;stroke-width:3;stroke-linecap:butt;stroke-linejoin:miter;stroke-miterlimit:4;stroke-dasharray:none;stroke-opacity:1"
     d="M 35.365088,63.422391 C 41.512287,45.248062 50.78762,37.817777 65.566542,38.031785 c 14.490694,0.209834 14.387175,23.544325 27.957642,46.656139 9.386726,15.986506 22.002536,20.504806 30.841656,21.764856 9.73421,1.38765 28.8651,1.33635 28.8651,1.33635"
     id="path1175" />
  <g
     aria-label="many"
     style="font-style:normal;font-variant:normal;font-weight:normal;font-stretch:normal;font-size:8.00076771px;line-height:1.25;font-family:'Noto Sans CJK KR';-inkscape-font-specification:'Noto Sans CJK KR';letter-spacing:0px;word-spacing:0px;fill:#eeeeee;fill-opacity:1;stroke:none;stroke-width:0.26458332"
     id="text4665">
    <path
       d="m 8.8487062,47.89135 h 0.7280699 v -3.152303 c 0.4000384,-0.448043 0.7680739,-0.664063 1.0961049,-0.664063 0.552053,0 0.808078,0.344033 0.808078,1.160111 v 2.656255 h 0.72807 v -3.152303 c 0.408039,-0.448043 0.760073,-0.664063 1.096105,-0.664063 0.552053,0 0.808077,0.344033 0.808077,1.160111 v 2.656255 h 0.72807 v -2.752264 c 0,-1.112107 -0.42404,-1.704164 -1.320126,-1.704164 -0.528051,0 -0.984095,0.344033 -1.432138,0.83208 -0.176017,-0.512049 -0.536051,-0.83208 -1.200115,-0.83208 -0.52005,0 -0.9760937,0.328032 -1.3521297,0.744072 H 9.51277 L 9.4487638,43.546933 H 8.8487062 Z"
       style="fill:#eeeeee;fill-opacity:1;stroke-width:0.26458332"
       id="path4690" />
    <path
       d="m 17.255763,47.99536 c 0.536052,0 1.024098,-0.280027 1.440138,-0.62406 h 0.024 l 0.06401,0.52005 h 0.600057 v -2.672257 c 0,-1.072102 -0.448043,-1.784171 -1.504144,-1.784171 -0.696067,0 -1.312126,0.31203 -1.712164,0.568055 l 0.288027,0.504048 c 0.344033,-0.232022 0.800077,-0.464044 1.304126,-0.464044 0.712068,0 0.896086,0.536051 0.896086,1.096105 -1.848178,0.20802 -2.672257,0.680065 -2.672257,1.624156 0,0.784075 0.544052,1.232118 1.272122,1.232118 z m 0.20802,-0.584056 c -0.432041,0 -0.768074,-0.200019 -0.768074,-0.696067 0,-0.560054 0.496048,-0.920088 1.960189,-1.096105 v 1.216116 c -0.424041,0.376037 -0.768074,0.576056 -1.192115,0.576056 z"
       style="fill:#eeeeee;fill-opacity:1;stroke-width:0.26458332"
       id="path4692" />
    <path
       d="m 20.771726,47.89135 h 0.72807 v -3.152303 c 0.440042,-0.440042 0.744071,-0.664063 1.192114,-0.664063 0.576055,0 0.824079,0.344033 0.824079,1.160111 v 2.656255 h 0.72807 v -2.752264 c 0,-1.112107 -0.41604,-1.704164 -1.328128,-1.704164 -0.592056,0 -1.040099,0.328032 -1.456139,0.736071 h -0.024 l -0.06401,-0.62406 h -0.600057 z"
       style="fill:#eeeeee;fill-opacity:1;stroke-width:0.26458332"
       id="path4694" />
    <path
       d="m 25.734827,49.763529 c 0.864083,0 1.312126,-0.656063 1.616155,-1.512145 l 1.640157,-4.704451 h -0.712068 l -0.776075,2.416232 c -0.120011,0.384037 -0.248023,0.824079 -0.368035,1.216116 h -0.04 c -0.136013,-0.392037 -0.288027,-0.84008 -0.41604,-1.216116 l -0.888085,-2.416232 h -0.760073 l 1.744168,4.352418 -0.09601,0.328031 c -0.176017,0.536051 -0.488046,0.93609 -0.984094,0.93609 -0.112011,0 -0.240023,-0.04 -0.328032,-0.07201 l -0.144013,0.584056 c 0.136013,0.056 0.304029,0.08801 0.512049,0.08801 z"
       style="fill:#eeeeee;fill-opacity:1;stroke-width:0.26458332"
       id="path4696" />
  </g>
  <g
     aria-label="few"
     style="font-style:normal;font-variant:normal;font-weight:normal;font-stretch:normal;font-size:8.00076771px;line-height:1.25;font-family:'Noto Sans CJK KR';-inkscape-font-specification:'Noto Sans CJK KR';letter-spacing:0px;word-spacing:0px;fill:#eeeeee;fill-opacity:1;stroke:none;stroke-width:0.26458332"
     id="text4681">
    <path
       d="m 18.653772,99.571677 c -0.20802,-0.08801 -0.464044,-0.144014 -0.728069,-0.144014 -0.864083,0 -1.264122,0.552053 -1.264122,1.432137 v 0.69607 l -0.592057,0.04 v 0.55205 h 0.592057 v 3.75236 h 0.72807 v -3.75236 h 0.920088 v -0.59205 h -0.920088 v -0.68807 c 0,-0.56005 0.200019,-0.85608 0.616059,-0.85608 0.152015,0 0.328032,0.04 0.488047,0.11201 z"
       style="fill:#eeeeee;fill-opacity:1;stroke-width:0.26458332"
       id="path4683" />
    <path
       d="m 20.793978,106.00429 c 0.592056,0 1.056101,-0.20002 1.440138,-0.44804 l -0.264025,-0.48005 c -0.320031,0.21603 -0.664064,0.34404 -1.088105,0.34404 -0.824079,0 -1.392133,-0.59206 -1.440138,-1.52015 h 2.928281 c 0.016,-0.10401 0.032,-0.25602 0.032,-0.41604 0,-1.24012 -0.62406,-2.04019 -1.728166,-2.04019 -1.008097,0 -1.960188,0.88008 -1.960188,2.28822 0,1.43213 0.928089,2.27221 2.0802,2.27221 z m -1.360131,-2.62425 c 0.08801,-0.85608 0.632061,-1.35213 1.24812,-1.35213 0.680065,0 1.080104,0.47205 1.080104,1.35213 z"
       style="fill:#eeeeee;fill-opacity:1;stroke-width:0.26458332"
       id="path4685" />
    <path
       d="m 24.214681,105.90028 h 0.856082 l 0.608058,-2.32822 c 0.112011,-0.41604 0.200019,-0.82408 0.296029,-1.26412 h 0.04 c 0.10401,0.44004 0.184018,0.84008 0.296029,1.24812 l 0.63206,2.34422 h 0.880085 l 1.168112,-4.34441 h -0.688066 l -0.640061,2.51224 c -0.09601,0.41604 -0.176017,0.80808 -0.272027,1.21611 h -0.032 c -0.10401,-0.40803 -0.200019,-0.80007 -0.304029,-1.21611 l -0.680065,-2.51224 H 25.66282 l -0.672065,2.51224 c -0.112011,0.40804 -0.200019,0.80808 -0.296028,1.21611 h -0.04 c -0.08001,-0.40803 -0.168016,-0.80007 -0.256025,-1.21611 l -0.648062,-2.51224 h -0.744071 z"
       style="fill:#eeeeee;fill-opacity:1;stroke-width:0.26458332"
       id="path4687" />
  </g>
  <text
     xml:space="preserve"
     style="font-style:normal;font-variant:normal;font-weight:normal;font-stretch:normal;font-size:3.52777767px;line-height:1.25;font-family:'Noto Sans CJK KR';-inkscape-font-specification:'Noto Sans CJK KR';letter-spacing:0px;word-spacing:0px;fill:#000000;fill-opacity:1;stroke:none;stroke-width:0.26458332"
     x="-39.163822"
     y="39.57275"
     id="text4701"><tspan
       sodipodi:role="line"
       id="tspan4699"
       x="-39.163822"
       y="39.57275"
       style="stroke-width:0.26458332">noto sans</tspan></text>
  <path
     inkscape:connector-curvature="0"
     id="path1480"
     d="M 32.959661,108.85821 V 30.815508"
     style="fill:none;stroke:#7b7b7b;stroke-width:0.5;stroke-linecap:butt;stroke-linejoin:miter;stroke-miterlimit:4;stroke-dasharray:none;stroke-opacity:1" />
</svg>
